<?xml version="1.0" encoding="utf-8"?>
<!-- Generator: Adobe Illustrator 16.0.0, SVG Export Plug-In . SVG Version: 6.00 Build 0)  -->
<!DOCTYPE svg PUBLIC "-//W3C//DTD SVG 1.1//EN" "http://www.w3.org/Graphics/SVG/1.1/DTD/svg11.dtd">
<svg version="1.1" id="Layer_1" xmlns="http://www.w3.org/2000/svg" xmlns:xlink="http://www.w3.org/1999/xlink" x="0px" y="0px"
	 width="50px" height="50px" viewBox="0 0 50 50" enable-background="new 0 0 50 50" xml:space="preserve">
<g id="XMLID_30_">
	<path id="XMLID_25_" fill="#95335E" d="M24.966,24.362c-0.878,0-1.638,0.719-1.638,1.599c0,0.878,0.719,1.599,1.638,1.599
		c0.879,0,1.637-0.721,1.637-1.599C26.603,25.081,25.885,24.362,24.966,24.362"/>
</g>
<path id="XMLID_31_" fill="#5DBEC5" d="M48.893,26.76c-1.119,0.958-3.915,4.714-5.312,7.788c-0.6-0.279-1.238-0.238-1.758,0.12
	c-2.276-1.877-6.711-4.833-10.065-6.79c0.159-0.6,0.279-1.238,0.279-1.878c0-3.236-2.237-5.953-5.312-6.71
	c-0.04-3.835-0.398-9.066-0.918-11.984c0.559-0.279,0.957-0.798,0.998-1.438c3.355,0.359,8.068-0.159,9.467-0.639
	c0,0-0.159-0.68-0.879-0.879c-2.156-0.56-6.351,0.159-8.629,0.998c-0.199-0.799-0.878-1.357-1.757-1.357
	c-0.838,0-1.558,0.599-1.757,1.357c-2.277-0.878-6.471-1.558-8.628-0.998c-0.759,0.199-0.878,0.879-0.878,0.879
	c1.398,0.479,6.111,0.998,9.466,0.639c0.04,0.64,0.438,1.199,0.999,1.438c-0.52,2.918-0.879,8.149-0.919,11.984
	c-3.035,0.758-5.312,3.475-5.312,6.71c0,0.64,0.079,1.278,0.279,1.878c-3.355,1.957-7.789,4.872-10.064,6.79
	c-0.521-0.319-1.198-0.399-1.758-0.12c-1.438-3.074-4.234-6.869-5.354-7.788c0,0-0.52,0.479-0.319,1.197
	c0.599,2.157,3.315,5.353,5.192,6.871c-0.6,0.56-0.76,1.438-0.319,2.157c0.438,0.719,1.278,1.037,2.077,0.799
	c0.398,2.355,1.837,6.311,3.436,7.867c0.56,0.521,1.197,0.32,1.197,0.32c-0.279-1.438-2.197-5.713-4.154-8.429
	c0.52-0.358,0.84-0.959,0.799-1.558c2.797-1,7.59-3.315,10.984-5.193c1.278,1.279,3.076,2.117,5.033,2.117s3.755-0.799,5.032-2.117
	c3.396,1.878,8.188,4.193,10.984,5.193c-0.04,0.599,0.239,1.197,0.8,1.558c-1.997,2.716-3.875,6.99-4.153,8.429
	c0,0,0.679,0.199,1.198-0.32c1.597-1.558,3.034-5.512,3.434-7.867c0.76,0.238,1.638-0.08,2.077-0.799
	c0.44-0.721,0.28-1.639-0.318-2.157c1.877-1.519,4.594-4.714,5.191-6.871C49.411,27.198,48.893,26.76,48.893,26.76 M24.966,10.102
	c0.44,0,0.799,7.07,0.799,9.627c0,0.438-0.358,0.799-0.799,0.799c-0.438,0-0.798-0.36-0.798-0.799
	C24.207,17.172,24.566,10.102,24.966,10.102 M19.933,29.715c-2.276,1.278-8.628,4.515-8.868,4.154
	c-0.199-0.359,5.832-4.234,8.069-5.513c0.358-0.199,0.878-0.08,1.079,0.279C20.413,29.036,20.293,29.517,19.933,29.715
	 M23.368,31.632c-0.399,0-0.759-0.318-0.759-0.719s0.318-0.76,0.759-0.76c0.399,0,0.759,0.32,0.759,0.76
	C24.088,31.272,23.768,31.632,23.368,31.632 M26.603,31.632c-0.396,0-0.758-0.318-0.758-0.719s0.319-0.719,0.758-0.719
	c0.401,0,0.761,0.318,0.761,0.719C27.362,31.272,27.044,31.632,26.603,31.632 M24.966,29.476c-1.957,0-3.555-1.598-3.555-3.515
	c0-1.958,1.598-3.517,3.555-3.517s3.595,1.599,3.595,3.517C28.561,27.918,26.963,29.476,24.966,29.476 M38.907,33.869
	c-0.24,0.399-6.633-2.836-8.869-4.114c-0.358-0.199-0.52-0.679-0.278-1.078c0.199-0.359,0.718-0.52,1.078-0.279
	C33.074,29.675,39.106,33.51,38.907,33.869"/>
</svg>
