<?xml version="1.0" encoding="utf-8"?>
<!-- Generator: Adobe Illustrator 16.0.0, SVG Export Plug-In . SVG Version: 6.00 Build 0)  -->
<!DOCTYPE svg PUBLIC "-//W3C//DTD SVG 1.1//EN" "http://www.w3.org/Graphics/SVG/1.1/DTD/svg11.dtd">
<svg version="1.1" id="Layer_1" xmlns="http://www.w3.org/2000/svg" xmlns:xlink="http://www.w3.org/1999/xlink" x="0px" y="0px"
	 width="50px" height="50px" viewBox="0 0 50 50" enable-background="new 0 0 50 50" xml:space="preserve">
<rect x="19.521" y="35.252" fill="#95335E" width="3.955" height="3.953"/>
<rect x="35.963" y="24.151" fill="#95335E" width="3.955" height="3.955"/>
<rect x="29.27" y="32.163" fill="#95335E" width="3.953" height="3.954"/>
<rect x="16.782" y="19.573" fill="#166A70" width="3.953" height="3.954"/>
<rect x="23.373" y="25.607" fill="#166A70" width="3.952" height="3.955"/>
<rect x="20.735" y="11.006" fill="#95335E" width="3.954" height="3.954"/>
<rect x="10.851" y="25.607" fill="#5DBEC5" width="3.954" height="3.955"/>
<rect x="10.851" y="12.08" fill="#5DBEC5" width="3.954" height="3.955"/>
<rect x="31.245" y="16.139" fill="#5DBEC5" width="3.955" height="3.953"/>
<path fill="#166A70" d="M35.859,10.477c-0.154-1.25-0.907-2.357-1.987-2.952c0.378-0.447,0.582-1.003,0.582-1.595
	c0-1.371-1.112-2.483-2.481-2.483S29.49,4.56,29.49,5.93c0,0.592,0.205,1.151,0.584,1.597c-1.051,0.587-1.756,1.667-1.902,2.939
	l-0.104,0.778l0.076,0.074c1.013,0.957,2.336,1.484,3.729,1.484c0.077,0,0.155-0.001,0.233-0.006c1.4-0.058,2.74-0.585,3.771-1.485
	l0.084-0.074L35.859,10.477z M31.973,4.396c0.844,0,1.532,0.688,1.532,1.533c0,0.845-0.688,1.532-1.532,1.532
	c-0.846,0-1.533-0.687-1.533-1.532C30.439,5.084,31.127,4.396,31.973,4.396z M32.064,11.846c-1.098,0.045-2.127-0.291-2.974-0.965
	c0.03-1.24,0.757-2.308,1.834-2.702c0.661,0.31,1.433,0.31,2.093,0c1.101,0.399,1.873,1.475,1.922,2.666
	C34.113,11.456,33.122,11.803,32.064,11.846z"/>
<path fill="#166A70" d="M16.064,7.75c-0.156-1.252-0.908-2.357-1.989-2.952c0.378-0.447,0.584-1.003,0.584-1.597
	c0-1.369-1.114-2.483-2.483-2.483c-1.37,0-2.483,1.114-2.483,2.483c0,0.594,0.206,1.151,0.585,1.599
	C9.226,5.386,8.521,6.466,8.375,7.736l-0.104,0.78l0.077,0.073c1.013,0.958,2.337,1.485,3.729,1.485
	c0.077,0,0.155-0.003,0.233-0.006c1.401-0.057,2.741-0.584,3.772-1.485l0.085-0.074L16.064,7.75z M12.176,1.669
	c0.846,0,1.532,0.687,1.532,1.531c0,0.846-0.687,1.534-1.532,1.534c-0.845,0-1.533-0.688-1.533-1.534
	C10.643,2.355,11.33,1.669,12.176,1.669z M12.271,9.119c-1.1,0.045-2.131-0.292-2.977-0.967c0.03-1.238,0.757-2.306,1.834-2.7
	c0.661,0.31,1.432,0.31,2.093,0c1.1,0.399,1.874,1.473,1.922,2.666C14.316,8.729,13.326,9.075,12.271,9.119z"/>
<path fill="#166A70" d="M14.696,38.473c-0.155-1.25-0.908-2.357-1.989-2.953c0.379-0.444,0.584-1.004,0.584-1.596
	c0-1.367-1.114-2.482-2.483-2.482c-1.37,0-2.483,1.115-2.483,2.482c0,0.594,0.206,1.151,0.585,1.6
	c-1.052,0.586-1.756,1.666-1.902,2.938l-0.104,0.778l0.076,0.073c1.012,0.957,2.336,1.483,3.729,1.483
	c0.077,0,0.154-0.001,0.232-0.005c1.401-0.057,2.741-0.586,3.772-1.484l0.085-0.074L14.696,38.473z M10.808,32.391
	c0.845,0,1.532,0.688,1.532,1.533c0,0.846-0.688,1.532-1.532,1.532c-0.844,0-1.533-0.687-1.533-1.532
	C9.274,33.079,9.963,32.391,10.808,32.391z M10.902,39.841c-1.1,0.045-2.13-0.291-2.976-0.965c0.03-1.237,0.756-2.31,1.834-2.701
	c0.661,0.31,1.432,0.31,2.094-0.002c1.1,0.399,1.874,1.476,1.921,2.666C12.948,39.45,11.957,39.797,10.902,39.841z"/>
<path fill="#166A70" d="M42.994,37.604c-0.155-1.25-0.909-2.356-1.99-2.951c0.379-0.445,0.585-1.004,0.585-1.594
	c0-1.371-1.112-2.485-2.483-2.485c-1.369,0-2.483,1.114-2.483,2.485c0,0.592,0.206,1.149,0.586,1.598
	c-1.052,0.587-1.756,1.666-1.901,2.937l-0.104,0.78l0.077,0.072c1.012,0.957,2.336,1.484,3.729,1.484
	c0.076,0,0.155-0.003,0.233-0.006c1.401-0.058,2.739-0.585,3.771-1.484l0.086-0.074L42.994,37.604z M39.104,31.523
	c0.846,0,1.535,0.688,1.535,1.533c0,0.844-0.689,1.532-1.535,1.532c-0.845,0-1.53-0.688-1.53-1.532
	C37.573,32.212,38.26,31.523,39.104,31.523z M39.199,38.975c-1.098,0.045-2.131-0.291-2.975-0.967
	c0.029-1.238,0.756-2.308,1.832-2.701c0.661,0.312,1.434,0.312,2.094,0c1.101,0.398,1.875,1.475,1.923,2.664
	C41.247,38.584,40.255,38.93,39.199,38.975z"/>
<path fill="#166A70" d="M30.508,46.96c-0.156-1.251-0.908-2.356-1.99-2.953c0.379-0.444,0.586-1.003,0.586-1.595
	c0-1.37-1.115-2.482-2.485-2.482c-1.368,0-2.483,1.112-2.483,2.482c0,0.594,0.206,1.15,0.587,1.598
	c-1.052,0.588-1.757,1.666-1.904,2.938l-0.103,0.779L22.79,47.8c1.012,0.956,2.338,1.483,3.729,1.483
	c0.078,0,0.154-0.002,0.234-0.006c1.398-0.057,2.739-0.584,3.771-1.483l0.084-0.073L30.508,46.96z M26.617,40.878
	c0.846,0,1.533,0.688,1.533,1.534c0,0.844-0.688,1.531-1.533,1.531c-0.844,0-1.532-0.688-1.532-1.531
	C25.085,41.566,25.773,40.878,26.617,40.878z M26.713,48.328c-1.1,0.046-2.13-0.29-2.975-0.967c0.03-1.236,0.756-2.307,1.833-2.699
	c0.662,0.311,1.434,0.311,2.095,0c1.101,0.396,1.874,1.473,1.922,2.665C28.759,47.939,27.77,48.285,26.713,48.328z"/>
<g>
	
		<rect x="30.957" y="14.951" transform="matrix(-0.1496 -0.9887 0.9887 -0.1496 22.5244 50.0948)" fill="#166A70" width="3.694" height="0.821"/>
	<g>
		<polygon fill="#166A70" points="31.462,15.78 33.045,16.949 34.213,15.363 34.391,16.532 33.223,18.115 31.639,16.949 		"/>
	</g>
</g>
<g>
	
		<rect x="15.521" y="10.937" transform="matrix(-0.9222 -0.3868 0.3868 -0.9222 31.7736 29.0881)" fill="#166A70" width="6.586" height="0.821"/>
	<g>
		<polygon fill="#166A70" points="19.803,13.27 21.624,12.525 20.879,10.705 21.969,11.161 22.714,12.982 20.892,13.728 		"/>
	</g>
</g>
<g>
	
		<rect x="11.345" y="11.659" transform="matrix(-0.1959 -0.9806 0.9806 -0.1959 3.0302 26.6255)" fill="#166A70" width="2.174" height="0.822"/>
	<g>
		<polygon fill="#166A70" points="13.689,11.262 12.597,12.9 10.96,11.807 11.19,12.965 12.827,14.057 13.919,12.421 		"/>
	</g>
</g>
<g>
	
		<rect x="17.76" y="35.088" transform="matrix(-0.0797 -0.9968 0.9968 -0.0797 -17.7517 58.5894)" fill="#166A70" width="0.821" height="4.803"/>
	<g>
		<polygon fill="#166A70" points="19.044,38.816 20.322,37.32 18.825,36.044 20.003,35.95 21.498,37.229 20.222,38.725 		"/>
	</g>
</g>
<g>
	
		<rect x="29.363" y="34.769" transform="matrix(-0.9142 -0.4054 0.4054 -0.9142 41.8034 83.7854)" fill="#166A70" width="0.821" height="5.394"/>
	<g>
		<polygon fill="#166A70" points="31.475,37.059 30.768,35.221 28.932,35.93 29.409,34.85 31.245,34.143 31.953,35.979 		"/>
	</g>
</g>
<g>
	
		<rect x="20.678" y="33.451" transform="matrix(-0.1122 -0.9937 0.9937 -0.1122 -4.6691 63.5541)" fill="#166A70" width="10.755" height="0.824"/>
	<g>
		<polygon fill="#166A70" points="27.021,29.986 25.481,28.758 24.255,30.297 24.122,29.124 25.35,27.584 26.889,28.812 		"/>
	</g>
</g>
<rect x="23.605" y="10.487" transform="matrix(-0.6314 -0.7755 0.7755 -0.6314 25.7861 46.7916)" fill="#166A70" width="0.82" height="13.56"/>
<g>
	<rect x="37.529" y="27.066" fill="#166A70" width="0.82" height="3.033"/>
	<g>
		<polygon fill="#166A70" points="39.332,28.701 37.939,27.309 36.548,28.701 36.548,27.521 37.939,26.128 39.332,27.521 		"/>
	</g>
</g>
<g>
	
		<rect x="12.017" y="28.481" transform="matrix(-0.98 -0.1989 0.1989 -0.98 18.7328 60.9566)" fill="#166A70" width="0.82" height="2.113"/>
	<g>
		<polygon fill="#166A70" points="13.677,30.383 12.592,28.742 10.951,29.827 11.187,28.671 12.827,27.584 13.913,29.227 		"/>
	</g>
</g>
</svg>
