<?xml version="1.0" encoding="utf-8"?>
<!-- Generator: Adobe Illustrator 16.0.0, SVG Export Plug-In . SVG Version: 6.00 Build 0)  -->
<!DOCTYPE svg PUBLIC "-//W3C//DTD SVG 1.1//EN" "http://www.w3.org/Graphics/SVG/1.1/DTD/svg11.dtd">
<svg version="1.1" id="Layer_1" xmlns="http://www.w3.org/2000/svg" xmlns:xlink="http://www.w3.org/1999/xlink" x="0px" y="0px"
	 width="50px" height="50px" viewBox="0 0 50 50" enable-background="new 0 0 50 50" xml:space="preserve">
<g id="XMLID_54_">
	<path id="XMLID_25_" fill="#95335E" d="M22.937,20.749c0.607-0.607,1.438-0.928,2.334-0.928c1.629,0,2.909,1.088,3.069,2.654
		l0.033,0.319c0.031,0.224,0.031,0.319,0.062,0.671c0,0.448,0.256,0,0.32-0.158c0.48-0.705,0.734-1.566,0.734-2.463
		c0-2.492-2.016-4.508-4.54-4.508c-2.494,0-4.541,2.016-4.541,4.508c0,1.151,0.576,2.109,1.151,2.973
		c0.416,0.64,0.479,0.097,0.447-0.223v-0.768C22.075,22.028,22.394,21.293,22.937,20.749"/>
</g>
<path id="XMLID_51_" fill="#166A70" d="M36.078,31.905c-0.289-0.062-0.865-0.254-1.408-0.414c-0.67-0.225-1.373-0.448-1.887-0.545
	c-0.256-0.063-0.801-0.223-1.344-0.383c-0.701-0.225-1.404-0.447-1.916-0.543c-0.48-0.098-0.959-0.098-1.408,0
	c-0.223-1.982-0.801-6.713-0.895-7.451l0,0c-0.096-0.99-0.928-1.693-1.982-1.693c-0.607,0-1.184,0.225-1.566,0.607
	c-0.353,0.352-0.543,0.832-0.543,1.343v13.715c-0.48-0.097-1.343-0.383-2.014-1.343l-0.097-0.129
	c-0.128-0.158-0.224-0.319-0.32-0.446c-0.479-0.672-1.183-1.056-1.918-1.056c-0.64,0-1.215,0.257-1.599,0.735
	c-0.416,0.511-0.575,1.149-0.479,1.854c0.289,1.66,1.982,5.4,5.563,9.078v3.422c0,0.734,0.607,1.342,1.342,1.342h11.251
	c0.738,0,1.346-0.607,1.346-1.342v-3.485l1.182-1.981c0.512-0.863,0.801-1.854,0.801-2.846v-6.011
	C38.154,33.537,37.322,32.162,36.078,31.905"/>
<path id="XMLID_56_" fill="#5DBEC5" d="M30.035,25.513c0.158,0.127,0.35,0.191,0.574,0.191c0.258,0,0.512-0.127,0.703-0.319
	c1.152-1.405,1.76-3.166,1.76-4.987s-0.607-3.517-1.729-4.922c-0.318-0.385-0.863-0.449-1.246-0.129
	c-0.385,0.321-0.449,0.863-0.16,1.247c0.863,1.087,1.344,2.431,1.344,3.836c0,1.406-0.48,2.75-1.375,3.869
	C29.586,24.649,29.65,25.224,30.035,25.513"/>
<path id="XMLID_55_" fill="#5DBEC5" d="M19.964,15.347c-0.383-0.32-0.959-0.256-1.247,0.127c-1.151,1.406-1.758,3.166-1.758,4.987
	c0,1.822,0.606,3.517,1.726,4.923c0.192,0.225,0.448,0.352,0.704,0.352c0.192,0,0.384-0.063,0.543-0.19
	c0.384-0.321,0.447-0.862,0.16-1.247c-0.862-1.087-1.343-2.43-1.343-3.836s0.479-2.75,1.375-3.869
	C20.412,16.209,20.348,15.667,19.964,15.347"/>
<path id="XMLID_80_" fill="#5DBEC5" d="M26.967,3.229h-3.933c-0.353,0-0.64-0.287-0.64-0.639c0-0.351,0.288-0.639,0.64-0.639h3.933
	c0.35,0,0.639,0.288,0.639,0.639C27.605,2.942,27.316,3.229,26.967,3.229 M36.523,0.001H13.475c-1.407,0-2.558,1.15-2.558,2.557
	v38.204c0,1.407,1.15,2.558,2.558,2.558h4.859c0.991,0,0.575-0.352,0.448-0.543c-1.822-2.524-2.877-4.892-3.103-6.395
	c-0.032-0.191-0.063-0.384-0.063-0.576c0-0.189,0.096-0.574-0.575-0.574h-0.576c-0.353,0-0.64-0.287-0.64-0.64V5.53
	c0-0.352,0.287-0.639,0.64-0.639h21.07c0.35,0,0.639,0.289,0.639,0.639v24.682c0,0.607,0.35,0.671,0.445,0.703
	c0.928,0.288,1.631,0.96,2.078,1.693c0.16,0.257,0.385,0.385,0.385-0.062V2.558C39.082,1.151,37.93,0.001,36.523,0.001"/>
</svg>
