<?xml version="1.0" encoding="utf-8"?>
<!-- Generator: Adobe Illustrator 16.0.0, SVG Export Plug-In . SVG Version: 6.00 Build 0)  -->
<!DOCTYPE svg PUBLIC "-//W3C//DTD SVG 1.1//EN" "http://www.w3.org/Graphics/SVG/1.1/DTD/svg11.dtd">
<svg version="1.1" id="Layer_1" xmlns="http://www.w3.org/2000/svg" xmlns:xlink="http://www.w3.org/1999/xlink" x="0px" y="0px"
	 width="50px" height="50px" viewBox="0 0 50 50" enable-background="new 0 0 50 50" xml:space="preserve">
<g id="XMLID_50_">
	<path id="XMLID_29_" fill="#5DBEC5" d="M28.427,32.362l-0.621,3.031l3.186,0.351c-0.814-1.011-1.671-2.099-2.486-3.304
		C28.466,32.44,28.466,32.401,28.427,32.362"/>
</g>
<g id="XMLID_49_">
	<path id="XMLID_27_" fill="#5DBEC5" d="M0.451,45.885c-0.116,0.39-0.039,0.816,0.194,1.166c0.232,0.312,0.622,0.505,1.049,0.505
		h19.505l1.826-8.742L3.132,36.677L0.451,45.885z"/>
</g>
<path id="XMLID_45_" fill="#95335E" d="M36.548,7.303c4.39,0,7.965,3.575,7.965,7.966c0,4.39-3.575,7.965-7.965,7.965
	c-4.392,0-7.967-3.574-7.967-7.965C28.621,10.877,32.196,7.303,36.548,7.303 M36.042,38.542c0.156,0.154,0.351,0.232,0.544,0.232
	c0.194,0,0.39-0.078,0.544-0.232c1.205-1.283,3.575-3.925,5.945-7.266c2.991-4.196,6.527-10.375,6.527-15.854
	c0-7.188-5.866-13.016-13.055-13.016c-7.149,0-13.018,5.828-13.018,13.016c0,5.518,3.575,11.657,6.566,15.893
	C32.468,34.655,34.839,37.259,36.042,38.542"/>
<g id="XMLID_66_">
	<path id="XMLID_25_" fill="#5DBEC5" d="M22.909,22.185H8.3c-0.582,0-1.088,0.389-1.281,0.933L4.22,32.831l19.623,2.138l1.554-7.383
		C24.464,25.875,23.57,24.049,22.909,22.185"/>
</g>
<path id="XMLID_48_" fill="#166A70" d="M48.281,41.61l-21.292-2.33l-1.709,8.313h23.001c0.738,0,1.321-0.583,1.321-1.321
	c0-0.154-0.039-0.311-0.078-0.465L48.281,41.61z"/>
<path id="XMLID_65_" fill="#166A70" d="M41.21,36.871l5.906,0.659l-1.749-6.1c-0.231,0.35-0.466,0.698-0.699,1.01
	C43.464,34.112,42.259,35.628,41.21,36.871"/>
</svg>
