<?xml version="1.0" encoding="utf-8"?>
<!-- Generator: Adobe Illustrator 16.0.0, SVG Export Plug-In . SVG Version: 6.00 Build 0)  -->
<!DOCTYPE svg PUBLIC "-//W3C//DTD SVG 1.1//EN" "http://www.w3.org/Graphics/SVG/1.1/DTD/svg11.dtd">
<svg version="1.1" id="Layer_1" xmlns="http://www.w3.org/2000/svg" xmlns:xlink="http://www.w3.org/1999/xlink" x="0px" y="0px"
	 width="50px" height="50px" viewBox="0 0 50 50" enable-background="new 0 0 50 50" xml:space="preserve">
<path id="XMLID_17_" fill="#166A70" d="M14.526,40.018c-1.548,0-2.771-1.223-2.771-2.771s1.223-2.771,2.771-2.771
	s2.771,1.225,2.771,2.771C17.298,38.795,16.075,40.018,14.526,40.018 M14.526,30.807c-3.382,0-6.152,2.771-6.152,6.154
	c0,2.609,3.586,8.6,5.297,11.289c0.203,0.285,0.529,0.488,0.896,0.488c0.367,0,0.692-0.164,0.897-0.488
	c1.711-2.689,5.297-8.68,5.297-11.289C20.722,33.578,17.95,30.807,14.526,30.807"/>
<path id="XMLID_14_" fill="#95335E" d="M39.915,9.453c-1.548,0-2.771-1.221-2.771-2.771c0-1.548,1.223-2.771,2.771-2.771
	c1.55,0,2.771,1.223,2.771,2.771C42.687,8.232,41.424,9.453,39.915,9.453 M39.915,0.244c-3.422,0-6.193,2.771-6.193,6.154
	c0,2.607,3.587,8.598,5.298,11.287c0.203,0.286,0.53,0.489,0.896,0.489c0.366,0,0.693-0.163,0.897-0.489
	c1.711-2.688,5.298-8.679,5.298-11.287C46.069,3.015,43.299,0.244,39.915,0.244"/>
<g id="XMLID_8_">
	<path id="XMLID_11_" fill="#5DBEC5" d="M39.915,19.844L39.915,19.844L39.915,19.844L39.915,19.844z"/>
	<path id="XMLID_10_" fill="#5DBEC5" d="M37.633,18.583c-0.408-0.652-0.814-1.345-1.264-2.038H6.824
		c-1.63,0-2.935,1.304-2.935,2.934v3.506c0,1.588,1.304,2.934,2.935,2.934h17.279c0.163,0,0.285,0.121,0.285,0.285v4.85
		c0,1.672,1.346,3.057,3.057,3.057h7.824c0.367,0,0.653,0.285,0.653,0.652v11.043c0,0.367-0.286,0.652-0.653,0.652h-16.79
		c-0.571,0.938-1.102,1.873-1.671,2.73c-0.123,0.203-0.286,0.406-0.489,0.568h18.95c2.161,0,3.952-1.752,3.952-3.953V34.719
		c0-2.158-1.752-3.953-3.952-3.953H27.69v-4.562c0-1.998-1.631-3.586-3.587-3.586H7.191v-2.73h32.724
		C38.978,19.844,38.122,19.357,37.633,18.583"/>
</g>
</svg>
