<?xml version="1.0" encoding="utf-8"?>
<!-- Generator: Adobe Illustrator 16.0.0, SVG Export Plug-In . SVG Version: 6.00 Build 0)  -->
<!DOCTYPE svg PUBLIC "-//W3C//DTD SVG 1.1//EN" "http://www.w3.org/Graphics/SVG/1.1/DTD/svg11.dtd">
<svg version="1.1" id="Layer_1" xmlns="http://www.w3.org/2000/svg" xmlns:xlink="http://www.w3.org/1999/xlink" x="0px" y="0px"
	 width="50px" height="50px" viewBox="0 0 50 50" enable-background="new 0 0 50 50" xml:space="preserve">
<path fill="#166A70" d="M25.012,0c0,0-15.298,17.072-15.298,25.497c0,8.185,6.598,15.269,14.719,15.67L24.4,34.199l-5.996-2.57
	c-0.353,0.409-0.872,0.669-1.453,0.669c-1.06,0-1.918-0.858-1.918-1.919c0-1.059,0.858-1.919,1.918-1.919s1.918,0.86,1.918,1.919
	c0,0.061-0.003,0.118-0.009,0.176l5.531,2.371l-0.125-6.938l-6.72-3.256c-0.35,0.371-0.845,0.605-1.396,0.605
	c-1.06,0-1.918-0.858-1.918-1.918s0.859-1.918,1.918-1.918s1.918,0.858,1.918,1.918c0,0.087-0.007,0.174-0.02,0.26l6.305,3.056
	l-0.057-11.666l-1.675,0.007l-0.022-4.491l4.491-0.022l0.021,4.491l-1.648,0.009l0.08,16.269l6.818-6.172l-1.108-1.221l3.328-3.018
	l3.019,3.326l-3.328,3.018l-1.125-1.24l-7.549,6.833v3.855l-0.009-0.003l0.033,1.819l4.081-3.527
	c-0.188-0.355-0.296-0.759-0.296-1.189c0-1.408,1.143-2.551,2.551-2.551s2.551,1.143,2.551,2.551s-1.143,2.553-2.551,2.553
	c-0.556,0-1.067-0.184-1.485-0.483l-4.886,4.226l0.015,3.074c8.24-0.248,14.688-7.377,14.688-15.682
	C40.286,17.047,25.012,0,25.012,0z"/>
<polygon id="XMLID_13_" fill="#5DBEC5" points="25.861,45.63 25.861,41.258 24.163,41.258 24.163,45.507 24.163,47.086 24.163,50 
	28.533,50 28.533,45.63 "/>
</svg>
