<?xml version="1.0" encoding="utf-8"?>
<!-- Generator: Adobe Illustrator 16.0.0, SVG Export Plug-In . SVG Version: 6.00 Build 0)  -->
<!DOCTYPE svg PUBLIC "-//W3C//DTD SVG 1.1//EN" "http://www.w3.org/Graphics/SVG/1.1/DTD/svg11.dtd">
<svg version="1.1" id="Layer_1" xmlns="http://www.w3.org/2000/svg" xmlns:xlink="http://www.w3.org/1999/xlink" x="0px" y="0px"
	 width="50px" height="50px" viewBox="0 0 50 50" enable-background="new 0 0 50 50" xml:space="preserve">
<path fill="#464646" d="M49.12,7l-6.39-6.059c-0.504-0.477-1.299-0.467-1.789,0.027L5.147,36.982
	c-0.115,0.117-0.209,0.256-0.271,0.408L0.581,47.633c-0.201,0.479-0.094,1.029,0.272,1.398c0.245,0.248,0.573,0.379,0.907,0.379
	c0.165,0,0.332-0.031,0.49-0.098l10.682-4.404c0.156-0.064,0.298-0.16,0.418-0.279L49.145,8.835
	c0.244-0.244,0.381-0.576,0.375-0.924C49.516,7.566,49.369,7.238,49.12,7z M13.175,39.475c-0.5-0.303-1.047-0.438-1.578-0.471
	l24.689-24.688l1.896,1.859L14.058,40.299C13.782,39.914,13.466,39.652,13.175,39.475z M11.039,38.355
	c-0.272-0.9-0.862-1.679-1.411-2.246l24.13-24.278l1.92,1.887L11.039,38.355z M35.562,10.015l0.783-0.789l4.43,4.352l-0.784,0.787
	L35.562,10.015z M36.948,8.621l0.507-0.51l4.434,4.354l-0.509,0.51L36.948,8.621z M38.059,7.503l0.563-0.566l4.438,4.359
	l-0.565,0.564L38.059,7.503z M5.634,45.146l-0.812-1.004l2.32-5.531l0.681-0.685c0.39,0.41,0.755,0.91,0.806,1.341
	c0.019,0.151,0.006,0.344-0.227,0.604c-0.4,0.455-0.428,1.123-0.067,1.61c0.36,0.484,1.013,0.652,1.562,0.4
	c0.556-0.252,1.543-0.471,1.95-0.219c0.157,0.096,0.246,0.314,0.299,0.545l-0.426,0.426L5.634,45.146z M44.87,9.484l-4.442-4.363
	l1.448-1.457l4.526,4.289L44.87,9.484z"/>
</svg>
