<?xml version="1.0" encoding="utf-8"?>
<!-- Generator: Adobe Illustrator 16.0.0, SVG Export Plug-In . SVG Version: 6.00 Build 0)  -->
<!DOCTYPE svg PUBLIC "-//W3C//DTD SVG 1.1//EN" "http://www.w3.org/Graphics/SVG/1.1/DTD/svg11.dtd">
<svg version="1.1" id="Layer_1" xmlns="http://www.w3.org/2000/svg" xmlns:xlink="http://www.w3.org/1999/xlink" x="0px" y="0px"
	 width="49.259px" height="49.827px" viewBox="0 0 49.259 49.827" enable-background="new 0 0 49.259 49.827" xml:space="preserve">
<path fill="#474747" d="M-28.427,35.623l1.772,1.753l0.562-0.568l-6.017-5.954c2.842-3.01,4.598-7.056,4.597-11.512
	c0-9.262-7.535-16.798-16.799-16.798c-4.52,0-8.62,1.803-11.642,4.715l-6.014-5.951l-0.562,0.568l1.937,1.917
	c-3.995,4.222-6.203,9.722-6.203,15.548c0,11.996,9.376,21.838,21.184,22.596l0,5.177h-7.45c-0.718,0-1.3,0.582-1.3,1.3
	s0.582,1.3,1.3,1.3h17.5c0.718,0,1.3-0.582,1.3-1.3s-0.582-1.3-1.3-1.3h-7.45l0-5.18C-37.521,41.663-32.396,39.458-28.427,35.623z
	 M-64.196,19.341c0-5.138,1.941-9.988,5.452-13.719l2.231,2.208c-2.841,3.01-4.597,7.055-4.597,11.511
	c0,9.264,7.536,16.799,16.799,16.799c4.52,0,8.62-1.802,11.643-4.715l2.393,2.369c-3.75,3.603-8.654,5.596-13.873,5.596
	C-55.202,39.39-64.196,30.396-64.196,19.341z"/>
<g>
	<path fill="#474747" d="M-106.94,47.207c-0.295,0-0.591-0.1-0.835-0.304c-3.477-2.916-11.529-3.783-12.648-2.748
		c-0.039,0.683-0.605,1.225-1.298,1.225c-0.718,0-1.3-0.582-1.3-1.3c0-1.011,0.604-1.873,1.657-2.364
		c3.3-1.542,11.714,0.221,15.26,3.194c0.55,0.461,0.622,1.281,0.161,1.832C-106.201,47.049-106.569,47.207-106.94,47.207z"/>
	<g>
		<path fill="#474747" d="M-117.762,47.027c-1.599,0-2.981-0.222-3.876-0.73c-0.892-0.506-1.383-1.294-1.383-2.217
			c0-0.718,0.582-1.3,1.3-1.3c0.69,0,1.255,0.539,1.297,1.218c0.824,0.721,6.136,0.666,10.762-1.134
			c2.472-0.962,2.978-1.815,2.975-1.943c-0.016-0.718,0.554-1.312,1.271-1.328c0.714,0.015,1.312,0.554,1.328,1.271
			c0.027,1.255-0.802,2.395-2.464,3.388C-109.212,45.84-114.065,47.027-117.762,47.027z"/>
		<path fill="#FFFFFF" d="M-105.417,39.593c0.714,0.015,1.312,0.554,1.328,1.271c0.027,1.255-0.802,2.395-2.464,3.388
			c-2.659,1.587-7.513,2.775-11.209,2.775c-0.002,0-0.003,0-0.005,0c-1.597,0-2.977-0.222-3.871-0.73
			c-0.892-0.506-1.383-1.294-1.383-2.217c0-0.718,0.582-1.3,1.3-1.3c0.69,0,1.255,0.539,1.297,1.218
			c0.31,0.271,1.255,0.433,2.559,0.433c2.164,0,5.317-0.444,8.203-1.567c2.472-0.962,2.978-1.815,2.975-1.943
			C-106.704,40.204-106.134,39.609-105.417,39.593 M-105.417,38.793l-0.018,0c-1.08,0.023-1.954,0.862-2.046,1.914
			c-0.167,0.19-0.761,0.745-2.473,1.411c-2.866,1.115-5.967,1.513-7.913,1.513c-0.989,0-1.567-0.096-1.851-0.175
			c-0.267-0.858-1.069-1.476-2.005-1.476c-1.158,0-2.1,0.942-2.1,2.1c0,1.206,0.652,2.268,1.788,2.913
			c0.976,0.554,2.411,0.834,4.266,0.834c3.871,0,8.866-1.241,11.625-2.888c1.928-1.151,2.888-2.528,2.854-4.092
			c-0.024-1.127-0.952-2.029-2.111-2.054L-105.417,38.793L-105.417,38.793z"/>
	</g>
	<path fill="#474747" d="M-105.389,42.193c-0.708,0-1.288-0.568-1.299-1.279c-0.018-1.163-1.826-2.571-4.606-3.586
		c-4.249-1.552-8.427-1.487-9.13-0.868c-0.04,0.683-0.605,1.224-1.298,1.224c-0.718,0-1.3-0.582-1.3-1.3
		c0-0.871,0.474-2.901,4.865-2.936c4.902-0.014,13.991,2.479,14.068,7.425c0.011,0.718-0.562,1.309-1.279,1.32
		C-105.375,42.193-105.382,42.193-105.389,42.193z"/>
	<g>
		<path fill="#474747" d="M-117.762,39.331c-1.599,0-2.981-0.222-3.876-0.73c-0.893-0.506-1.384-1.294-1.384-2.217
			c0-0.718,0.582-1.3,1.3-1.3c0.69,0,1.255,0.539,1.297,1.219c0.824,0.72,6.135,0.666,10.76-1.134
			c2.473-0.962,2.979-1.815,2.977-1.944c-0.016-0.718,0.554-1.312,1.271-1.328c0.714-0.003,1.312,0.554,1.328,1.271
			c0.027,1.255-0.802,2.396-2.465,3.388C-109.212,38.143-114.065,39.331-117.762,39.331z"/>
		<path fill="#FFFFFF" d="M-105.411,31.896c0.711,0,1.307,0.556,1.322,1.271c0.027,1.255-0.802,2.396-2.465,3.388
			c-2.659,1.587-7.512,2.775-11.208,2.775c-1.599,0-2.981-0.222-3.876-0.73c-0.893-0.506-1.384-1.294-1.384-2.217
			c0-0.718,0.582-1.3,1.3-1.3c0.69,0,1.255,0.539,1.297,1.219c0.31,0.271,1.255,0.432,2.559,0.432c2.164,0,5.316-0.443,8.201-1.566
			c2.473-0.962,2.979-1.815,2.977-1.944c-0.016-0.718,0.554-1.312,1.271-1.328C-105.415,31.896-105.413,31.896-105.411,31.896
			 M-105.411,31.096h-0.002h-0.008c-0.574,0.012-1.096,0.242-1.484,0.647c-0.334,0.349-0.534,0.792-0.575,1.267
			c-0.166,0.19-0.761,0.746-2.474,1.412c-2.864,1.115-5.964,1.512-7.911,1.512c-0.989,0-1.567-0.096-1.851-0.174
			c-0.267-0.858-1.069-1.477-2.005-1.477c-1.158,0-2.1,0.942-2.1,2.1c0,1.207,0.652,2.268,1.789,2.913
			c0.975,0.554,2.412,0.834,4.271,0.834c3.865,0,8.86-1.241,11.619-2.888c1.928-1.151,2.889-2.528,2.854-4.093
			C-103.313,32.018-104.265,31.096-105.411,31.096L-105.411,31.096z"/>
	</g>
	<path fill="#474747" d="M-105.389,34.496c-0.708,0-1.288-0.568-1.299-1.279c-0.018-1.163-1.826-2.57-4.605-3.585
		c-4.248-1.552-8.427-1.488-9.13-0.868c-0.04,0.683-0.605,1.224-1.298,1.224c-0.718,0-1.3-0.582-1.3-1.3
		c0-0.871,0.474-2.901,4.865-2.936c0.036,0,0.073,0,0.11,0c4.894,0,13.881,2.515,13.958,7.425c0.011,0.718-0.562,1.309-1.279,1.32
		C-105.375,34.496-105.382,34.496-105.389,34.496z"/>
	<path fill="#474747" d="M-119.297,31.234c-1.014,0-1.882-0.154-2.507-0.508c-0.774-0.439-1.217-1.183-1.217-2.04
		c0-0.718,0.582-1.3,1.3-1.3c0.659,0,1.204,0.491,1.289,1.127c1.087,0.482,6.241-0.338,10.642-2.631
		c2.593-1.351,3.108-2.322,3.104-2.508c-0.016-0.718,0.554-1.312,1.271-1.328c0.725,0.007,1.312,0.554,1.328,1.271
		c0.032,1.457-1.143,2.906-3.49,4.307C-110.542,29.394-115.792,31.234-119.297,31.234z"/>
	<path fill="#FFFFFF" d="M-105.417,22.046c0.725,0.007,1.312,0.554,1.328,1.271c0.032,1.457-1.143,2.906-3.49,4.307
		c-2.963,1.769-8.213,3.609-11.719,3.609c-1.014,0-1.882-0.154-2.507-0.508c-0.774-0.439-1.217-1.183-1.217-2.04
		c0-0.718,0.582-1.3,1.3-1.3c0.659,0,1.204,0.491,1.289,1.127c0.199,0.088,0.534,0.133,0.976,0.133c1.972,0,6.07-0.891,9.666-2.764
		c2.593-1.351,3.108-2.322,3.104-2.508C-106.704,22.657-106.134,22.062-105.417,22.046 M-105.421,21.246l-0.013,0
		c-0.561,0.012-1.083,0.242-1.471,0.647c-0.35,0.366-0.553,0.835-0.58,1.335c-0.126,0.19-0.706,0.917-2.676,1.944
		c-3.738,1.947-7.686,2.673-9.296,2.673c-0.141,0-0.255-0.005-0.345-0.013c-0.33-0.74-1.075-1.247-1.919-1.247
		c-1.158,0-2.1,0.942-2.1,2.1c0,1.153,0.591,2.15,1.622,2.735c0.716,0.406,1.692,0.612,2.902,0.612
		c3.689,0,9.064-1.893,12.129-3.722c2.613-1.56,3.918-3.246,3.88-5.012c-0.025-1.14-0.956-2.042-2.12-2.054L-105.421,21.246
		L-105.421,21.246z"/>
	<path fill="#474747" d="M-105.389,24.646c-0.708,0-1.288-0.568-1.299-1.279c-0.032-2.051-6.475-2.441-9.936-2.651l-0.546-0.033
		c-0.716-0.044-1.262-0.661-1.217-1.377c0.044-0.717,0.668-1.261,1.377-1.217l0.543,0.033c5.483,0.332,12.308,0.746,12.378,5.206
		c0.011,0.718-0.562,1.309-1.279,1.32C-105.375,24.646-105.382,24.646-105.389,24.646z"/>
	<g>
		<path fill="#474747" d="M-117.762,23.938c-1.599,0-2.981-0.222-3.876-0.73c-0.892-0.506-1.383-1.294-1.383-2.217
			c0-0.718,0.582-1.3,1.3-1.3c0.69,0,1.255,0.538,1.297,1.218c0.826,0.721,6.139,0.666,10.765-1.136
			c2.469-0.961,2.974-1.814,2.971-1.942c-0.016-0.718,0.554-1.312,1.271-1.328c0.725,0.011,1.312,0.553,1.328,1.271
			c0.027,1.255-0.802,2.396-2.465,3.388C-109.212,22.75-114.065,23.938-117.762,23.938z"/>
		<path fill="#FFFFFF" d="M-105.417,16.503c0.725,0.011,1.312,0.553,1.328,1.271c0.027,1.255-0.802,2.396-2.465,3.388
			c-2.659,1.587-7.512,2.775-11.209,2.775c-1.599,0-2.981-0.222-3.876-0.73c-0.892-0.506-1.383-1.294-1.383-2.217
			c0-0.718,0.582-1.3,1.3-1.3c0.69,0,1.255,0.538,1.297,1.218c0.311,0.271,1.255,0.433,2.56,0.433c2.165,0,5.319-0.444,8.206-1.569
			c2.469-0.961,2.974-1.814,2.971-1.942C-106.704,17.113-106.134,16.519-105.417,16.503 M-105.419,15.703l-0.015,0
			c-1.08,0.023-1.954,0.862-2.046,1.914c-0.166,0.19-0.76,0.745-2.47,1.41c-2.866,1.117-5.968,1.514-7.915,1.514
			c-0.989,0-1.567-0.095-1.852-0.174c-0.267-0.858-1.069-1.476-2.005-1.476c-1.158,0-2.1,0.942-2.1,2.1
			c0,1.206,0.652,2.268,1.788,2.913c0.976,0.554,2.413,0.834,4.271,0.834c3.866,0,8.861-1.241,11.619-2.888
			c1.928-1.151,2.889-2.528,2.854-4.093c-0.024-1.134-0.954-2.037-2.116-2.054L-105.419,15.703L-105.419,15.703z"/>
	</g>
	<path fill="#474747" d="M-105.389,19.103c-0.708,0-1.288-0.568-1.299-1.279c-0.018-1.163-1.827-2.571-4.607-3.586
		c-4.248-1.552-8.428-1.487-9.128-0.867c-0.04,0.683-0.605,1.224-1.298,1.224c-0.718,0-1.3-0.582-1.3-1.3
		c0-0.871,0.474-2.901,4.865-2.936c0.036,0,0.073,0,0.11,0c4.894,0,13.881,2.516,13.958,7.425c0.011,0.718-0.562,1.309-1.279,1.32
		C-105.375,19.103-105.382,19.103-105.389,19.103z"/>
	<path fill="#474747" d="M-117.762,16.241c-1.599,0-2.981-0.222-3.876-0.73c-0.892-0.506-1.383-1.294-1.383-2.217
		c0-0.718,0.582-1.3,1.3-1.3c0.69,0,1.255,0.539,1.297,1.218c0.823,0.722,6.137,0.665,10.761-1.134
		c2.472-0.962,2.978-1.815,2.975-1.943c-0.016-0.718,0.554-1.312,1.271-1.328c0.714,0.013,1.312,0.554,1.328,1.271
		c0.027,1.255-0.802,2.396-2.465,3.388C-109.212,15.053-114.065,16.241-117.762,16.241z"/>
	<path fill="#FFFFFF" d="M-105.417,8.806c0.714,0.013,1.312,0.554,1.328,1.271c0.027,1.255-0.802,2.396-2.465,3.388
		c-2.659,1.587-7.512,2.775-11.209,2.775c-0.002,0-0.003,0-0.005,0c-1.596,0-2.977-0.222-3.871-0.73
		c-0.892-0.506-1.383-1.294-1.383-2.217c0-0.718,0.582-1.3,1.3-1.3c0.69,0,1.255,0.539,1.297,1.218
		c0.31,0.271,1.254,0.433,2.558,0.433c2.164,0,5.318-0.445,8.204-1.567c2.472-0.962,2.978-1.815,2.975-1.943
		C-106.704,9.417-106.134,8.822-105.417,8.806 M-105.418,8.006l-0.016,0c-1.08,0.023-1.954,0.862-2.046,1.915
		c-0.166,0.189-0.761,0.745-2.473,1.411c-2.867,1.115-5.967,1.513-7.914,1.513c-0.988,0-1.566-0.096-1.849-0.174
		c-0.267-0.858-1.07-1.477-2.006-1.477c-1.158,0-2.1,0.942-2.1,2.1c0,1.206,0.652,2.268,1.788,2.913
		c0.975,0.553,2.41,0.834,4.266,0.834c3.871,0,8.866-1.241,11.625-2.888c1.928-1.151,2.889-2.528,2.854-4.093
		c-0.024-1.13-0.953-2.032-2.113-2.054L-105.418,8.006L-105.418,8.006z"/>
	<path fill="#474747" d="M-105.389,11.406c-0.708,0-1.288-0.568-1.299-1.279c-0.025-1.589-3.343-3.533-7.555-4.427
		c-2.355-0.5-4.625-0.579-5.784-0.202c-0.682,0.222-1.417-0.152-1.638-0.834c-0.222-0.683,0.151-1.416,0.834-1.638
		c1.633-0.531,4.231-0.484,7.128,0.131c4.611,0.978,9.559,3.312,9.615,6.929c0.011,0.718-0.562,1.309-1.28,1.32
		C-105.375,11.406-105.382,11.406-105.389,11.406z"/>
	<path fill="none" stroke="#474747" stroke-width="2.6" stroke-linecap="round" stroke-miterlimit="10" d="M-121.722,18.178"/>
	<path fill="none" stroke="#474747" stroke-linecap="round" stroke-miterlimit="10" d="M-105.388,14.142"/>
	<path fill="#474747" d="M-116.344,12.752c0.311-0.22,0.527-0.573,0.552-0.983c0.044-0.717-0.501-1.333-1.217-1.377
		c-2.52-0.158-4.274,0.221-5.228,1.118c-0.513,0.482-0.784,1.1-0.784,1.785c0,0.718,0.582,1.3,1.3,1.3
		c0.691,0,1.256-0.539,1.297-1.22c0.146-0.112,0.593-0.294,1.46-0.375l-0.004-0.002L-116.344,12.752z"/>
	<path fill="#474747" d="M-116.344,20.48c0.311-0.22,0.527-0.573,0.552-0.983c0.044-0.717-0.501-1.333-1.217-1.377
		c-2.52-0.158-4.274,0.221-5.228,1.118c-0.513,0.482-0.784,1.1-0.784,1.785c0,0.718,0.582,1.3,1.3,1.3
		c0.691,0,1.256-0.539,1.297-1.22c0.146-0.112,0.593-0.294,1.46-0.375l-0.004-0.002L-116.344,20.48z"/>
	<path fill="#474747" d="M-120.081,28.606c0.568-0.784,3.623-1.241,4.268-1.329c0.006-0.039,0.018-0.075,0.021-0.115
		c0.044-0.717-0.501-1.333-1.217-1.377c-2.52-0.158-4.274,0.221-5.228,1.118c-0.513,0.482-0.784,1.1-0.784,1.785
		c0,0.718,0.582,1.3,1.3,1.3c0.691,0,1.256-0.539,1.297-1.22c0.061-0.046,0.187-0.105,0.359-0.163L-120.081,28.606z"/>
	<path fill="#474747" d="M-116.344,35.842c0.311-0.22,0.527-0.573,0.552-0.983c0.044-0.717-0.501-1.333-1.217-1.377
		c-2.52-0.158-4.274,0.221-5.228,1.118c-0.513,0.482-0.784,1.1-0.784,1.785c0,0.718,0.582,1.3,1.3,1.3
		c0.691,0,1.256-0.539,1.297-1.22c0.146-0.112,0.593-0.294,1.46-0.375l-0.004-0.002L-116.344,35.842z"/>
	<path fill="#474747" d="M-116.344,43.542c0.311-0.22,0.527-0.573,0.552-0.983c0.044-0.717-0.501-1.333-1.217-1.377
		c-2.52-0.158-4.274,0.221-5.228,1.118c-0.513,0.482-0.784,1.1-0.784,1.785c0,0.718,0.582,1.3,1.3,1.3
		c0.691,0,1.256-0.539,1.297-1.22c0.146-0.112,0.593-0.294,1.46-0.375l-0.004-0.002L-116.344,43.542z"/>
</g>
<g>
	<polygon fill="#474747" points="24.996,48.201 17.555,44.394 17.555,37.614 24.996,41.42 	"/>
	<polygon fill="#474747" points="24.996,40.368 17.555,36.562 17.555,29.781 24.996,33.587 	"/>
	<path fill="#474747" d="M18.329,23.209l5.894,3.015v5.043l-5.894-3.016V23.209 M17.555,21.945v6.781l7.44,3.807v-6.78
		L17.555,21.945L17.555,21.945z"/>
	<polygon fill="#474747" points="16.61,35.987 9.17,32.18 9.17,25.4 16.61,29.207 	"/>
	<polygon fill="#474747" points="16.61,28.151 9.17,24.344 9.17,17.564 16.61,21.37 	"/>
	<path fill="#474747" d="M9.943,34.497l5.894,3.015v5.043L9.943,39.54V34.497 M9.17,33.232v6.78l7.439,3.807v-6.78L9.17,33.232
		L9.17,33.232z"/>
	<path fill="#474747" d="M1.596,22.37l5.895,3.016v5.042l-5.895-3.015V22.37 M0.824,21.105v6.78l7.439,3.807v-6.78L0.824,21.105
		L0.824,21.105z"/>
	<polygon fill="#474747" points="8.263,23.857 0.824,20.05 0.824,13.27 8.263,17.077 	"/>
	<polygon fill="#474747" points="8.263,39.525 0.824,35.719 0.824,28.938 8.263,32.745 	"/>
	<polygon fill="#474747" points="25.963,48.201 32.88,44.407 32.88,37.649 25.963,41.443 	"/>
	<path fill="#474747" d="M32.108,31.149v4.993l-5.371,2.946v-4.995L32.108,31.149 M32.88,29.843l-6.917,3.792v6.758L32.88,36.6
		V29.843L32.88,29.843z"/>
	<polygon fill="#474747" points="25.963,32.585 32.88,28.791 32.88,22.032 25.963,25.827 	"/>
	<polygon fill="#474747" points="33.76,36.027 40.676,32.234 40.676,25.477 33.76,29.271 	"/>
	<polygon fill="#474747" points="33.76,28.219 40.676,24.425 40.676,17.667 33.76,21.46 	"/>
	<path fill="#474747" d="M39.903,34.588v4.994l-5.37,2.945v-4.994L39.903,34.588 M40.676,33.282l-6.916,3.794v6.758l6.916-3.794
		V33.282L40.676,33.282z"/>
	<path fill="#474747" d="M47.663,22.502v4.994l-5.371,2.945v-4.994L47.663,22.502 M48.435,21.196l-6.916,3.793v6.758l6.916-3.793
		V21.196L48.435,21.196z"/>
	<path fill="#474747" d="M47.663,14.693v4.994l-5.371,2.946v-4.994L47.663,14.693 M48.435,13.387l-6.916,3.794v6.757l6.916-3.793
		V13.387L48.435,13.387z"/>
	<polygon fill="#474747" points="41.519,39.555 48.435,35.761 48.435,29.002 41.519,32.796 	"/>
	<polygon fill="#474747" points="1.517,12.836 8.943,16.628 15.482,13.097 8.056,9.305 	"/>
	<path fill="#474747" d="M15.621,6.099l5.753,2.938l-4.887,2.639l-5.753-2.937L15.621,6.099 M15.61,5.225L9.071,8.757l7.427,3.791
		l6.539-3.532L15.61,5.225L15.61,5.225z"/>
	<path fill="#474747" d="M23.177,2.017l5.755,2.938l-4.888,2.64l-5.754-2.938L23.177,2.017 M23.167,1.144l-6.539,3.532l7.426,3.792
		l6.54-3.533L23.167,1.144L23.167,1.144z"/>
	<polygon fill="#474747" points="17.528,12.982 24.954,16.775 31.493,13.243 24.068,9.451 	"/>
	<polygon fill="#474747" points="25.085,8.901 32.512,12.694 39.051,9.161 31.625,5.37 	"/>
	<path fill="#474747" d="M16.523,14.405l5.754,2.938l-4.888,2.639l-5.752-2.938L16.523,14.405 M16.513,13.531l-6.538,3.531
		l7.425,3.792l6.54-3.532L16.513,13.531L16.513,13.531z"/>
	<path fill="#474747" d="M32.432,14.566l5.752,2.938l-4.887,2.639l-5.752-2.938L32.432,14.566 M32.421,13.693l-6.539,3.532
		l7.425,3.792l6.54-3.532L32.421,13.693L32.421,13.693z"/>
	<polygon fill="#474747" points="33.439,13.143 40.866,16.935 47.405,13.403 39.978,9.611 	"/>
	<polygon fill="#474747" points="18.328,21.305 25.753,25.096 32.292,21.564 24.868,17.772 	"/>
</g>
</svg>
