<?xml version="1.0" encoding="utf-8"?>
<!-- Generator: Adobe Illustrator 16.0.0, SVG Export Plug-In . SVG Version: 6.00 Build 0)  -->
<!DOCTYPE svg PUBLIC "-//W3C//DTD SVG 1.1//EN" "http://www.w3.org/Graphics/SVG/1.1/DTD/svg11.dtd">
<svg version="1.1" id="Layer_1" xmlns="http://www.w3.org/2000/svg" xmlns:xlink="http://www.w3.org/1999/xlink" x="0px" y="0px"
	 width="50px" height="50px" viewBox="0 0 50 50" enable-background="new 0 0 50 50" xml:space="preserve">
<path fill="#464646" d="M27.038,0.468c-0.57,0.601-0.546,1.55,0.055,2.121l0.619,0.586l-11.53,12.153l-0.619-0.586
	c-0.601-0.571-1.55-0.545-2.121,0.056c-0.57,0.601-0.545,1.55,0.056,2.12l9.736,9.237c0.601,0.569,1.55,0.544,2.12-0.057
	c0.57-0.6,0.545-1.549-0.057-2.121l-0.617-0.586l4.684-4.938L47.468,35.63c0.601,0.568,1.55,0.545,2.12-0.057
	c0.57-0.601,0.546-1.55-0.056-2.12L31.43,16.277l4.78-5.039l0.619,0.586c0.601,0.57,1.55,0.545,2.12-0.056
	c0.57-0.601,0.545-1.55-0.056-2.12l-9.735-9.238C28.557-0.158,27.607-0.133,27.038,0.468z"/>
<path fill="#464646" d="M25.678,47h-2.233v-3H3.733v3H1.5C0.671,47,0,47.672,0,48.5S0.671,50,1.5,50h24.178
	c0.828,0,1.5-0.672,1.5-1.5S26.506,47,25.678,47z"/>
</svg>
