<?xml version="1.0" encoding="utf-8"?>
<!-- Generator: Adobe Illustrator 16.0.0, SVG Export Plug-In . SVG Version: 6.00 Build 0)  -->
<!DOCTYPE svg PUBLIC "-//W3C//DTD SVG 1.1//EN" "http://www.w3.org/Graphics/SVG/1.1/DTD/svg11.dtd">
<svg version="1.1" id="Layer_1" xmlns="http://www.w3.org/2000/svg" xmlns:xlink="http://www.w3.org/1999/xlink" x="0px" y="0px"
	 width="49.259px" height="49.827px" viewBox="0 0 49.259 49.827" enable-background="new 0 0 49.259 49.827" xml:space="preserve">
<rect x="-44.915" y="27.474" transform="matrix(0.707 0.7073 -0.7073 0.707 8.1722 37.7967)" fill="#474747" width="6.778" height="2.572"/>
<path fill="#474747" d="M-27.23,49.827l-16.182-16.18l7.232-7.232L-20,42.595L-27.23,49.827z M-39.77,33.647l12.539,12.539
	l3.59-3.592l-12.537-12.539L-39.77,33.647z"/>
<g>
	<path fill="#474747" d="M-53.71,31.097c-8.574,0-15.549-6.975-15.549-15.549C-69.259,6.975-62.284,0-53.71,0
		c8.574,0,15.549,6.975,15.549,15.548C-38.16,24.122-45.136,31.097-53.71,31.097z M-53.71,2.573
		c-7.154,0-12.975,5.819-12.975,12.974c0,7.155,5.821,12.976,12.975,12.976c7.155,0,12.976-5.819,12.976-12.976
		C-40.734,8.392-46.555,2.573-53.71,2.573z"/>
	<path fill="#474747" d="M-43.365,18.082l-0.781-0.354c0.056-0.123,1.326-3.063-0.875-6.809c-1.578-2.689-5.216-4.008-5.253-4.021
		l0.288-0.81c0.161,0.058,3.971,1.442,5.705,4.396C-41.846,14.631-43.303,17.944-43.365,18.082z"/>
</g>
<rect x="-39.621" y="38.433" transform="matrix(0.7071 0.7071 -0.7071 0.7071 17.8031 34.7451)" fill="#474747" width="13.163" height="0.859"/>
<path fill="#474747" d="M40.832,35.623l1.772,1.753l0.562-0.568l-6.017-5.954c2.842-3.01,4.598-7.056,4.597-11.512
	c0-9.262-7.535-16.798-16.799-16.798c-4.52,0-8.62,1.803-11.642,4.715L7.292,1.308L6.729,1.876l1.937,1.917
	c-3.995,4.222-6.203,9.722-6.203,15.548c0,11.996,9.376,21.838,21.184,22.596l0,5.177h-7.45c-0.718,0-1.3,0.582-1.3,1.3
	s0.582,1.3,1.3,1.3h17.5c0.718,0,1.3-0.582,1.3-1.3s-0.582-1.3-1.3-1.3h-7.45l0-5.18C31.737,41.663,36.863,39.458,40.832,35.623z
	 M5.063,19.341c0-5.138,1.941-9.988,5.452-13.719l2.231,2.208c-2.841,3.01-4.597,7.055-4.597,11.511
	c0,9.264,7.536,16.799,16.799,16.799c4.52,0,8.62-1.802,11.643-4.715l2.393,2.369c-3.75,3.603-8.654,5.596-13.873,5.596
	C14.057,39.39,5.063,30.396,5.063,19.341z"/>
</svg>
