<?xml version="1.0" encoding="utf-8"?>
<!-- Generator: Adobe Illustrator 16.0.0, SVG Export Plug-In . SVG Version: 6.00 Build 0)  -->
<!DOCTYPE svg PUBLIC "-//W3C//DTD SVG 1.1//EN" "http://www.w3.org/Graphics/SVG/1.1/DTD/svg11.dtd">
<svg version="1.1" id="Layer_1" xmlns="http://www.w3.org/2000/svg" xmlns:xlink="http://www.w3.org/1999/xlink" x="0px" y="0px"
	 width="50px" height="50px" viewBox="0 0 50 50" enable-background="new 0 0 50 50" xml:space="preserve">
<g>
	
		<rect x="24.714" y="27.563" transform="matrix(-0.707 -0.7073 0.7073 -0.707 27.5673 69.1203)" fill="#464646" width="6.778" height="2.572"/>
	<path fill="#464646" d="M42.398,49.914l-16.181-16.18l7.232-7.232l16.18,16.18L42.398,49.914z M29.859,33.734l12.539,12.539
		l3.59-3.592L33.451,30.143L29.859,33.734z"/>
	<g>
		<path fill="#464646" d="M15.919,31.184c-8.574,0-15.549-6.975-15.549-15.549c0-8.573,6.975-15.548,15.549-15.548
			c8.574,0,15.549,6.975,15.549,15.548C31.469,24.209,24.493,31.184,15.919,31.184z M15.919,2.66
			c-7.154,0-12.975,5.819-12.975,12.974c0,7.155,5.821,12.976,12.975,12.976c7.155,0,12.976-5.82,12.976-12.976
			C28.895,8.479,23.074,2.66,15.919,2.66z"/>
		<path fill="#464646" d="M26.264,18.169l-0.781-0.354c0.055-0.123,1.326-3.063-0.875-6.809c-1.578-2.689-5.216-4.008-5.253-4.021
			l0.288-0.81c0.161,0.058,3.971,1.442,5.705,4.396C27.783,14.718,26.326,18.031,26.264,18.169z"/>
	</g>
	
		<rect x="30.005" y="38.519" transform="matrix(-0.7071 -0.7071 0.7071 -0.7071 34.9197 92.3606)" fill="#464646" width="13.164" height="0.859"/>
</g>
</svg>
