<?xml version="1.0" encoding="utf-8"?>
<!-- Generator: Adobe Illustrator 16.0.0, SVG Export Plug-In . SVG Version: 6.00 Build 0)  -->
<!DOCTYPE svg PUBLIC "-//W3C//DTD SVG 1.1//EN" "http://www.w3.org/Graphics/SVG/1.1/DTD/svg11.dtd">
<svg version="1.1" id="Layer_1" xmlns="http://www.w3.org/2000/svg" xmlns:xlink="http://www.w3.org/1999/xlink" x="0px" y="0px"
	 width="50px" height="50px" viewBox="0 0 50 50" enable-background="new 0 0 50 50" xml:space="preserve">
<g>
	<path fill="#36474F" d="M46.771,5.679c-0.865-0.801-2.43-0.822-3.061-0.795c-0.808,0.037-1.895,0.217-2.492,0.875
		c-0.54,0.594-0.662,1.547-0.813,3.578c-0.018,0.244-0.038,0.529-0.062,0.785c-0.241-0.008-0.532-0.023-0.838-0.051
		c0.667-6.141-0.597-7.094-1.082-7.457c-1.499-1.125-7.536-2.379-13.802-2.379c-4.965,0-9.324,0.746-12.959,2.217L11.024,2.71
		l-0.138,0.672c-0.043,0.207-0.594,2.98-0.541,6.701c-0.25,0.02-0.486,0.033-0.688,0.039C9.634,9.867,9.613,9.58,9.596,9.337
		c-0.15-2.031-0.271-2.984-0.812-3.578C8.185,5.101,7.098,4.921,6.291,4.884C5.658,4.857,4.096,4.878,3.229,5.679
		c-1.483,1.369-1.304,7.088,1.013,11.562c2.717,5.246,5.877,7.766,10.568,8.42l0.053-0.385c1.27,2.124,2.653,3.971,4.049,5.403
		c-0.193,0.234-0.355,0.518-0.449,0.859c-0.472,1.705,1.133,3.189,1.66,3.678c0.518,0.48,0.758,0.906,0.714,1.262
		c-0.149,1.182-2.783,2.609-3.647,3.076c-3.282,1.779-2.936,5.283-2.918,5.432l0.047,0.422l0.288,0.309
		c0.158,0.172,3.835,4.047,9.938,4.047c0.158,0,0.318-0.002,0.479-0.006c0.161,0.004,0.32,0.006,0.479,0.006
		c6.104,0,9.78-3.875,9.938-4.047l0.289-0.309l0.046-0.422c0.018-0.148,0.365-3.652-2.918-5.432
		c-0.864-0.467-3.498-1.895-3.647-3.076c-0.044-0.355,0.195-0.781,0.714-1.262c0.527-0.488,2.132-1.973,1.66-3.678
		c-0.062-0.225-0.153-0.42-0.264-0.598c1.482-1.342,2.889-3.121,4.043-5.305c4.596-0.693,7.714-3.211,10.396-8.395
		C48.074,12.767,48.254,7.048,46.771,5.679z M36.278,4.384c-0.063,0.133-0.156,0.285-0.304,0.451
		c-0.803,0.908-3.293,2.434-10.951,2.434c-7.684,0-10.268-1.543-11.124-2.463c-0.118-0.125-0.206-0.244-0.274-0.354
		c3.108-1.084,6.881-1.654,10.996-1.654C29.979,2.798,34.579,3.765,36.278,4.384z M6.518,16.066
		C4.593,12.347,4.715,8.529,5.036,7.55c0.409-0.135,1.323-0.146,1.792-0.027C6.928,8,6.998,8.966,7.041,9.525
		c0.108,1.488,0.158,2.168,0.636,2.645c0.265,0.266,0.647,0.646,2.802,0.479c0.226,2.479,0.767,5.176,1.875,7.729
		c0.357,0.82,0.734,1.617,1.129,2.395C10.551,21.917,8.508,19.912,6.518,16.066z M25.07,47.195l-0.047,1.279l-0.047-1.279
		c-4.244,0.152-7.189-2.059-8.152-2.902c0.023-0.283,0.093-0.678,0.276-1.088c0.994,1.182,3.08,2.609,7.357,2.609
		c0.188,0,0.381-0.002,0.578-0.008c4.598-0.133,6.821-1.547,7.872-2.686c0.214,0.441,0.291,0.873,0.315,1.176
		C32.269,45.141,29.354,47.352,25.07,47.195z M26.668,36.799c0.275,2.188,2.551,3.699,4.969,5.01
		c0.316,0.172,0.57,0.373,0.773,0.588c-0.838,0.99-2.833,2.426-7.399,2.557c-4.653,0.131-6.62-1.422-7.423-2.502
		c0.213-0.236,0.479-0.459,0.822-0.643c2.418-1.311,4.693-2.822,4.969-5.01c0.152-1.223-0.357-2.389-1.516-3.461
		c-0.306-0.283-0.51-0.51-0.646-0.689c1.286,0.869,2.521,1.309,3.683,1.309c0.047,0,0.094,0,0.14,0
		c1.108-0.035,2.344-0.4,3.603-1.084c-0.121,0.137-0.268,0.289-0.459,0.465C27.023,34.41,26.514,35.576,26.668,36.799z
		 M24.961,31.396H24.9c-0.936,0-2.18-0.664-3.501-1.867c-2.392-2.182-4.833-5.889-6.694-10.174
		c-1.801-4.139-1.916-8.848-1.719-11.971c2.3,1.625,6.334,2.447,12.037,2.447c5.852,0,9.912-0.869,12.107-2.588
		c-0.015,0.887-0.093,2.025-0.281,3.473c-0.432,3.293-1.304,7.166-2.335,10.355C32.282,27.982,27.494,31.318,24.961,31.396z
		 M43.482,16.066c-1.96,3.785-3.972,5.791-6.832,6.664c0.105-0.285,0.206-0.574,0.303-0.869c0.923-2.861,1.714-6.188,2.206-9.244
		c2.475,0.24,2.886-0.168,3.165-0.447c0.477-0.477,0.525-1.156,0.637-2.645c0.04-0.559,0.11-1.525,0.211-2.002
		c0.469-0.119,1.383-0.107,1.792,0.027C45.286,8.529,45.407,12.347,43.482,16.066z"/>
</g>
</svg>
