<?xml version="1.0" encoding="utf-8"?>
<!-- Generator: Adobe Illustrator 16.0.0, SVG Export Plug-In . SVG Version: 6.00 Build 0)  -->
<!DOCTYPE svg PUBLIC "-//W3C//DTD SVG 1.1//EN" "http://www.w3.org/Graphics/SVG/1.1/DTD/svg11.dtd">
<svg version="1.1" id="Layer_1" xmlns="http://www.w3.org/2000/svg" xmlns:xlink="http://www.w3.org/1999/xlink" x="0px" y="0px"
	 width="50px" height="50px" viewBox="0 0 50 50" enable-background="new 0 0 50 50" xml:space="preserve">
<path fill="#464646" d="M40.422,41.381h0.32v-30.61h-6.14V0.765l-26.345,9.45l0.108,32.769c0.561,5.481,3.275,6.073,3.87,6.133
	c0.05,0.005,0.1,0.008,0.15,0.008h27.856v-3h-0.866c-0.375-0.476-0.706-1.075-0.734-1.764
	C38.602,43.366,39.204,42.364,40.422,41.381z M39.742,11.771v28.61H15.516l19.086-6.948V11.771H39.742z M12.612,46.125
	c-0.391-0.226-1.167-1.312-1.322-4.206l1.479-0.538h26.177c-0.908,0.967-1.349,1.981-1.304,3.027
	c0.028,0.648,0.249,1.22,0.535,1.717H12.612z"/>
</svg>
