<?xml version="1.0" encoding="utf-8"?>
<!-- Generator: Adobe Illustrator 16.0.0, SVG Export Plug-In . SVG Version: 6.00 Build 0)  -->
<!DOCTYPE svg PUBLIC "-//W3C//DTD SVG 1.1//EN" "http://www.w3.org/Graphics/SVG/1.1/DTD/svg11.dtd">
<svg version="1.1" id="Layer_1" xmlns="http://www.w3.org/2000/svg" xmlns:xlink="http://www.w3.org/1999/xlink" x="0px" y="0px"
	 width="50px" height="50px" viewBox="0 0 50 50" enable-background="new 0 0 50 50" xml:space="preserve">
<rect x="26.25" y="9.75" fill="#464646" width="1" height="40.375"/>
<polygon fill="#464646" points="30.812,50 29.812,50 29.812,10.125 26.902,10.125 25.5,11.078 25.5,50 24.5,50 24.5,10.547 
	26.598,9.125 30.812,9.125 "/>
<polygon fill="#464646" points="28.312,22.5 28.312,28.062 36.562,25.844 38.938,22 35.625,20 "/>
<polygon fill="#464646" points="28.312,11 28.312,16.562 45.75,11.617 48.125,7.773 44.693,5.702 "/>
<polyline fill="#464646" points="30.312,29.562 40.125,30.188 42.938,27.688 40.125,25 30.5,24.188 "/>
<polyline fill="#464646" points="25,29.375 10.938,28.562 6.5,24.875 10.438,22.688 25,23.938 "/>
<polyline fill="#464646" points="26.75,50.125 25,50.125 25,18.667 25,17 "/>
<polygon fill="#464646" points="26.75,18 26.75,9.75 25,11.132 25,37.833 26.25,43.333 "/>
<polyline fill="#464646" points="25.875,17.188 6.375,15 1.938,11.312 5.875,9.125 25.875,11.75 "/>
<path fill="#464646" stroke="#FFFFFF" stroke-miterlimit="10" d="M25.875,17.188"/>
<path fill="#464646" stroke="#FFFFFF" stroke-miterlimit="10" d="M25.875,11.75"/>
</svg>
