<?xml version="1.0" encoding="utf-8"?>
<!-- Generator: Adobe Illustrator 16.0.0, SVG Export Plug-In . SVG Version: 6.00 Build 0)  -->
<!DOCTYPE svg PUBLIC "-//W3C//DTD SVG 1.1//EN" "http://www.w3.org/Graphics/SVG/1.1/DTD/svg11.dtd">
<svg version="1.1" id="Layer_1" xmlns="http://www.w3.org/2000/svg" xmlns:xlink="http://www.w3.org/1999/xlink" x="0px" y="0px"
	 width="50px" height="50px" viewBox="0 0 50 50" enable-background="new 0 0 50 50" xml:space="preserve">
<g>
	<path fill="#464646" d="M48.895,1.783L48.701,1.08l-0.703-0.193c-0.091-0.023-2.249-0.605-5.332-0.605
		c-4.258,0-10.334,1.109-15.102,6.387c-2.22,2.459-4.139,5.605-5.737,9.391c-1.381-0.42-3.658-0.734-6.06,0.527
		c-3.449,1.812-7.144,7.162-7.298,7.389l-1.475,2.148l11.831-0.654c-0.739,3.191-0.998,5.396-1.012,5.516l-0.183,1.592l1.593-0.172
		c0.231-0.025,2.419-0.271,5.521-0.98l-0.515,11.789l2.216-1.811c0.695-0.57,6.83-5.652,7.793-8.775
		c0.428-1.391,0.479-2.797,0.146-4.068c-0.021-0.078-0.042-0.146-0.062-0.221c3.166-1.373,6.341-3.184,8.971-5.562
		C52.309,14.637,49.037,2.305,48.895,1.783z M12.22,23.268c1.349-1.645,3.174-3.592,4.74-4.412c1.531-0.807,2.994-0.658,3.931-0.408
		c-0.431,1.189-0.835,2.43-1.208,3.725c-0.068,0.234-0.133,0.467-0.195,0.693L12.22,23.268z M21.2,26.609l2.39,2.43
		c-1.183,0.26-2.202,0.447-2.979,0.576C20.742,28.832,20.935,27.805,21.2,26.609z M31.792,31.873
		c-0.403,1.309-2.635,3.666-4.745,5.611l0.293-6.711c1.445-0.398,3.001-0.885,4.594-1.476C32.073,29.898,32.13,30.773,31.792,31.873
		z M41.579,20.877c-4.292,3.873-10.333,6.156-15.095,7.451l-4.562-4.637c1.322-4.836,3.644-10.986,7.544-15.305
		c4.137-4.58,9.463-5.541,13.199-5.541c1.718,0,3.119,0.203,3.919,0.354C47.093,5.822,48.238,14.859,41.579,20.877z"/>
	<path fill="#464646" d="M37.895,7.494c-2.524,0-4.578,2.051-4.578,4.576c0,2.523,2.054,4.578,4.578,4.578
		c2.522,0,4.578-2.055,4.578-4.578C42.473,9.545,40.417,7.494,37.895,7.494z M37.895,15.793c-2.055,0-3.726-1.67-3.726-3.723
		c0-2.053,1.671-3.723,3.726-3.723c2.053,0,3.724,1.67,3.724,3.723C41.618,14.123,39.945,15.793,37.895,15.793z"/>
	<path fill="#464646" d="M6.067,41.525l-1.158,1.17c-0.166,0.17-0.163,0.44,0.004,0.604c0.084,0.082,0.191,0.123,0.301,0.123
		c0.11,0,0.221-0.043,0.305-0.127l1.156-1.172c0.166-0.168,0.164-0.437-0.004-0.604C6.503,41.355,6.233,41.357,6.067,41.525z"/>
	<path fill="#464646" d="M8.924,38.65l-0.881,0.893c-0.165,0.168-0.163,0.439,0.005,0.604c0.082,0.082,0.191,0.125,0.299,0.125
		c0.111,0,0.221-0.045,0.305-0.127l0.881-0.893c0.165-0.168,0.163-0.439-0.004-0.604C9.36,38.482,9.089,38.484,8.924,38.65z"/>
	<path fill="#464646" d="M16.188,31.902c-0.169-0.164-0.439-0.162-0.604,0.006l-4.101,4.195c-0.166,0.168-0.162,0.438,0.006,0.604
		c0.083,0.08,0.191,0.123,0.299,0.123c0.111,0,0.223-0.045,0.306-0.129l4.101-4.195C16.359,32.338,16.356,32.066,16.188,31.902z"/>
	<path fill="#464646" d="M1.98,40.959l-1.446,1.465c-0.166,0.168-0.164,0.438,0.004,0.604c0.084,0.084,0.191,0.123,0.301,0.123
		c0.11,0,0.22-0.043,0.303-0.127l1.447-1.463c0.165-0.168,0.163-0.438-0.005-0.604C2.417,40.789,2.146,40.791,1.98,40.959z"/>
	<path fill="#464646" d="M16.624,26.84c-0.168-0.166-0.438-0.164-0.604,0.002L3.835,39.121c-0.166,0.168-0.165,0.439,0.002,0.604
		c0.084,0.082,0.191,0.125,0.301,0.125c0.11,0,0.221-0.043,0.305-0.125l12.185-12.281C16.793,27.277,16.792,27.006,16.624,26.84z"/>
	<path fill="#464646" d="M9.104,47.82l-1.157,1.172c-0.165,0.168-0.164,0.439,0.004,0.604c0.084,0.082,0.191,0.123,0.301,0.123
		s0.22-0.043,0.304-0.125l1.156-1.174c0.166-0.166,0.164-0.436-0.004-0.604C9.54,47.65,9.269,47.652,9.104,47.82z"/>
	<path fill="#464646" d="M11.841,45.066l-1.447,1.463c-0.164,0.168-0.163,0.438,0.006,0.604c0.083,0.082,0.191,0.125,0.299,0.125
		c0.11,0,0.221-0.043,0.305-0.129l1.444-1.463c0.165-0.168,0.165-0.438-0.003-0.604S12.006,44.898,11.841,45.066z"/>
	<path fill="#464646" d="M22.559,34.285l-9.022,9.1c-0.167,0.168-0.165,0.438,0.002,0.604c0.084,0.081,0.191,0.122,0.301,0.122
		c0.11,0,0.219-0.041,0.303-0.125l9.023-9.1c0.166-0.168,0.165-0.438-0.003-0.604S22.725,34.115,22.559,34.285z"/>
	<path fill="#464646" d="M10.198,42.652c-0.166-0.166-0.438-0.164-0.604,0.004l-1.445,1.465c-0.166,0.168-0.164,0.438,0.004,0.604
		c0.083,0.082,0.192,0.121,0.301,0.121s0.22-0.041,0.303-0.125l1.446-1.465C10.368,43.088,10.367,42.82,10.198,42.652z"/>
	<path fill="#464646" d="M13.839,39.607l1.154-1.17c0.166-0.168,0.164-0.438-0.004-0.604c-0.168-0.166-0.438-0.164-0.604,0.002
		l-1.156,1.172c-0.165,0.166-0.163,0.438,0.005,0.604c0.083,0.082,0.19,0.121,0.3,0.121C13.645,39.732,13.755,39.691,13.839,39.607z
		"/>
	<path fill="#464646" d="M16.358,36.896c0.11,0,0.221-0.041,0.305-0.127l1.91-1.947c0.165-0.166,0.162-0.438-0.006-0.604
		c-0.168-0.163-0.438-0.161-0.604,0.007l-1.91,1.946c-0.166,0.168-0.163,0.438,0.006,0.604
		C16.142,36.857,16.251,36.896,16.358,36.896z"/>
</g>
</svg>
