<?xml version="1.0" encoding="utf-8"?>
<!-- Generator: Adobe Illustrator 16.0.0, SVG Export Plug-In . SVG Version: 6.00 Build 0)  -->
<!DOCTYPE svg PUBLIC "-//W3C//DTD SVG 1.1//EN" "http://www.w3.org/Graphics/SVG/1.1/DTD/svg11.dtd">
<svg version="1.1" id="Layer_1" xmlns="http://www.w3.org/2000/svg" xmlns:xlink="http://www.w3.org/1999/xlink" x="0px" y="0px"
	 width="50px" height="50px" viewBox="0 0 50 50" enable-background="new 0 0 50 50" xml:space="preserve">
<g>
	<path fill="#36474F" d="M42.688,11.722L40.717,14.9l0,0l-1.06,1.709h-5.292l2.993-3.055l1.758-0.606L42.688,11.722z M22.098,31.376
		c1.722,0,3.118-1.396,3.118-3.118c0-0.651-0.2-1.256-0.542-1.756l3.194-3.259c1.169,1.344,1.883,3.096,1.883,5.014
		c0,4.221-3.431,7.653-7.651,7.653c-4.22,0-7.652-3.433-7.652-7.653c0-4.22,3.433-7.653,7.652-7.653
		c1.553,0,2.999,0.468,4.207,1.268l-2.815,3.611c-0.421-0.213-0.889-0.343-1.393-0.343c-1.722,0-3.118,1.396-3.118,3.118
		C18.979,29.98,20.376,31.376,22.098,31.376z M29.555,19.778c-0.014-0.013-0.026-0.025-0.043-0.039l2.344-3.004l2.054-2.633
		l1.457-1.868l0.802,0.795l-1.584,1.617l-2.368,2.417l-0.623,0.635L29.555,19.778z M28.555,18.986
		c-1.832-1.281-4.055-2.038-6.457-2.038c-6.236,0-11.308,5.073-11.308,11.309c0,6.235,5.072,11.309,11.308,11.309
		c6.234,0,11.309-5.073,11.309-11.309c0-2.939-1.138-5.612-2.982-7.625l2.662-2.717c2.55,2.707,4.126,6.34,4.126,10.343
		c0,8.335-6.778,15.114-15.113,15.114c-8.333,0-15.113-6.779-15.113-15.114c0-8.332,6.779-15.112,15.113-15.112
		c3.281,0,6.313,1.062,8.792,2.844L28.555,18.986z M36.147,10.261l0.81-3.937l0.802-3.895l-3.08,2.507l-3.097,2.522L30.119,8.65
		l0.364,2.828c-2.525-1.268-5.373-1.987-8.386-1.988c-10.349,0-18.769,8.418-18.769,18.768s8.419,18.77,18.769,18.77
		c10.35,0,18.77-8.42,18.77-18.77c0-3.934-1.085-7.484-3.056-10.429h2.522l1.133-1.824l2.058-3.316l2.005-3.232l-3.605,1.24
		l-4.008,1.377l-0.731,0.252l-1.216-1.207L36.147,10.261 M35.812,5.586c0.016,0.009,0.029,0.02,0.048,0.029l-1.12,5.439
		l-2.648,3.361l-0.678-5.249l1.355-1.105L35.812,5.586z"/>
</g>
</svg>
