<?xml version="1.0" encoding="utf-8"?>
<!-- Generator: Adobe Illustrator 16.0.0, SVG Export Plug-In . SVG Version: 6.00 Build 0)  -->
<!DOCTYPE svg PUBLIC "-//W3C//DTD SVG 1.1//EN" "http://www.w3.org/Graphics/SVG/1.1/DTD/svg11.dtd">
<svg version="1.1" id="Layer_1" xmlns="http://www.w3.org/2000/svg" xmlns:xlink="http://www.w3.org/1999/xlink" x="0px" y="0px"
	 width="50px" height="50px" viewBox="0 0 50 50" enable-background="new 0 0 50 50" xml:space="preserve">
<g>
	<path fill="#464646" d="M35.91,11.84c3.152,0,5.718-2.564,5.718-5.717s-2.565-5.717-5.718-5.717c-3.151,0-5.717,2.564-5.717,5.717
		S32.759,11.84,35.91,11.84z M35.91,2.967c1.74,0,3.156,1.416,3.156,3.156c0,1.74-1.416,3.157-3.156,3.157
		c-1.739,0-3.155-1.416-3.155-3.156S34.171,2.967,35.91,2.967z"/>
	<polygon fill="#464646" points="48.328,28.439 46.516,26.627 43.523,29.619 40.533,26.629 38.723,28.439 41.713,31.43 
		38.723,34.422 40.533,36.232 43.523,33.242 46.516,36.232 48.328,34.422 45.336,31.43 	"/>
	<polygon fill="#464646" points="10.172,17.893 13.162,14.901 16.152,17.893 17.965,16.081 14.973,13.09 17.965,10.098 
		16.152,8.288 13.162,11.278 10.172,8.288 8.359,10.098 11.352,13.09 8.359,16.081 	"/>
	<polygon fill="#464646" points="30.725,35.275 27.732,38.266 24.741,35.275 22.932,37.086 25.922,40.078 22.932,43.068 
		24.741,44.881 27.732,41.889 30.725,44.881 32.536,43.068 29.544,40.078 32.536,37.086 	"/>
	<path fill="#464646" d="M7.389,38.158c-3.152,0-5.717,2.566-5.717,5.717c0,3.152,2.564,5.719,5.717,5.719
		c3.153,0,5.719-2.566,5.719-5.719C13.107,40.725,10.542,38.158,7.389,38.158z M7.389,47.031c-1.738,0-3.154-1.416-3.154-3.156
		c0-1.738,1.416-3.152,3.154-3.152c1.74,0,3.156,1.414,3.156,3.152C10.545,45.615,9.129,47.031,7.389,47.031z"/>
	<path fill="#464646" d="M40.682,20.473l1.553-2.037l-6.33-4.824l-6.221,4.83l1.571,2.023l3.384-2.627
		c0.019,4.068-0.033,6.773-1.271,7.955c-0.562,0.537-3.155,0.501-5.9,0.468c-1.422-0.02-3.032-0.038-4.87-0.01
		c-0.94,0.017-1.912,0.01-2.853,0.004c-4.766-0.032-9.267-0.062-11.807,2.461c-1.214,1.205-1.829,2.88-1.829,4.979v0.065
		c0,0.255,0,1.187,0,1.433c0.001,0.877,0.659,1.348,1.28,1.348c0.622,0,1.281-0.473,1.281-1.348v-1.498
		c0-1.41,0.352-2.445,1.072-3.16c1.784-1.773,5.953-1.746,9.985-1.719c0.954,0.008,1.94,0.014,2.909-0.004
		c1.803-0.029,3.395-0.006,4.797,0.012c4.116,0.051,6.385,0.082,7.702-1.176c2.011-1.918,2.085-5.087,2.065-9.829L40.682,20.473z"/>
	<path fill="#464646" d="M6.108,35.258c0-0.008,0-0.031,0-0.064l0,0V35.258z"/>
</g>
</svg>
