<?xml version="1.0" encoding="utf-8"?>
<!-- Generator: Adobe Illustrator 16.0.0, SVG Export Plug-In . SVG Version: 6.00 Build 0)  -->
<!DOCTYPE svg PUBLIC "-//W3C//DTD SVG 1.1//EN" "http://www.w3.org/Graphics/SVG/1.1/DTD/svg11.dtd">
<svg version="1.1" id="Layer_1" xmlns="http://www.w3.org/2000/svg" xmlns:xlink="http://www.w3.org/1999/xlink" x="0px" y="0px"
	 width="50px" height="50px" viewBox="0 0 50 50" enable-background="new 0 0 50 50" xml:space="preserve">
<path fill="#464646" d="M49.756,31.738l-7.964-21.48h2.543c0.709,0,1.281-0.572,1.281-1.279c0-0.709-0.572-1.281-1.281-1.281H26.512
	l-0.179-6.314c-0.019-0.693-0.586-1.244-1.279-1.244c-0.001,0-0.001,0-0.001,0c-0.694,0-1.261,0.551-1.28,1.244l-0.182,6.314H5.743
	c-0.708,0-1.281,0.572-1.281,1.281c0,0.707,0.573,1.279,1.281,1.279h2.465l-7.963,21.48c0,0,0,4.973,8.906,4.947
	c9.037-0.027,8.905-4.947,8.905-4.947l-7.965-21.48h13.426l-0.058,2.049c-1.09,0.572-1.837,1.713-1.837,3.027
	c0,1.242,0.67,2.33,1.665,2.926l-0.771,26.932c-9.217,0.724-9.352,4.67-9.352,4.67h23.749c0,0-0.136-4.188-9.353-4.727L26.807,18.25
	c0.985-0.6,1.647-1.682,1.647-2.916c0-1.307-0.736-2.441-1.813-3.016l-0.059-2.061h13.326l-7.965,21.479c0,0,0,4.974,8.906,4.947
	C49.889,36.658,49.756,31.738,49.756,31.738z M8.723,11.326v20.412H1.155L8.723,11.326z M9.577,31.738V11.326l7.568,20.412H9.577z
	 M41.277,31.738V11.326l7.566,20.412H41.277z M40.423,11.326v20.412h-7.567L40.423,11.326z"/>
</svg>
