<?xml version="1.0" encoding="utf-8"?>
<!-- Generator: Adobe Illustrator 16.0.0, SVG Export Plug-In . SVG Version: 6.00 Build 0)  -->
<!DOCTYPE svg PUBLIC "-//W3C//DTD SVG 1.1//EN" "http://www.w3.org/Graphics/SVG/1.1/DTD/svg11.dtd">
<svg version="1.1" id="Layer_1" xmlns="http://www.w3.org/2000/svg" xmlns:xlink="http://www.w3.org/1999/xlink" x="0px" y="0px"
	 width="50px" height="50px" viewBox="0 0 50 50" enable-background="new 0 0 50 50" xml:space="preserve">
<g>
	<path fill="#464646" d="M10.104,49.645c-0.901,0-1.799-0.127-2.664-0.367c-0.642-0.185-1.12-0.674-1.285-1.317
		c-0.168-0.64,0.018-1.325,0.48-1.79l2.901-2.898c0.373-0.375,0.579-0.873,0.579-1.405c0-0.531-0.206-1.03-0.579-1.403
		c-0.375-0.375-0.872-0.581-1.405-0.581c-0.532,0-1.031,0.206-1.404,0.581l-2.9,2.898c-0.35,0.351-0.817,0.541-1.316,0.541
		c-0.84,0-1.56-0.534-1.789-1.336c-0.952-3.491-0.021-7.068,2.488-9.574c1.794-1.848,4.218-2.868,6.814-2.868
		c1.028,0,2.042,0.162,3.019,0.481l17.572-17.577c-1.105-3.5-0.209-7.237,2.383-9.829c1.835-1.833,4.286-2.842,6.9-2.842
		c0.884,0,1.761,0.117,2.604,0.354c0.661,0.188,1.168,0.701,1.334,1.34c0.16,0.615-0.014,1.25-0.465,1.702l-2.9,2.897
		c-0.775,0.773-0.775,2.034,0,2.809l0.022,0.022c0.37,0.391,0.851,0.605,1.35,0.605s0.979-0.214,1.351-0.605l0.041-0.042
		l2.959-2.827c0.349-0.341,0.812-0.531,1.302-0.531c0.844,0,1.562,0.538,1.791,1.338c0.944,3.39-0.007,7.032-2.487,9.51
		c-1.796,1.844-4.219,2.868-6.816,2.868c-1.025,0-2.041-0.162-3.017-0.48l-17.64,17.638c1.104,3.502,0.209,7.239-2.382,9.831
		C15.158,48.624,12.727,49.645,10.104,49.645z M9.158,47.125c0.313,0.04,0.63,0.059,0.946,0.059c1.951,0,3.758-0.754,5.088-2.121
		c2.011-2.015,2.659-4.934,1.699-7.629l-0.008-0.023c-0.229-0.688-0.065-1.424,0.431-1.917l18.188-18.188
		c0.35-0.349,0.786-0.533,1.264-0.533c0.178,0,0.357,0.025,0.565,0.077l0.127,0.038c0.812,0.302,1.662,0.454,2.522,0.454
		c1.929,0,3.728-0.759,5.065-2.135c1.614-1.614,2.365-3.868,2.081-6.085L44.951,11.2c-0.838,0.87-1.939,1.349-3.109,1.349
		c-1.176,0-2.283-0.483-3.121-1.36c-1.723-1.735-1.719-4.546,0.012-6.273l2.045-2.049c-0.291-0.036-0.584-0.052-0.879-0.052
		c-1.961,0-3.793,0.755-5.162,2.125c-2,2-2.646,4.917-1.688,7.614l0.008,0.025c0.229,0.689,0.064,1.424-0.431,1.916L14.504,32.618
		c-0.348,0.348-0.784,0.53-1.263,0.53c-0.176,0-0.355-0.024-0.563-0.076l-0.129-0.039c-0.812-0.301-1.66-0.452-2.524-0.452
		c-1.927,0-3.726,0.757-5.065,2.133c-1.632,1.632-2.373,3.858-2.084,6.12l2.114-2.111c0.838-0.839,1.954-1.3,3.143-1.3
		s2.305,0.461,3.143,1.3c0.838,0.838,1.299,1.954,1.299,3.143c0,1.189-0.461,2.305-1.299,3.145L9.158,47.125z"/>
	<g>
		<path fill="#464646" d="M18.05,23.642l5.602-5.603c0.33-0.328,0.33-0.921,0-1.251L9.944,3.081
			c-1.781-1.78-4.943-1.979-6.856-0.199c-1.976,1.844-2.041,5.007-0.13,6.92l13.84,13.839C17.128,23.972,17.72,23.972,18.05,23.642z
			"/>
		<path fill="#464646" d="M45.994,42.029c-0.131-0.131-0.264-0.264-0.395-0.329l-2.438-1.251c-0.065-0.067-0.198-0.133-0.265-0.2
			l-11.862-11.86c-0.33-0.33-0.923-0.33-1.253,0l-1.448,1.449c-0.33,0.329-0.33,0.922,0,1.251l11.86,11.862
			c0.066,0.066,0.134,0.199,0.199,0.265l1.25,2.438c0.067,0.134,0.199,0.265,0.33,0.396l3.23,2.177
			c0.396,0.262,0.988,0.198,1.318-0.131l1.449-1.451c0.328-0.328,0.396-0.924,0.133-1.317L45.994,42.029z"/>
	</g>
</g>
</svg>
