<?xml version="1.0" encoding="utf-8"?>
<!-- Generator: Adobe Illustrator 16.0.0, SVG Export Plug-In . SVG Version: 6.00 Build 0)  -->
<!DOCTYPE svg PUBLIC "-//W3C//DTD SVG 1.1//EN" "http://www.w3.org/Graphics/SVG/1.1/DTD/svg11.dtd">
<svg version="1.1" id="Layer_1" xmlns="http://www.w3.org/2000/svg" xmlns:xlink="http://www.w3.org/1999/xlink" x="0px" y="0px"
	 width="304.5px" height="101.833px" viewBox="97.5 -1.833 304.5 101.833" enable-background="new 97.5 -1.833 304.5 101.833"
	 xml:space="preserve">
<g>
	<path fill="#EEEEEE" d="M180.167,0.133c6.6,0,12.2,2.4,16.934,7.133s7.066,10.533,7.066,17.4c0,6.8-2.333,12.534-7,17.2
		c-4.667,4.667-10.333,7.067-17,7.067c-7,0-12.8-2.4-17.4-7.2c-4.533-4.867-6.867-10.6-6.867-17.2c0-4.467,1.067-8.533,3.2-12.267
		s5.133-6.667,8.867-8.867C171.767,1.2,175.833,0.133,180.167,0.133z M180.033,8.8c-4.333,0-7.933,1.467-10.867,4.467
		c-2.933,3-4.4,6.8-4.4,11.4c0,5.133,1.867,9.2,5.533,12.2c2.867,2.333,6.133,3.533,9.867,3.533c4.2,0,7.8-1.533,10.733-4.533
		c2.934-3,4.4-6.8,4.4-11.2s-1.466-8.133-4.466-11.2C187.9,10.333,184.3,8.8,180.033,8.8z"/>
	<path fill="#EEEEEE" d="M212.567,1.267h10.466c6.733,0,11.8,0.867,15.067,2.533c3.267,1.667,6,4.4,8.133,8.133
		c2.133,3.8,3.2,8.2,3.2,13.2c0,3.6-0.6,6.867-1.8,9.867s-2.8,5.467-4.933,7.467c-2.067,2-4.333,3.333-6.8,4.133
		c-2.466,0.8-6.667,1.133-12.667,1.133h-10.667V1.267z M221.367,9.8v29.333h4.133c4.067,0,7-0.467,8.8-1.4
		c1.8-0.934,3.333-2.467,4.467-4.667C239.9,30.867,240.5,28.2,240.5,25c0-4.933-1.4-8.733-4.133-11.467
		c-2.467-2.467-6.467-3.667-12-3.667h-3V9.8z"/>
	<path fill="#EEEEEE" d="M271.967,1.267h9l17.867,46.467h-9.201l-3.666-9.6h-18.934l-3.8,9.6h-9.2L271.967,1.267z M276.566,13.6
		L270.3,29.533h12.4L276.566,13.6z"/>
	<path fill="#EEEEEE" d="M305.7,1.267h8.466l19.867,30.6v-30.6h8.867v46.467h-8.533L314.5,17.267v30.467h-8.867V1.267H305.7z"/>
</g>
<path fill="#EEEEEE" d="M150.633,2.933H137.1C133.633,1.067,129.7,0,125.5,0c-13.6,0-24.6,11-24.6,24.6
	c0,9.467,5.333,17.667,13.2,21.8c-7,3-11.667,8.733-11.667,15.266c0,9.734,10.333,17.601,23.067,17.601s23.067-7.866,23.067-17.601
	c0-6.533-4.667-12.266-11.667-15.333c7.867-4.133,13.2-12.333,13.2-21.8c0-4.467-1.2-8.667-3.333-12.333h3.867V2.933z M139.9,61.666
	c0,2.601-2.066,4.601-3.333,5.534c-2.8,2.134-6.867,3.399-11.067,3.399s-8.267-1.199-11.067-3.399
	c-1.267-0.934-3.333-2.934-3.333-5.534c0-2.6,2.066-4.6,3.333-5.533c2.8-2.133,6.867-3.399,11.067-3.399s8.267,1.2,11.067,3.399
	C137.767,57.066,139.9,59.066,139.9,61.666z M125.5,39.8c-8.4,0-15.267-6.8-15.267-15.2S117.1,9.333,125.5,9.333s15.2,6.8,15.2,15.2
	C140.7,32.934,133.9,39.8,125.5,39.8z"/>
<g>
	<path fill="#EEEEEE" d="M192.033,62.4l-1.8,1.8c-1.133-1.2-2.467-1.8-4-1.8c-1.333,0-2.4,0.467-3.333,1.333
		c-0.867,0.866-1.333,1.933-1.333,3.2c0,1.267,0.466,2.4,1.4,3.267c0.933,0.933,2.066,1.333,3.4,1.333
		c0.867,0,1.6-0.199,2.267-0.533c0.6-0.4,1.067-0.934,1.467-1.733h-3.867v-2.399h6.733V67.4c0,1.199-0.333,2.266-0.934,3.333
		c-0.6,1.066-1.4,1.866-2.333,2.399c-1,0.533-2.133,0.801-3.4,0.801c-1.4,0-2.667-0.334-3.733-0.934c-1.067-0.6-1.934-1.467-2.6-2.6
		c-0.667-1.134-0.934-2.334-0.934-3.601c0-1.8,0.6-3.333,1.733-4.667c1.4-1.533,3.2-2.333,5.467-2.333c1.2,0,2.267,0.2,3.267,0.667
		C190.367,60.867,191.167,61.533,192.033,62.4z"/>
	<path fill="#EEEEEE" d="M194.767,59.867h2.467v13.799h-2.467V59.867z"/>
	<path fill="#EEEEEE" d="M204.167,63.467c0.934,0,1.8,0.267,2.667,0.733c0.8,0.466,1.466,1.134,1.933,1.933
		c0.467,0.801,0.667,1.667,0.667,2.601c0,0.933-0.2,1.8-0.667,2.601c-0.467,0.799-1.133,1.466-1.933,1.933
		c-0.8,0.467-1.667,0.667-2.667,0.667c-1.4,0-2.667-0.533-3.667-1.533s-1.533-2.268-1.533-3.667c0-1.533,0.6-2.866,1.733-3.866
		C201.767,63.934,202.9,63.467,204.167,63.467z M204.233,65.8c-0.8,0-1.4,0.267-1.934,0.8c-0.533,0.533-0.8,1.2-0.8,2.066
		c0,0.867,0.267,1.534,0.733,2.134c0.533,0.534,1.133,0.8,1.933,0.8c0.8,0,1.4-0.266,1.934-0.8c0.533-0.533,0.8-1.267,0.8-2.066
		c0-0.866-0.267-1.533-0.733-2.067C205.7,66.066,205.033,65.8,204.233,65.8z"/>
	<path fill="#EEEEEE" d="M213.967,59.867V64.8c0.466-0.466,0.933-0.8,1.466-1c0.534-0.2,1.067-0.333,1.667-0.333
		c1.267,0,2.4,0.467,3.333,1.467c0.934,1,1.333,2.267,1.333,3.8c0,1.467-0.467,2.733-1.4,3.733c-0.934,1-2.067,1.467-3.333,1.467
		c-0.6,0-1.133-0.134-1.6-0.334c-0.466-0.199-1-0.533-1.466-1v1.066H211.5V59.867H213.967z M216.567,65.733
		c-0.8,0-1.467,0.267-1.934,0.8s-0.8,1.267-0.8,2.133c0,0.867,0.267,1.601,0.8,2.134c0.533,0.534,1.2,0.8,1.934,0.8
		c0.733,0,1.4-0.266,1.933-0.8c0.533-0.533,0.8-1.267,0.8-2.134c0-0.866-0.267-1.533-0.8-2.066S217.367,65.733,216.567,65.733z"/>
	<path fill="#EEEEEE" d="M231.167,63.733h2.467v9.933h-2.467V72.6c-0.466,0.467-1,0.801-1.466,1c-0.467,0.2-1,0.334-1.6,0.334
		c-1.267,0-2.4-0.467-3.333-1.467c-0.933-1-1.4-2.267-1.4-3.733c0-1.533,0.467-2.8,1.333-3.8c0.933-1,2-1.467,3.333-1.467
		c0.6,0,1.133,0.133,1.667,0.333c0.533,0.2,1,0.534,1.466,1V63.733z M228.567,65.733c-0.8,0-1.4,0.267-1.934,0.8
		S225.9,67.8,225.9,68.6c0,0.867,0.267,1.533,0.8,2.134c0.533,0.533,1.133,0.8,1.933,0.8s1.4-0.267,1.933-0.8
		c0.534-0.533,0.8-1.267,0.8-2.134c0-0.866-0.267-1.533-0.8-2.133C230.033,66.066,229.367,65.733,228.567,65.733z"/>
	<path fill="#EEEEEE" d="M235.9,59.867h2.467v13.799H235.9V59.867z"/>
	<path fill="#EEEEEE" d="M252.566,59.867c1.934,0,3.533,0.666,4.934,2.066s2.066,3.066,2.066,5s-0.666,3.6-2,5
		c-1.333,1.333-3,2.066-4.934,2.066c-2,0-3.666-0.666-5-2.066s-2-3.066-2-5c0-1.268,0.333-2.467,0.934-3.533
		c0.6-1.066,1.466-1.934,2.533-2.533C250.1,60.2,251.3,59.867,252.566,59.867z M252.5,62.4c-1.267,0-2.267,0.399-3.133,1.266
		c-0.867,0.867-1.267,1.934-1.267,3.268c0,1.467,0.533,2.666,1.6,3.533c0.8,0.666,1.8,1,2.866,1c1.2,0,2.268-0.467,3.134-1.334
		c0.866-0.866,1.267-1.933,1.267-3.266c0-1.268-0.4-2.334-1.267-3.268C254.767,62.8,253.767,62.4,252.5,62.4z"/>
	<path fill="#EEEEEE" d="M264.1,63.733V64.8c0.467-0.466,0.934-0.8,1.467-1s1.066-0.333,1.667-0.333
		c1.267,0,2.399,0.467,3.333,1.467s1.334,2.267,1.334,3.8c0,1.467-0.467,2.733-1.4,3.733s-2.066,1.467-3.334,1.467
		c-0.6,0-1.133-0.134-1.6-0.334c-0.467-0.199-1-0.533-1.467-1v4.667h-2.467V63.733H264.1z M266.7,65.733
		c-0.8,0-1.467,0.267-1.934,0.8s-0.8,1.267-0.8,2.133c0,0.867,0.267,1.601,0.8,2.134c0.533,0.534,1.2,0.8,1.934,0.8
		s1.399-0.266,1.933-0.8c0.533-0.533,0.801-1.267,0.801-2.134c0-0.866-0.268-1.533-0.801-2.066S267.5,65.733,266.7,65.733z"/>
	<path fill="#EEEEEE" d="M283.967,69.4h-8c0.133,0.732,0.4,1.266,0.934,1.666s1.133,0.6,1.934,0.6c0.933,0,1.732-0.332,2.399-1
		l2.134,1c-0.533,0.734-1.134,1.268-1.867,1.668c-0.733,0.332-1.6,0.533-2.6,0.533c-1.533,0-2.801-0.467-3.801-1.467
		s-1.467-2.2-1.467-3.667c0-1.533,0.467-2.8,1.467-3.8s2.2-1.533,3.667-1.533c1.533,0,2.866,0.533,3.8,1.533
		c1,1,1.467,2.333,1.467,4L283.967,69.4z M281.434,67.467c-0.134-0.533-0.467-1-1-1.334c-0.467-0.333-1.066-0.533-1.667-0.533
		c-0.667,0-1.333,0.2-1.8,0.601c-0.334,0.267-0.667,0.667-0.934,1.267H281.434z"/>
	<path fill="#EEEEEE" d="M285.967,63.733h2.467v1c0.533-0.467,1.066-0.8,1.533-1s0.934-0.267,1.4-0.267c1,0,1.799,0.333,2.533,1
		c0.6,0.6,0.866,1.467,0.866,2.6v6.6H292.3v-4.332c0-1.201-0.066-2-0.134-2.334c-0.133-0.4-0.266-0.666-0.533-0.867
		c-0.266-0.199-0.6-0.333-1-0.333c-0.533,0-0.933,0.2-1.266,0.534c-0.334,0.332-0.601,0.799-0.734,1.399
		c-0.066,0.333-0.133,1-0.133,2v4h-2.467v-10H285.967z"/>
	<path fill="#EEEEEE" d="M302.7,60.2h3c1.933,0,3.399,0.267,4.333,0.733s1.733,1.267,2.334,2.333c0.6,1.067,0.933,2.333,0.933,3.8
		c0,1.066-0.2,2-0.533,2.867c-0.333,0.866-0.8,1.6-1.399,2.133c-0.601,0.6-1.268,1-2,1.2c-0.734,0.2-1.934,0.333-3.667,0.333h-3.067
		V60.2H302.7z M305.233,62.666v8.467h1.2c1.199,0,2-0.133,2.533-0.399S309.9,70,310.233,69.4c0.333-0.601,0.533-1.4,0.533-2.334
		c0-1.4-0.399-2.533-1.2-3.333c-0.732-0.733-1.866-1.067-3.467-1.067H305.233z"/>
	<path fill="#EEEEEE" d="M322.834,63.733h2.466v9.933h-2.466V72.6c-0.467,0.467-1,0.801-1.467,1c-0.467,0.2-1,0.334-1.601,0.334
		c-1.267,0-2.399-0.467-3.333-1.467s-1.4-2.267-1.4-3.733c0-1.533,0.467-2.8,1.334-3.8c0.933-1,2-1.467,3.333-1.467
		c0.6,0,1.134,0.133,1.667,0.333s1,0.534,1.467,1V63.733z M320.233,65.733c-0.8,0-1.399,0.267-1.934,0.8
		c-0.533,0.533-0.733,1.267-0.733,2.066c0,0.867,0.268,1.533,0.801,2.134c0.533,0.533,1.133,0.8,1.933,0.8s1.4-0.267,1.934-0.8
		s0.8-1.267,0.8-2.134c0-0.866-0.267-1.533-0.8-2.133C321.7,66.066,321.033,65.733,320.233,65.733z"/>
	<path fill="#EEEEEE" d="M328.166,60.066h2.467v3.667h1.467v2.134h-1.467v7.799h-2.467v-7.799H326.9v-2.134h1.266V60.066z"/>
	<path fill="#EEEEEE" d="M340.834,63.733h2.466v9.933h-2.466V72.6c-0.467,0.467-1,0.801-1.467,1c-0.467,0.2-1,0.334-1.601,0.334
		c-1.267,0-2.399-0.467-3.333-1.467s-1.4-2.267-1.4-3.733c0-1.533,0.467-2.8,1.334-3.8c0.933-1,2-1.467,3.333-1.467
		c0.6,0,1.134,0.133,1.667,0.333s1,0.534,1.467,1V63.733z M338.166,65.733c-0.799,0-1.399,0.267-1.933,0.8S335.5,67.8,335.5,68.6
		c0,0.867,0.267,1.533,0.8,2.134c0.534,0.533,1.134,0.8,1.934,0.8s1.399-0.267,1.933-0.8c0.534-0.533,0.801-1.267,0.801-2.134
		c0-0.866-0.267-1.533-0.801-2.133C339.633,66.066,338.967,65.733,338.166,65.733z"/>
	<path fill="#EEEEEE" d="M183.567,82.334V83.6c-0.467-0.199-0.867-0.333-1.2-0.333c-0.267,0-0.467,0.067-0.6,0.134
		s-0.267,0.199-0.333,0.333c-0.066,0.134-0.066,0.467-0.066,1.066v1.333h2.066v1.134h-2.066v8.866H180.1v-8.866h-1.333v-1.134h1.333
		V84.6c0-0.732,0.066-1.199,0.2-1.533c0.133-0.333,0.333-0.533,0.667-0.732c0.333-0.201,0.667-0.268,1.133-0.268
		C182.5,82.066,183.033,82.133,183.567,82.334z"/>
	<path fill="#EEEEEE" d="M190.033,85.934c1.534,0,2.8,0.533,3.8,1.666c0.933,1,1.4,2.2,1.4,3.601c0,1.399-0.467,2.6-1.467,3.667
		c-1,1.066-2.2,1.533-3.733,1.533c-1.533,0-2.8-0.533-3.733-1.533c-1-1.067-1.466-2.268-1.466-3.667c0-1.4,0.466-2.601,1.4-3.601
		C187.233,86.467,188.5,85.934,190.033,85.934z M190.033,87.133c-1.066,0-2,0.4-2.733,1.201c-0.733,0.799-1.133,1.732-1.133,2.866
		c0,0.733,0.2,1.399,0.534,2c0.333,0.6,0.8,1.134,1.4,1.466c0.6,0.334,1.267,0.534,1.933,0.534c0.667,0,1.333-0.2,1.934-0.534
		c0.6-0.332,1.066-0.799,1.4-1.466c0.333-0.601,0.533-1.267,0.533-2c0-1.134-0.4-2.067-1.133-2.866
		C192.033,87.533,191.1,87.133,190.033,87.133z"/>
	<path fill="#EEEEEE" d="M197.1,86.2h1.333v1.466c0.4-0.6,0.8-1,1.267-1.266c0.4-0.268,0.867-0.4,1.333-0.4
		c0.333,0,0.733,0.133,1.133,0.334L201.5,87.4c-0.267-0.134-0.467-0.2-0.667-0.2c-0.4,0-0.867,0.2-1.2,0.533
		c-0.4,0.333-0.667,0.866-0.933,1.601c-0.133,0.533-0.267,1.732-0.267,3.466v3.333H197.1V86.2z"/>
	<path fill="#EEEEEE" d="M214.1,82.666l6.267,13.467H218.9l-2.133-4.399h-5.8l-2.067,4.399h-1.467l6.333-13.467H214.1z
		 M213.967,85.533l-2.333,4.867h4.6L213.967,85.533z"/>
	<path fill="#EEEEEE" d="M230.833,86.2h1.267v7.933c0,1.4-0.133,2.4-0.333,3.067c-0.333,0.933-0.933,1.6-1.733,2.134
		c-0.8,0.466-1.8,0.732-3,0.732c-0.867,0-1.6-0.133-2.267-0.333c-0.667-0.267-1.2-0.533-1.667-1c-0.4-0.399-0.8-1-1.2-1.8h1.4
		c0.4,0.666,0.867,1.133,1.467,1.467c0.6,0.333,1.333,0.467,2.2,0.467s1.6-0.134,2.2-0.467c0.6-0.334,1-0.734,1.267-1.2
		c0.267-0.467,0.4-1.267,0.4-2.4v-0.533c-0.467,0.601-1.067,1.067-1.733,1.399c-0.667,0.334-1.4,0.467-2.2,0.467
		c-0.933,0-1.8-0.199-2.6-0.666c-0.8-0.467-1.4-1.066-1.867-1.801c-0.466-0.799-0.667-1.6-0.667-2.533c0-0.933,0.2-1.799,0.667-2.6
		c0.467-0.8,1.067-1.4,1.867-1.867C225.1,86.2,225.967,86,226.833,86c0.733,0,1.466,0.133,2.066,0.467
		c0.667,0.333,1.267,0.8,1.867,1.533v-1.8H230.833z M227.033,87.133c-0.733,0-1.4,0.201-2,0.533c-0.6,0.334-1.133,0.867-1.466,1.467
		c-0.333,0.601-0.534,1.268-0.534,2c0,1.067,0.333,2,1.067,2.734c0.733,0.732,1.667,1.066,2.867,1.066
		c1.2,0,2.133-0.334,2.867-1.066c0.733-0.734,1.066-1.667,1.066-2.801c0-0.732-0.133-1.4-0.466-2c-0.333-0.6-0.8-1.066-1.4-1.4
		C228.433,87.334,227.767,87.133,227.033,87.133z"/>
	<path fill="#EEEEEE" d="M234.367,86.2h1.333v1.466c0.4-0.6,0.8-1,1.267-1.266c0.4-0.268,0.867-0.4,1.333-0.4
		c0.333,0,0.733,0.133,1.133,0.334l-0.667,1.066c-0.267-0.134-0.467-0.2-0.667-0.2c-0.4,0-0.867,0.2-1.2,0.533
		c-0.4,0.333-0.667,0.866-0.933,1.601c-0.133,0.533-0.267,1.732-0.267,3.466v3.333h-1.333V86.2z"/>
	<path fill="#EEEEEE" d="M240.9,82.066c0.267,0,0.533,0.134,0.733,0.334c0.2,0.199,0.333,0.467,0.333,0.732
		c0,0.268-0.133,0.533-0.333,0.734c-0.2,0.199-0.467,0.333-0.733,0.333s-0.533-0.134-0.733-0.333
		c-0.2-0.201-0.333-0.467-0.333-0.734c0-0.266,0.133-0.533,0.333-0.732C240.367,82.2,240.633,82.066,240.9,82.066z M240.3,86.2
		h1.267v9.933H240.3V86.2z"/>
	<path fill="#EEEEEE" d="M253.834,88.267l-1,0.601c-0.867-1.134-2.067-1.734-3.601-1.734c-1.2,0-2.2,0.4-3,1.201
		c-0.8,0.799-1.2,1.732-1.2,2.866c0,0.733,0.2,1.399,0.534,2.066c0.4,0.667,0.866,1.134,1.533,1.467
		c0.667,0.333,1.333,0.533,2.133,0.533c1.467,0,2.667-0.601,3.601-1.733l1,0.667c-0.467,0.733-1.134,1.267-1.934,1.667
		c-0.801,0.399-1.734,0.6-2.734,0.6c-1.6,0-2.867-0.467-3.933-1.467c-1.067-1-1.533-2.2-1.533-3.666
		c0-0.934,0.267-1.867,0.733-2.668c0.467-0.799,1.134-1.466,2-1.933c0.867-0.467,1.8-0.667,2.867-0.667
		c0.667,0,1.267,0.134,1.934,0.334c0.667,0.199,1.134,0.467,1.533,0.8C253.233,87.334,253.566,87.733,253.834,88.267z"/>
	<path fill="#EEEEEE" d="M256.166,86.2h1.268v4.667c0,1.133,0.066,1.933,0.199,2.333c0.201,0.6,0.533,1.066,1.067,1.466
		c0.533,0.334,1.134,0.534,1.866,0.534c0.733,0,1.334-0.2,1.801-0.534c0.467-0.332,0.866-0.799,1-1.332
		c0.133-0.4,0.199-1.201,0.199-2.467V86.2h1.334v4.866c0,1.4-0.134,2.4-0.467,3.066c-0.334,0.667-0.801,1.268-1.467,1.601
		c-0.667,0.399-1.467,0.601-2.4,0.601c-1,0-1.8-0.201-2.4-0.601c-0.666-0.399-1.133-0.934-1.466-1.667
		c-0.333-0.732-0.467-1.732-0.467-3.199V86.2H256.166z"/>
	<path fill="#EEEEEE" d="M267.5,82.334h1.267v13.799H267.5V82.334z"/>
	<path fill="#EEEEEE" d="M272.566,82.467h1.268v3.666h2v1.134h-2v8.866h-1.268v-8.866h-1.732v-1.134h1.732V82.467z"/>
	<path fill="#EEEEEE" d="M277.633,86.2h1.268v4.667c0,1.133,0.066,1.933,0.199,2.333c0.2,0.6,0.533,1.066,1.066,1.466
		C280.7,95,281.3,95.2,282.033,95.2s1.334-0.2,1.801-0.534c0.466-0.332,0.866-0.799,1-1.332c0.133-0.4,0.199-1.201,0.199-2.467V86.2
		h1.334v4.866c0,1.4-0.134,2.4-0.467,3.066c-0.334,0.667-0.801,1.268-1.467,1.601c-0.667,0.333-1.467,0.601-2.4,0.601
		c-1,0-1.8-0.201-2.4-0.601c-0.666-0.399-1.133-0.934-1.467-1.667c-0.332-0.732-0.466-1.732-0.466-3.199V86.2H277.633z"/>
	<path fill="#EEEEEE" d="M288.633,86.2h1.334v1.466c0.4-0.6,0.8-1,1.267-1.266c0.399-0.268,0.866-0.4,1.333-0.4
		c0.334,0,0.733,0.133,1.134,0.334l-0.667,1.066c-0.267-0.134-0.467-0.2-0.666-0.2c-0.4,0-0.867,0.2-1.201,0.533
		c-0.399,0.333-0.666,0.866-0.933,1.601c-0.134,0.533-0.267,1.732-0.267,3.466v3.333h-1.334V86.2L288.633,86.2z"/>
	<path fill="#EEEEEE" d="M303.1,92.8l1.066,0.534C303.834,94,303.434,94.6,302.967,95s-1,0.733-1.533,1
		c-0.6,0.2-1.268,0.334-1.934,0.334c-1.6,0-2.867-0.534-3.8-1.601c-0.934-1.067-1.4-2.267-1.4-3.601c0-1.266,0.4-2.399,1.134-3.399
		c1-1.267,2.267-1.866,3.934-1.866c1.666,0,3.066,0.666,4.066,1.933c0.732,0.934,1.066,2.067,1.066,3.4h-8.934
		c0,1.134,0.4,2.134,1.134,2.866c0.733,0.733,1.6,1.134,2.667,1.134c0.533,0,1-0.067,1.467-0.267c0.466-0.2,0.866-0.4,1.199-0.733
		C302.3,93.934,302.7,93.467,303.1,92.8z M303.1,90.133c-0.199-0.666-0.399-1.199-0.732-1.666c-0.334-0.4-0.734-0.733-1.268-1
		s-1.133-0.4-1.666-0.4c-1,0-1.801,0.334-2.533,0.934c-0.533,0.467-0.867,1.133-1.134,2.066h7.333V90.133z"/>
	<path fill="#EEEEEE" d="M327.367,96.133V82.666h0.266L336.566,93V82.666h1.334v13.467h-0.334L328.7,85.934v10.199H327.367z"/>
	<path fill="#EEEEEE" d="M340.834,86.2h1.266v4.667c0,1.133,0.066,1.933,0.2,2.333c0.2,0.6,0.534,1.066,1.067,1.466
		C343.9,95,344.5,95.2,345.233,95.2s1.333-0.2,1.8-0.534c0.467-0.332,0.867-0.799,1-1.332c0.133-0.4,0.2-1.201,0.2-2.467V86.2h1.333
		v4.866c0,1.4-0.133,2.4-0.467,3.066c-0.333,0.667-0.8,1.268-1.467,1.601c-0.666,0.333-1.467,0.601-2.399,0.601
		c-0.934,0-1.8-0.201-2.399-0.601c-0.668-0.399-1.134-0.934-1.467-1.667c-0.334-0.732-0.467-1.732-0.467-3.199V86.2H340.834z"/>
	<path fill="#EEEEEE" d="M353.5,82.467h1.267v3.666h2v1.134h-2v8.866H353.5v-8.866h-1.733v-1.134h1.733V82.467z"/>
	<path fill="#EEEEEE" d="M358.233,86.2h1.333v1.466c0.4-0.6,0.801-1,1.268-1.266c0.399-0.268,0.866-0.4,1.332-0.4
		c0.334,0,0.734,0.133,1.134,0.334l-0.667,1.066c-0.266-0.134-0.467-0.2-0.666-0.2c-0.4,0-0.867,0.2-1.2,0.533
		c-0.399,0.333-0.667,0.866-0.933,1.601c-0.134,0.533-0.268,1.732-0.268,3.466v3.333h-1.333V86.2L358.233,86.2z"/>
	<path fill="#EEEEEE" d="M364.767,82.066c0.267,0,0.533,0.134,0.733,0.334c0.2,0.199,0.334,0.467,0.334,0.732
		c0,0.268-0.134,0.533-0.334,0.734c-0.2,0.199-0.467,0.333-0.733,0.333s-0.533-0.134-0.733-0.333
		c-0.199-0.201-0.333-0.467-0.333-0.734c0-0.266,0.134-0.533,0.333-0.732C364.233,82.2,364.5,82.066,364.767,82.066z M364.166,86.2
		h1.268v9.933h-1.268V86.2z"/>
	<path fill="#EEEEEE" d="M369.166,82.467h1.268v3.666h2v1.134h-2v8.866h-1.268v-8.866h-1.732v-1.134h1.732V82.467z"/>
	<path fill="#EEEEEE" d="M374.834,82.066c0.266,0,0.533,0.134,0.732,0.334c0.2,0.199,0.334,0.467,0.334,0.732
		c0,0.268-0.134,0.533-0.334,0.734c-0.199,0.199-0.467,0.333-0.732,0.333c-0.268,0-0.534-0.134-0.734-0.333
		c-0.199-0.201-0.333-0.467-0.333-0.734c0-0.266,0.134-0.533,0.333-0.732C374.367,82.2,374.566,82.066,374.834,82.066z
		 M374.233,86.2h1.267v9.933h-1.267V86.2z"/>
	<path fill="#EEEEEE" d="M382.9,85.934c1.533,0,2.8,0.533,3.8,1.666c0.933,1,1.399,2.2,1.399,3.601c0,1.399-0.467,2.6-1.467,3.667
		c-1,1.066-2.199,1.533-3.732,1.533s-2.801-0.533-3.734-1.533c-1-1.067-1.466-2.268-1.466-3.667c0-1.4,0.466-2.601,1.399-3.601
		C380.033,86.467,381.3,85.934,382.9,85.934z M382.834,87.133c-1.067,0-2,0.4-2.734,1.201c-0.732,0.799-1.133,1.732-1.133,2.866
		c0,0.733,0.199,1.399,0.533,2c0.334,0.6,0.8,1.134,1.4,1.466c0.6,0.334,1.266,0.534,1.934,0.534c0.732,0,1.332-0.2,1.933-0.534
		c0.601-0.332,1.067-0.799,1.399-1.466c0.334-0.601,0.534-1.267,0.534-2c0-1.134-0.4-2.067-1.134-2.866
		C384.834,87.533,383.9,87.133,382.834,87.133z"/>
	<path fill="#EEEEEE" d="M390.434,86.2h1.267V88c0.533-0.666,1.066-1.2,1.667-1.533c0.6-0.334,1.266-0.533,2-0.533
		c0.732,0,1.399,0.199,1.999,0.533c0.601,0.333,1,0.867,1.268,1.533c0.267,0.666,0.399,1.666,0.399,3v5.133h-1.267V91.4
		c0-1.134-0.066-1.934-0.133-2.268c-0.134-0.666-0.4-1.133-0.867-1.467c-0.4-0.332-1-0.466-1.667-0.466
		c-0.8,0-1.467,0.267-2.066,0.8s-1,1.133-1.199,1.934c-0.134,0.467-0.201,1.4-0.201,2.732v3.668h-1.266V86.2H390.434z"/>
</g>
<g>
	<path fill="none" stroke="#EEEEEE" stroke-miterlimit="10" d="M319.367,89.867H314.7c-1.601,0-2.934,1.333-2.934,2.933l0,0
		c0,1.601,1.333,2.934,2.934,2.934h0.466c1.601,0,2.934-1.333,2.934-2.934l0,0v-4.267"/>
	<path fill="none" stroke="#EEEEEE" stroke-miterlimit="10" d="M316.7,85.4h-2.067c-1.199,0-2.199,1-2.199,2.199
		c0,1.2,1,2.2,2.199,2.2h3.601"/>
</g>
</svg>
