<?xml version="1.0" encoding="utf-8"?>
<!-- Generator: Adobe Illustrator 15.0.0, SVG Export Plug-In . SVG Version: 6.00 Build 0)  -->
<!DOCTYPE svg PUBLIC "-//W3C//DTD SVG 1.1//EN" "http://www.w3.org/Graphics/SVG/1.1/DTD/svg11.dtd">
<svg version="1.1" id="Layer_1" xmlns="http://www.w3.org/2000/svg" xmlns:xlink="http://www.w3.org/1999/xlink" x="0px" y="0px"
	 width="1024px" height="768px" viewBox="0 0 1024 768" enable-background="new 0 0 1024 768" xml:space="preserve">
<g>
	<path fill="#006738" d="M309.72,401.596l-1.328-2.022l-0.664-0.658l-1.564-1.57l-1.396-1.388l-1.143-1.147l-1.156-1.156
		l-1.119-1.111l-1.664-1.813l-0.906-0.895l-0.844-0.847l-1.389-0.695l-0.975-0.978l-0.84-1.179l-1.081-1.077l-1.212-1.713
		l-1.326-1.952l-2.23-2.226l-0.84-1.464l-1.67-1.676l-1.744-1.191l-1.74-1.743l-2.232-2.23l-1.046-1.047l-2.02-2.015v-0.835
		l3.204-1.116l2.303-1.328l2.791-1.951l1.494-1.495l2.127-2.123l2.23-3.203l1.74-2.721l1.117-2.517l1.598-4.114l0.77-4.102v-4.396
		l-0.696-4.451l-1.671-4.393l-1.188-2.787l-2.021-2.797l-2.438-2.43l-2.162-2.162l-1.04-1.054l-2.443-1.104l-1.531-0.972
		l-2.299-1.19l-2.86-0.631l-2.791-0.624l-2.991-0.421l-2.832-0.339l-5.605-0.142h-8.986h-6.064h-5.991l-6.548,0.41h-4.672
		l-4.805,0.35h-4.529l-3.977,0.699h-3.549l-1.324,0.492l-0.93,0.131l-0.465,1.049l-0.352,2.292l0.278,1.397v1.535v2.295v4.188
		l-0.348,2.02v3.836l0.348,2.306l-0.348,2.014l0.348,4.668l-0.278,3.065v1.887v1.875l0.278,2.164l-0.278,2.156v2.372l0.278,4.879
		v3.831v4.597v2.102v2.72l0.282,3.406v2.647v3.354v4.734v4.804v2.854l0.484,3.489v2.646v0.77l0.663,0.664l1.844,0.24h1.884h3.14
		l8.64,0.278h4.602l7.668-0.278h2.434l0.627-0.629l0.423-4.938v-8.85l0.342-7.108v-7.329v-2.923l0.422,0.422l1.604,2.228
		l2.158,2.163l1.67,3.201l2.721,4.327l2.159,3.481l2.579,3.549l2.578,3.486l2.373,3.207l1.912,1.922l2.475,2.47l1.05,0.281h1.741
		l3.76,0.411l5.848,0.354l4.883,0.417h4.877l3.69,0.272l5.998,0.284h4.39l3.837-0.284h3.2l1.049-0.491v-0.898L309.72,401.596z
		 M217.481,398.647h-2.279l-0.144-0.137l-0.226-1.436l-0.25-1.881v-2.736l-0.309-4.082l-0.145-2.897l-0.223-3.847l-0.17-3.747
		v-3.891v-5.05v-3.397v-6.202v-2.893v-3.582l0.112-4.923v-3.383l0.026-6.023v-4.169v-3.662l0.173-3.006l0.305-4.764l0.705-6.217
		l0.378,0.199l0.44,0.923l0.337,0.347l0.381,0.373l0.533,0.539l0.607,0.602l0.506,0.845l0.227,0.987l-0.279,0.816l-0.43,0.816
		l-0.618,1.018l-0.185,0.435l-0.35,0.349l-0.195,0.483l-0.534,0.841l-0.115,0.45v0.421v0.311l0.44,0.688l0.434,0.437l0.46,0.857
		l0.327,0.33l0.239,0.49l0.634,0.634v0.448l0.057,0.619l-0.55,0.549l-0.575,0.586l-0.254,0.247l-0.392,0.651l-0.34,0.442v0.402
		l0.222,0.695l0.385,0.658l0.633,1.067l0.615,0.979l0.342,0.707v0.731l-0.295,0.604l-0.294,0.3l-0.539,0.532l-1.125,1.125
		l-0.255,0.707v0.559l0.312,0.986l0.425,0.701l0.445,0.764l0.536,1.076l0.425,0.698l-0.199,0.562l-0.41,0.693l-0.513,0.523
		l-0.487,0.817l-0.506,0.808l-0.309,0.593v0.54l0.166,0.531l0.596,0.935l0.361,0.614l0.413,0.762l0.382,1.016l0.251,0.589
		l0.341,0.928v0.421l-0.356,0.36l-0.55,0.543l-1.1,1.105v0.395l0.258,1.01l0.461,0.769l0.199,0.205l0.256,0.249l0.352,0.354
		l0.377,0.721l0.523,0.513v0.332l-0.202,0.427l-1.204,1.72l-1.561,2.119v0.575l0.306,0.703l0.503,1.046l0.316,0.306l0.458,0.464
		l0.343,0.655l0.25,0.672l0.174,0.441l0.279,0.479v0.282v0.532l-0.279,0.286l-0.203,0.477l-0.221,0.454l-0.54,0.93l-0.362,0.896
		l-0.394,0.928v0.479v0.233l0.256,0.245l0.453,0.788l0.161,0.17l0.85,0.846l0.785,1.069v0.391l-0.141,0.404l-0.229,0.583
		l-0.589,0.599l-0.295,0.575l-0.353,0.351l-0.233,0.516l-0.496,0.497v0.333l0.141,0.422l0.477,0.847l0.877,1.47l0.562,0.919v0.461
		v0.416l-0.389,0.37l-0.276,0.29l-0.55,0.545l-0.586,0.822l-0.539,0.535v0.219v0.371l0.311,0.651l0.484,0.784l1.909,2.418H217.481z
		 M231.261,399l-0.187,0.182h-0.646h-0.788h-1.831l-0.924-0.14h-1.101l-0.929-0.166h-1.297h-0.675h-0.337h-0.479l-0.17-0.165
		l-0.111-0.907l-0.118-0.707v-1.456l-0.193-1.016v-1.829l-0.11-3.152l-0.17-3.038v-2.226l-0.107-2.028v-2.862l0.164-2.088v-2.031
		v-3.628l0.168-2.594l-0.141-3.574v-2.503l-0.171-3.041v-2.282v-3.382l-0.136-5.295v-5.154l-0.114-5.884v-3.435v-5.123l0.114-3.523
		l0.17-2.522v-2.988l0.164-3.914h1.805l0.646-0.164h0.646l1.571-0.231h2.035h1.857l0.195,0.477l-0.113,0.424v0.514l0.168,1.064
		v0.818v1.013v0.903l-0.195,1.996v2.338l-0.225,1.939v2.026l-0.164,4.057l-0.23,3.437l0.111,3.521l0.168,3.297l-0.135,3.74v4.579
		l0.192,5.185l0.196,3.643l0.281,3.709v2.566l0.141,2.251l0.146,3.581v8.072l0.142,3.527l0.219,4.658l0.135,7.792l0.361,1.028V399z
		 M238.71,367.823v3.805v2.7l-0.148,1.665v1.241l-0.162,1.597v1.155v0.824v1.629v1.342v1.055v1.064l-0.141,0.934v1.318v1.458
		l-0.17,1.214v2.419l-0.17,0.877v1.266l-0.197,0.562v0.391l0.143,0.567l0.111,0.729l-0.144,0.876l-0.11,0.513l-0.194,0.189
		l-1.271,0.169l-0.758-0.142h-0.82l-0.924,0.142l-0.618-0.169l0.223-0.42l0.281-0.62l0.422-0.424l0.646-0.652l0.89-0.879l0.63-0.633
		v-0.45l-0.07-0.521l-0.549-0.551l-0.588-0.593l-0.647-0.637l-0.89-1.178l0.611-0.598l0.434-0.445l0.631-0.629l0.312-0.313
		l0.203-0.213l0.44-0.428l0.396-0.618v-0.595l-0.173-0.567l-0.91-0.906l-1.035-1.032l-0.516-0.631l-0.088-0.773l0.372-0.688
		l0.476-0.485l0.241-0.237l0.478-0.487l0.424-0.831l0.447-0.462l0.449-0.836v-0.371l-0.303-0.303l-0.387-0.38l-0.312-0.312
		l-0.455-0.462l-0.188-0.473l-0.354-0.344v-0.25l0.367-0.736l0.735-1.178l0.703-1.526l0.228-0.93v-0.394l-0.712-1.237l-0.729-1.01
		l-0.892-1.201l-0.458-0.472v-0.416l0.196-0.507l0.339-0.683l0.624-1.005l0.528-1.054l0.156-0.44v-0.506v-0.472l-0.395-0.391
		l-0.914-0.917l-1.072-1.067l-0.419-0.65l0.11-0.616l0.619-0.622l0.957-1.354l0.678-1.206l0.34-0.645v-0.458l-0.083-0.62
		l-0.62-0.611l-0.492-0.496l-0.61-0.611l-0.479-0.476l-0.248-0.592l0.17-0.475l0.358-0.76l0.729-1.123l0.826-1.217l0.307-0.756
		v-0.707l-0.391-1.182l-0.334-0.674l-0.77-1.127l-0.506-0.787l-0.451-0.82l-0.168-0.587l0.199-0.593l0.277-0.538l0.82-1.287
		l0.784-1.249l0.368-0.478v-0.339l-0.449-0.815l-0.423-0.937l-0.647-0.952l-0.762-1.069l-0.254-0.756l0.314-0.763l0.559-1.067
		l0.624-1.071l0.483-0.813l0.219-0.484v-0.336l-0.113-0.479l-0.79-1.073l-0.869-1.179v-0.421l0.165-0.674l0.791-0.795l0.426-0.838
		l0.641-0.987l0.201-0.593v-0.502l-1.594-2.244l-2.008-2.002l0.161-0.178h0.396h1.351l0.958,0.204l1.324,0.164h1.916v2.339
		l0.143,1.575v1.042l0.141,1.431v1.098l0.228,1.245l-0.141,2.088l0.216,2.751v2.112v0.682v3.432v2.137l-0.162,1.41v1.58l0.197,1.32
		v3.881v2.174v3.684v2.256v2.085l0.137,1.343v3.696v1.489l0.143,1.744L238.71,367.823z M243.014,339.332
		c0,0,0.666-0.218,0.798-0.354c0.137-0.131,1.289,0,1.289,0l1.248-0.224h1.737l1.382-0.173h1.111h1.518l1.335-0.27h1.417
		l1.162,0.355h1.467l0.846,0.311h1.295h0.846l0.93,0.221l1.029,0.312l1.829,0.312h0.843l1.048,0.289l0.335,0.332l0.482,0.492
		l0.225,0.674l-0.242,0.688l-1.225,1.225l-1.873,0.754l-2,0.362l-3.074,0.258l-2.404,0.402l-2.805,0.397h-2.359l-1.695,0.229h-2.092
		l-1.73,0.221l-0.717,0.248h-1.536l-0.196-0.205v-0.439v-2.404L243.014,339.332z M243.183,349.306h0.94l1.999-0.221h3.523
		l3.076-0.221h3.023l4.01-0.404l2.4-0.483l1.205-0.312l2.848-0.938l1.893-1.316l1.002-1.005l0.442-0.841v-1.25l-0.175-1.067
		l-0.474-1.761l-0.421-0.422l-0.291-0.282l-0.91-0.925l-2.582-1.189l-1.736-0.315l-2.358-0.181l-1.021-0.271h-1.253l-1.555-0.311
		h-3.073l-4.674,0.229l-6.233,0.394v-2.892l3.073-0.262l3.513-0.316h2.807l2.893,0.219l4.145,0.316l2.401,0.494l2.052,0.436
		l1.153,0.229h0.8l1.299,0.399l1.689,0.576l1.783,1.023l1.557,1.561l1.422,2.323v2.083l-0.844,2.678l-1.383,1.957l-2.045,1.472
		l-2.044,1.2l-1.124,0.4l-2.133,0.576l-3.115,0.445h-2.228h-0.981h-1.865h-4.186l-1.92,0.289h-3.247h-0.85h-2.022l-0.205-0.199
		V349.306z M243.32,362.167v-1.818l2.269-0.316l2.186,0.23l2.982-0.183l2.805-0.173h4.143h4.003l1.872-0.319l1.068-0.218
		l2.275-0.532l3.473-0.983l2.445-0.936l3.295-1.912l2.763-1.959l1.868-2.268l1.34-2.857l0.752-1.505l0.669-1.381l0.667-2.942
		l-0.31-2.143l-0.53-2.891l-2.246-5.424l-4.17-4.369l-2.58-1.78l-3.566-1.25l-5.168-0.532l-2.087,0.311h-4.183l-3.524-0.355
		c0,0-2.175-0.356-2.539-0.356c-0.351,0-5.964,0-5.964,0h-1.738l-3.023,0.221v-2.532l2.177-0.191l1.43-0.35h1.38h4.675l1.876-0.221
		l3.111-0.451l3.473-0.442l2.582,0.224l1.648,0.219l2.627,0.672l2.23,0.488l1.601,0.455l1.509,0.22l2.853,0.618l2.405,0.664
		l2.582,1.436l1.4,1.488l1.092,1.09l0.979,1.424l0.621,1.512l1.383,2.454l0.977,2.399l1.031,3.39l0.351,3.2l-0.307,2.231
		l-0.579,2.043l-0.402,2.358l-1.381,2.055l-2.584,3.018l-3.025,2.502l-2.762,1.468l-4.23,2.448l-2.355,0.896l-3.035,0.7
		l-1.559,0.546l-2.977,0.303h-3.206l-2.45,0.309l-3.385,0.632l-3.029,0.224h-1.916l-1.288-0.317h-1.159l-1.517-0.219h-1.2h-0.576
		L243.32,362.167z M244.616,366.805l-1.029-0.177v-0.588v-0.477l1.876-0.313h1.778l2.629-0.63h3.47l3.92-0.795l2.667-0.489
		l1.292-0.232l5.741-0.532l3.298-0.404l1.782-0.564l2.493-0.991l3.517-1.465l1.653-0.891l3.268-1.577l1.042-1.054l1.408-1.622
		l1.001-1.008l1.157-1.82l1.16-2.268l0.891-2.629l0.444-2.404l-0.048-2.842v-1.789l-0.396-2.441l-0.406-1.648l-0.396-1.971
		l-0.577-2.22l-0.804-1.959l-0.449-0.792l-0.863-1.057l-1.136-1.143l-0.935-0.927l-0.802-0.808l-1.298-0.838l-1.152-1.162
		l-2.581-1.156l-1.475-0.361l-1.374-0.529l-1.272-0.32l-2.202-0.172h-1.785l-2.091-0.262l-1.511-0.313l-2.408-0.803l-1.217-0.579
		l-1.318-0.221h-2.045h-1.514l-2.899,0.221l-4.052,0.219l-3.025,0.275l-2.231,0.174h-0.886h-1.428h-1.195v-1.244v-1.247l3.108-0.131
		l2.454-0.178h2.758l2.669-0.272h2.938h2.765l2.852,0.272l2.979,0.178l2.984,0.262l1.653,0.404h1.285l0.711,0.181l1.649,0.398
		l1.56,0.441l2.227,0.268l2.205,0.648l1.713,1.047l2.666,1.283l2.746,1.897l1.002,1.003l1.865,2.451l3.248,5.746l1.207,4.537
		l0.625,5.344l-0.4,2.845l-0.621,1.739l-1.028,2.719l-0.534,1.866l-1.424,2.13l-2.895,3.569l-3.384,2.939l-3.258,1.556l-2.751,1.204
		l-2.942,0.934l-1.517,0.492l-2.086,0.621l-2.365,0.674h-1.955h-1.831l-2.09,0.223l-2.718,0.218L257.081,366l-3.963,0.447
		l-4.943,0.357H244.616z M272.169,399.131c0,0-0.816,0.15-0.979,0c-0.15-0.159-0.841-0.159-0.841-0.159h-1.024h-0.445l-0.712-0.776
		l-1.335-1.597l-0.898-0.894l-0.349-0.357l-0.38-0.376l-1.023-1.032l-1.227-1.708l-1.249-1.697l-0.554-0.551l-0.381-0.373
		l-0.219-0.355l-0.443-0.449l-0.449-0.795l-0.797-1.393l-0.802-0.795l-0.717-0.714l-0.44-1.203l-0.492-0.978l-0.782-0.778
		l-0.909-1.223l-1.066-1.516l-0.449-0.985l-0.979-1.378l-0.491-0.482l-0.382-0.391l-0.636-0.637l-0.715-1.384l-0.827-0.823
		l-0.42-0.821l-0.315-0.312l-0.553-0.562l-0.646-0.777h1.468h0.798l1.299-0.227h0.885h0.312l0.267,0.271l0.958,0.961l1.047,0.995
		l0.957,0.964l0.74,1.267l1.154,1.603l1.379,2.011l1.156,1.823l1.249,2.043l0.644,0.649l1.093,1.978l1.69,2.767l0.891,1.506
		l1.092,1.09l0.78,1.674l0.755,1.251l1.042,1.041l0.878,1.488l1.039,1.05l0.377,0.382l0.312,0.306l0.404,0.762l0.378,0.378
		L272.169,399.131z M279.63,399.424l-0.122,0.119h-0.904h-0.983l-1.549-0.161h-1.088l-0.55-0.543l-0.44-0.795l-0.688-0.693
		l-0.4-0.785v-0.276l-0.354-0.36l-0.265-0.262l-0.37-0.369l-0.346-0.735l-0.953-0.951l-0.074-0.695l-0.384-0.401l-0.354-0.737
		l-0.425-0.423l-0.156-0.159l-0.404-0.683l-0.564-0.563l-0.245-0.669l-1.024-1.48l-0.912-0.922l-0.392-0.73l-0.772-1.089
		l-0.668-0.99l-0.688-0.688v-0.335l-0.938-1.27l-0.912-0.92l-0.838-0.843l-0.358-0.916l-0.581-0.577l-0.369-0.824l-0.408-0.406
		l-0.598-0.607l-0.243-0.245l-0.141-0.14l-0.333-0.754l-0.39-0.391l-0.425-0.419l-0.301-0.294l-0.33-0.652l-0.23-0.236l-0.281-0.287
		l-0.671-0.668l-0.231-0.54l-0.227-0.228l-0.314-0.318l-0.427-0.423l-0.294-0.44h0.278l1.164-0.141h0.562h1.02l0.849,1.229
		l0.633,0.634l0.493,0.882l1.09,1.627l0.671,0.665l0.311,0.74l0.393,0.527l0.914,1.233l1.635,1.636l0.831,1.323l1.003,1.004
		l0.585,0.894l0.173,0.183l0.229,0.227l0.232,0.227l0.495,0.491l0.951,1.267l1.031,1.048l0.726,1.078l0.562,0.562l0.6,0.634
		l0.335,0.33l0.28,0.279l0.369,0.364l0.18,0.464l0.298,0.296l0.192,0.193v0.204l0.669,0.396l0.441,0.44l0.472,0.791l0.215,0.541
		l0.604,0.593l1.015,1.365l0.711,0.711l0.647,0.645l0.436,0.867l0.656,0.652l0.546,0.891l0.423,0.428V399.424z M301.262,399.24
		h-3.244l-1.127-1.118l-0.369-0.689l-0.755-0.756l-0.355-0.669l-0.727-0.723l-0.998-1.005l-0.898-0.581l-1.129-1.124l-0.682-0.69
		l-0.92-0.914l-0.619-0.345l-0.646-0.643l-0.264-0.264l-0.301-0.303l-0.478-0.47l-0.581-0.584l-0.377-0.854l-0.42-0.418
		l-0.521-0.522l-0.191-0.705l-0.142-0.704l-0.241-0.742l-0.295-0.952l-0.488-0.493l-0.367-0.76l-0.688-0.683l-0.953-1.405
		l-0.842-0.529l-0.58-0.591l-0.619-0.611l-0.916-0.913l-0.317-0.32l-0.267-0.262l-0.644-0.65l-0.516-0.193l-0.352-0.352
		l-0.687-0.688l-0.564-0.281l-0.173-0.53l-0.743-0.736l-1.237-1.231l-0.997-0.693l-0.604-0.6l-0.333-0.334v-0.248l-0.318-0.311
		l-0.36-0.428v-0.283v-0.294l0.222-0.222h0.35l0.776-0.227l0.64-0.138h0.345l0.352,0.777l0.461,0.452l0.177,0.185l0.192,0.182
		l0.229,0.24l0.495,0.489l0.372,0.676l0.528,0.535l0.322,0.317l0.3,0.301l1.25,1.249l0.289,0.298l0.587,0.59l0.583,0.573
		l1.047,1.054l1.146,1.192l0.479,0.475l0.703,0.702l1.058,1.061l0.577,0.793l1.076,1.074l0.388,0.737l0.742,1.054l0.311,0.844
		l0.764,0.771l1.176,1.169l0.421,0.848l0.5,0.49l0.651,0.653l1.107,1.107l1.127,1.127l1.236,0.918l0.631,0.634l0.824,1.141
		l1.252,1.249l0.688,0.688l1.107,1.113l0.213,0.596l2.151,2.152V399.24z"/>
	<polygon fill="#006738" points="224.132,316.945 223.898,316.701 223.626,316.701 223.476,317.177 223.476,318.345 
		223.339,319.464 223.339,320.359 223.207,321.056 223.207,321.688 223.207,322.379 223.207,323.305 223.101,324.071 
		223.101,324.921 223.101,325.774 222.97,326.274 222.97,326.806 223.101,327.336 223.101,327.92 223.207,328.396 223.406,328.594 
		223.841,328.718 224.36,328.192 225.382,326.962 226.389,325.562 227.29,324.048 227.804,323.525 228.011,323.121 228.011,322.749 
		228.011,322.461 227.29,321.263 226.861,320.813 226.604,320.308 226.253,319.966 225.976,319.685 225.832,319.196 
		225.464,318.822 224.466,317.828 	"/>
	<polygon fill="#006738" points="227.29,330.603 227.089,330.398 226.882,330.188 226.547,330.491 226.253,330.778 225.897,331.141 
		225.753,331.285 225.62,331.414 225.382,331.654 225.113,331.654 224.892,332.05 224.724,332.05 224.546,332.232 224.239,332.59 
		223.974,333.063 223.726,333.313 223.476,333.573 222.994,333.938 222.729,334.206 222.729,334.495 223.019,334.735 
		223.339,334.735 223.742,334.544 224.347,333.938 225.169,333.116 225.882,332.405 226.425,331.858 226.591,331.694 
		226.665,331.621 227.062,331.226 227.29,330.994 227.29,330.778 	"/>
	<path fill="#006738" d="M227.845,336.485v-0.295l-0.233-0.529h-0.216h-0.29l-0.478,0.212l-0.213,0.188l-0.422,0.424l-1.035,1.032
		l-0.215,0.207l-0.188,0.183c0,0-0.455,0.202-0.581,0.324c-0.118,0.124-0.262,0.266-0.262,0.266l-0.163,0.154l-0.342,0.269
		l-0.501,0.103v0.296v0.503l0.633,1.033l0.449,0.451l0.289,0.66l0.589,0.582l0.292,0.295l0.13,0.584l0.319,0.213l0.228,0.227
		l0.241,0.237l0.246,0.254l0.279,0.28l0.387,0.32h0.342l0.227-0.216l0.225-0.596v-0.982l0.136-3.234v-1.858l0.235-0.762v-0.482
		L227.845,336.485z"/>
	<polygon fill="#006738" points="224.109,345.151 223.882,344.927 223.446,344.927 223.254,344.737 223.09,344.896 222.917,345.073 
		222.917,345.285 223.207,345.571 223.207,345.79 223.485,346.062 223.79,346.372 224.004,346.585 224.255,346.833 224.623,347.204 
		225.065,347.649 225.62,347.96 225.993,348.332 226.547,348.542 226.882,348.874 227.29,348.679 227.29,348.282 227.29,347.96 
		226.334,347.218 225.846,346.728 225.284,346.172 224.64,345.79 	"/>
	<polygon fill="#006738" points="225.696,349.771 225.37,349.429 225.113,349.183 224.481,348.763 224.012,348.294 223.8,348.081 
		223.592,347.87 223.155,347.96 222.97,348.148 222.97,348.358 222.97,348.618 223.155,348.806 223.155,349.019 223.485,349.354 
		223.697,349.567 223.898,349.759 224.16,349.759 224.312,349.915 224.51,350.11 224.773,350.373 225.157,350.757 225.521,351.132 
		225.832,351.429 226.122,351.724 226.401,352.002 226.731,352.106 227.105,352.229 227.505,352.229 227.741,351.997 
		227.741,351.645 227.435,351.342 227.089,351.004 226.788,350.69 226.253,350.19 226.021,349.944 	"/>
	<polygon fill="#006738" points="223.626,351.938 223.421,351.938 223.155,351.938 223.155,352.387 222.97,352.995 222.97,353.446 
		222.97,354.293 223.128,355.038 223.128,355.411 223.128,355.892 223.019,356.288 223.019,356.761 223.019,357.188 
		223.019,358.093 223.155,358.515 223.155,359.654 223.155,360.342 223.155,361.485 223.431,361.755 223.687,362.124 
		224.109,362.124 224.538,361.99 225.127,361.392 225.417,361.103 225.832,360.713 226.917,359.577 227.57,358.921 228.14,358.059 
		228.469,357.732 228.469,357.268 227.662,356.239 226.947,355.519 226.389,354.672 226.112,354.394 225.382,353.878 
		224.849,353.048 224.515,352.723 224.012,352.218 	"/>
	<polygon fill="#006738" points="227.29,362.989 227.117,362.82 226.837,362.82 226.519,362.82 226.319,363.027 225.78,363.292 
		225.649,363.634 225.382,363.895 224.999,364.28 224.729,364.548 224.397,364.878 224.239,365.25 224.034,365.459 223.697,365.792 
		223.368,366.123 223.09,366.403 223.128,366.729 223.299,366.903 223.485,367.089 223.79,367.089 224.261,366.62 224.856,366.021 
		225.382,365.69 225.832,365.25 226.253,364.825 226.614,364.468 226.987,364.086 227.294,363.792 227.294,363.368 	"/>
	<polygon fill="#006738" points="227.505,365.91 227.13,365.781 226.788,365.885 226.571,366.092 226.362,366.306 226.187,366.475 
		225.876,366.797 225.407,367.105 224.958,367.556 224.501,368 223.933,368.573 223.748,368.765 223.431,369.073 223.282,369.461 
		223.282,369.785 223.592,370.094 224.06,370.094 224.416,369.725 224.728,369.418 225.425,368.716 225.722,368.418 
		225.993,368.115 226.288,367.582 226.764,367.105 227.077,366.783 227.419,366.628 227.662,366.384 	"/>
	<path fill="#006738" d="M227.925,371.666l-0.263-0.265l-0.189-0.234l-0.525,0.213l-0.415,0.407l-0.17,0.172l-0.303,0.309
		l-0.323,0.315l-0.235,0.238l-0.543,0.549l-0.174,0.169l-0.145,0.146l-0.186,0.188l-0.302,0.303l-0.204,0.191l-0.422,0.564
		l-0.582,0.233l-0.159,0.216v0.321l0.132,0.449l0.229,0.226l0.223,0.277l0.235,0.24l0.196,0.191l0.244,0.242l0.143,0.355
		l0.242,0.246l0.659,0.604l0.294,0.291l0.639,0.402l0.512,0.514l0.494,0.066c0,0,0.051,0.2,0.195,0.2c0.149,0,0.403-0.26,0.403-0.26
		l0.284-0.277v-1.382l0.123-1.04v-1.93v-1.886l-0.131-1.008L227.925,371.666z"/>
	<polygon fill="#006738" points="224.187,380.578 223.841,380.45 223.675,380.621 223.446,380.849 223.476,381.187 223.592,381.308 
		223.974,381.639 224.121,381.788 224.392,382.05 224.724,382.38 225.139,382.483 225.396,382.737 225.521,382.87 225.993,383.095 
		226.163,383.466 226.71,383.735 226.974,384.005 227.222,384.25 227.419,384.446 227.845,384.367 228.071,384.146 228.071,383.911 
		227.813,383.66 227.589,383.434 227.402,383.25 227.166,383.013 226.974,383.013 226.549,382.591 226.033,382.068 225.808,381.846 
		225.306,381.583 224.784,381.067 224.515,380.811 	"/>
	<polygon fill="#006738" points="224.64,383.043 224.412,382.819 224.109,382.912 223.841,382.912 223.687,383.231 223.526,383.526 
		223.526,383.682 223.726,383.877 223.956,384.116 224.269,384.116 224.581,384.553 224.759,384.729 224.983,384.877 
		225.139,385.033 225.274,385.167 225.424,385.311 225.62,385.51 225.882,385.51 226.148,385.773 226.425,386.056 226.604,386.229 
		226.854,386.476 227.312,386.676 227.57,386.927 227.901,386.927 228.196,386.627 228.196,386.173 226.772,385.096 
		225.856,384.211 225.223,383.735 224.983,383.466 	"/>
	<polygon fill="#006738" points="224.958,386.856 224.773,386.676 224.294,386.646 223.925,386.646 223.626,386.938 
		223.626,387.123 223.626,388.07 223.498,389.01 223.498,390.042 223.604,391.286 223.604,392.422 223.498,393.775 223.498,394.838 
		223.498,395.367 223.656,396.139 223.925,396.403 224.16,396.616 224.64,396.48 225.037,396.091 225.993,395.13 226.495,394.359 
		227.222,393.631 227.688,392.929 228.298,392.314 228.797,391.578 228.986,391.144 228.986,390.669 228.826,390.202 
		228.48,389.697 228.011,389.407 226.71,388.455 226.228,387.983 225.274,387.261 	"/>
</g>
<rect x="332.184" y="314.298" fill="#808080" width="2.835" height="90.708"/>
<g>
	<path d="M405.845,328.241c0-8.356-6.461-13.756-16.461-13.756H369.97v44.853h6.666v-16.726h10.941l12.484,16.726h8.227
		l-13.461-17.905C401.757,339.689,405.845,334.841,405.845,328.241z M376.636,320.782h12.379c6.42,0,10.104,2.785,10.104,7.643
		c0,4.868-3.99,8.014-10.166,8.014h-12.316V320.782z"/>
	<path d="M427.202,325.062c-9.209,0-16.154,7.527-16.154,17.508s7.209,17.507,16.77,17.507c5.639,0,9.885-1.934,13.77-6.266
		l0.604-0.673l-4.277-3.832l-0.604,0.633c-2.779,2.911-5.668,4.21-9.369,4.21c-5.258,0-9.236-3.557-10.16-8.954h24.988l0.09-0.804
		c0.066-0.603,0.066-1.143,0.066-1.575C442.925,332.362,436.46,325.062,427.202,325.062z M436.21,339.882h-18.43
		c0.898-5.356,4.613-9.016,9.299-9.016C432.851,330.866,435.54,335.357,436.21,339.882z"/>
	<path d="M474.94,329.907c-3.119-3.217-6.984-4.846-11.518-4.846c-7.789,0-15.848,5.975-15.848,15.971
		c0,10.292,8.166,15.846,15.848,15.846c4.535,0,8.346-1.68,11.578-5.12v1.266c0,6.615-3.883,10.41-10.656,10.41
		c-4.23,0-8.168-1.309-11.705-3.885l-0.809-0.59l-3.076,5.273l0.684,0.477c4.379,3.045,9.414,4.59,14.967,4.59
		c10.693,0,17.078-6.131,17.078-16.398v-27.162h-6.543V329.907z M464.345,350.889c-5.76,0-10.104-4.29-10.104-9.979
		c0-5.805,4.154-9.857,10.104-9.857c5.299,0,10.779,3.709,10.779,9.918S469.644,350.889,464.345,350.889z"/>
	<path d="M506.774,325.062c-4.088,0-7.434,1.461-9.98,4.35v-3.673h-6.541v33.6h6.541v-19.106c0-5.332,3.549-9.057,8.629-9.057
		c5.014,0,7.889,3.166,7.889,8.688v19.475h6.543v-20.644C519.854,330.413,514.72,325.062,506.774,325.062z"/>
	<path d="M540.923,339.429l-0.121-0.036c-3.814-1.161-7.418-2.257-7.418-4.571v-0.123c0-2.219,2.107-3.709,5.246-3.709
		c2.783,0,6.035,1.068,8.918,2.931l0.783,0.505l3.082-5.107l-0.725-0.478c-3.467-2.288-7.928-3.655-11.936-3.655
		c-6.904,0-11.727,4.115-11.727,10.006v0.123c0,6.675,6.457,8.508,11.176,9.848c4.119,1.151,7.271,2.23,7.271,4.725v0.123
		c0,2.477-2.281,4.14-5.676,4.14c-3.463,0-7.082-1.341-10.465-3.878l-0.742-0.557l-3.426,4.83l0.658,0.534
		c3.711,3.006,8.971,4.875,13.729,4.875c7.309,0,12.219-4.193,12.219-10.435v-0.123
		C551.771,342.685,545.239,340.725,540.923,339.429z"/>
	<polygon points="589.603,325.738 581.165,325.738 565.298,342.288 565.298,312.641 558.757,312.641 558.757,359.338 
		565.298,359.338 565.298,350.504 570.765,344.985 581.782,359.338 589.704,359.338 575.302,340.368 	"/>
	<path d="M607.737,325.062c-9.816,0-17.506,7.717-17.506,17.568c0,9.783,7.635,17.446,17.383,17.446
		c9.852,0,17.568-7.717,17.568-17.569C625.183,332.726,617.521,325.062,607.737,325.062z M607.737,354.025
		c-6.078,0-10.84-5.06-10.84-11.519c0-6.638,4.508-11.455,10.717-11.455c6.115,0,10.904,5.086,10.904,11.578
		C618.519,349.126,613.884,354.025,607.737,354.025z"/>
	<path d="M657.444,329.906c-3.119-3.217-6.982-4.845-11.518-4.845c-7.789,0-15.846,5.975-15.846,15.971
		c0,10.292,8.164,15.846,15.846,15.846c4.537,0,8.346-1.68,11.58-5.12v1.266c0,6.615-3.885,10.41-10.658,10.41
		c-4.229,0-8.168-1.309-11.705-3.885l-0.809-0.59l-3.074,5.273l0.684,0.477c4.377,3.045,9.412,4.59,14.965,4.59
		c10.693,0,17.078-6.131,17.078-16.398v-27.162h-6.543V329.906z M646.849,350.889c-5.76,0-10.104-4.29-10.104-9.979
		c0-5.805,4.154-9.857,10.104-9.857c5.299,0,10.781,3.709,10.781,9.918S652.147,350.889,646.849,350.889z"/>
	<path d="M685.036,312.395c-6.67,0-10.496,4.207-10.496,11.542v1.863h-4.365v5.928h4.365v27.61h6.543v-27.61h10.023v-5.866h-10.086
		v-1.679c0-5.194,2.475-5.86,4.631-5.86c1.43,0,2.59,0.257,4.363,0.765l1.152,0.329v-5.954l-0.598-0.215
		C688.886,312.642,687.284,312.395,685.036,312.395z"/>
	<path d="M710.247,325.062c-9.816,0-17.506,7.717-17.506,17.568c0,9.783,7.635,17.446,17.383,17.446
		c9.852,0,17.568-7.717,17.568-17.569C727.692,332.726,720.03,325.062,710.247,325.062z M710.247,354.025
		c-6.078,0-10.84-5.06-10.84-11.519c0-6.638,4.508-11.455,10.717-11.455c6.115,0,10.904,5.086,10.904,11.578
		C721.028,349.126,716.394,354.025,710.247,354.025z"/>
	<path d="M750.956,325.062c-4.088,0-7.434,1.461-9.979,4.35v-3.673h-6.543v33.6h6.543v-19.106c0-5.332,3.547-9.057,8.627-9.057
		c5.014,0,7.891,3.166,7.891,8.688v19.475h6.541v-20.644C764.036,330.413,758.901,325.062,750.956,325.062z"/>
	<path d="M797.835,330.124c-3.037-3.361-6.818-5.062-11.271-5.062c-7.801,0-16.092,6.137-16.092,17.508
		c0,11.331,8.291,17.444,16.092,17.444c4.467,0,8.176-1.74,11.271-5.307v4.631h6.543v-46.697h-6.543V330.124z M798.021,342.507
		c0,7.172-5.389,11.457-10.598,11.457c-5.111,0-10.287-3.936-10.287-11.457c0-6.709,4.23-11.395,10.287-11.395
		C792.632,331.112,798.021,335.375,798.021,342.507z"/>
	<path d="M827.333,325.062c-9.209,0-16.152,7.527-16.152,17.508s7.209,17.507,16.768,17.507c5.639,0,9.887-1.934,13.771-6.266
		l0.604-0.673l-4.277-3.832l-0.604,0.633c-2.781,2.911-5.67,4.21-9.371,4.21c-5.256,0-9.234-3.557-10.158-8.954h24.986l0.09-0.803
		c0.068-0.604,0.068-1.143,0.068-1.576C843.058,332.362,836.591,325.062,827.333,325.062z M836.343,339.882h-18.432
		c0.898-5.356,4.615-9.016,9.299-9.016C832.983,330.866,835.673,335.357,836.343,339.882z"/>
	<path d="M867.839,331.728v-5.989h-10.084v-9.593h-6.543v9.593h-4.426v5.989h4.426v18.281c0,6.28,3.602,9.882,9.881,9.882
		c2.273,0,4.223-0.461,6.135-1.455l0.488-0.252v-6.047l-1.297,0.625c-1.5,0.723-2.723,1.018-4.219,1.018
		c-3.074,0-4.445-1.352-4.445-4.384v-17.668H867.839z"/>
</g>
<g>
	<path fill="#141414" d="M370.072,386.695h8.112c2.288,0,4.083,0.678,5.252,1.82c0.962,0.988,1.508,2.34,1.508,3.928v0.051
		c0,2.99-1.794,4.785-4.342,5.512l4.914,6.891h-3.77l-4.472-6.344h-4.004v6.344h-3.198V386.695z M377.951,395.719
		c2.288,0,3.744-1.195,3.744-3.043v-0.051c0-1.951-1.404-3.018-3.77-3.018h-4.654v6.111H377.951z"/>
	<path fill="#141414" d="M395.318,386.566h2.964l8.008,18.33h-3.38l-1.846-4.395h-8.606l-1.872,4.395h-3.276L395.318,386.566z
		 M399.895,397.668l-3.146-7.279l-3.12,7.279H399.895z"/>
	<path fill="#141414" d="M409.592,386.695h3.198v18.201h-3.198V386.695z"/>
	<path fill="#141414" d="M417.651,386.695h2.964l9.75,12.586v-12.586h3.146v18.201h-2.678l-10.036-12.947v12.947h-3.146V386.695z"/>
	<path fill="#141414" d="M438.191,386.695h13.547v2.912H441.39v4.967h9.179v2.912h-9.179v7.41h-3.198V386.695z"/>
	<path fill="#141414" d="M454.286,395.848v-0.051c0-5.123,3.952-9.412,9.542-9.412c5.59,0,9.49,4.238,9.49,9.359v0.053
		c0,5.121-3.952,9.412-9.542,9.412S454.286,400.971,454.286,395.848z M469.964,395.848v-0.051c0-3.537-2.574-6.475-6.188-6.475
		s-6.136,2.887-6.136,6.422v0.053c0,3.535,2.574,6.475,6.188,6.475C467.442,402.271,469.964,399.385,469.964,395.848z"/>
	<path fill="#141414" d="M477.191,386.695h8.112c2.288,0,4.082,0.678,5.252,1.82c0.962,0.988,1.508,2.34,1.508,3.928v0.051
		c0,2.99-1.794,4.785-4.342,5.512l4.914,6.891h-3.77l-4.472-6.344h-4.004v6.344h-3.198V386.695z M485.069,395.719
		c2.288,0,3.744-1.195,3.744-3.043v-0.051c0-1.951-1.404-3.018-3.77-3.018h-4.654v6.111H485.069z"/>
	<path fill="#141414" d="M495.989,386.695h13.494v2.861h-10.296v4.732h9.126v2.859h-9.126v4.889h10.426v2.859h-13.624V386.695z"/>
	<path fill="#141414" d="M512.187,402.244l1.924-2.287c1.742,1.508,3.484,2.365,5.746,2.365c1.976,0,3.224-0.91,3.224-2.287v-0.053
		c0-1.299-0.728-2.002-4.108-2.781c-3.873-0.938-6.058-2.08-6.058-5.436v-0.051c0-3.121,2.601-5.279,6.214-5.279
		c2.652,0,4.759,0.807,6.604,2.289l-1.716,2.418c-1.639-1.223-3.276-1.873-4.94-1.873c-1.872,0-2.964,0.963-2.964,2.158v0.053
		c0,1.404,0.832,2.027,4.316,2.859c3.848,0.938,5.85,2.314,5.85,5.33v0.053c0,3.406-2.678,5.434-6.5,5.434
		C516.997,405.156,514.371,404.195,512.187,402.244z"/>
	<path fill="#141414" d="M534.132,389.66h-5.772v-2.965h14.769v2.965h-5.772v15.236h-3.224V389.66z"/>
	<path fill="#141414" d="M554.307,386.695h13.547v2.912h-10.349v4.967h9.179v2.912h-9.179v7.41h-3.198V386.695z"/>
	<path fill="#141414" d="M570.4,395.848v-0.051c0-5.123,3.952-9.412,9.542-9.412c5.591,0,9.49,4.238,9.49,9.359v0.053
		c0,5.121-3.952,9.412-9.542,9.412S570.4,400.971,570.4,395.848z M586.079,395.848v-0.051c0-3.537-2.574-6.475-6.188-6.475
		s-6.136,2.887-6.136,6.422v0.053c0,3.535,2.573,6.475,6.188,6.475S586.079,399.385,586.079,395.848z"/>
	<path fill="#141414" d="M593.02,397.174v-10.479h3.198v10.35c0,3.379,1.742,5.199,4.603,5.199c2.834,0,4.576-1.715,4.576-5.07
		v-10.479h3.198v10.324c0,5.434-3.068,8.164-7.826,8.164C596.036,405.184,593.02,402.453,593.02,397.174z"/>
	<path fill="#141414" d="M612.987,386.695h2.965l9.75,12.586v-12.586h3.146v18.201h-2.679l-10.036-12.947v12.947h-3.146V386.695z"/>
	<path fill="#141414" d="M633.527,386.695h6.786c5.721,0,9.673,3.928,9.673,9.049v0.053c0,5.121-3.952,9.1-9.673,9.1h-6.786V386.695
		z M640.313,401.984c3.822,0,6.318-2.574,6.318-6.137v-0.051c0-3.562-2.496-6.189-6.318-6.189h-3.588v12.377H640.313z"/>
	<path fill="#141414" d="M659.06,386.566h2.965l8.008,18.33h-3.38l-1.847-4.395H656.2l-1.873,4.395h-3.275L659.06,386.566z
		 M663.636,397.668l-3.146-7.279l-3.12,7.279H663.636z"/>
	<path fill="#141414" d="M675.284,389.66h-5.772v-2.965h14.769v2.965h-5.772v15.236h-3.224V389.66z"/>
	<path fill="#141414" d="M687.842,386.695h3.198v18.201h-3.198V386.695z"/>
	<path fill="#141414" d="M695.096,395.848v-0.051c0-5.123,3.952-9.412,9.542-9.412c5.591,0,9.49,4.238,9.49,9.359v0.053
		c0,5.121-3.952,9.412-9.542,9.412S695.096,400.971,695.096,395.848z M710.774,395.848v-0.051c0-3.537-2.574-6.475-6.188-6.475
		s-6.136,2.887-6.136,6.422v0.053c0,3.535,2.573,6.475,6.188,6.475S710.774,399.385,710.774,395.848z"/>
	<path fill="#141414" d="M718.001,386.695h2.965l9.75,12.586v-12.586h3.146v18.201h-2.679l-10.036-12.947v12.947h-3.146V386.695z"/>
	<path fill="#141414" d="M746.34,386.695h2.964l9.751,12.586v-12.586h3.146v18.201h-2.678l-10.036-12.947v12.947h-3.146V386.695z"/>
	<path fill="#141414" d="M766.074,395.848v-0.051c0-5.123,3.952-9.412,9.542-9.412c5.591,0,9.49,4.238,9.49,9.359v0.053
		c0,5.121-3.952,9.412-9.542,9.412S766.074,400.971,766.074,395.848z M781.753,395.848v-0.051c0-3.537-2.574-6.475-6.188-6.475
		s-6.136,2.887-6.136,6.422v0.053c0,3.535,2.573,6.475,6.188,6.475S781.753,399.385,781.753,395.848z"/>
	<path fill="#141414" d="M788.979,386.695h8.112c2.288,0,4.082,0.678,5.253,1.82c0.962,0.988,1.508,2.34,1.508,3.928v0.051
		c0,2.99-1.794,4.785-4.343,5.512l4.915,6.891h-3.771l-4.473-6.344h-4.004v6.344h-3.198V386.695z M796.858,395.719
		c2.288,0,3.744-1.195,3.744-3.043v-0.051c0-1.951-1.404-3.018-3.771-3.018h-4.654v6.111H796.858z"/>
	<path fill="#141414" d="M805.983,386.695h3.459l4.342,13.496l4.473-13.547h2.703l4.473,13.547l4.342-13.496h3.354l-6.345,18.332
		h-2.756l-4.472-13.078l-4.473,13.078h-2.756L805.983,386.695z"/>
	<path fill="#141414" d="M840.512,386.566h2.964l8.009,18.33h-3.38l-1.847-4.395h-8.606l-1.871,4.395h-3.276L840.512,386.566z
		 M845.088,397.668l-3.146-7.279l-3.12,7.279H845.088z"/>
	<path fill="#141414" d="M857.101,397.721l-7.229-11.025h3.771l5.096,8.061l5.148-8.061h3.666l-7.228,10.947v7.254h-3.225V397.721z"
		/>
</g>
</svg>
