<?xml version="1.0" encoding="utf-8"?>
<!-- Generator: Adobe Illustrator 16.0.0, SVG Export Plug-In . SVG Version: 6.00 Build 0)  -->
<!DOCTYPE svg PUBLIC "-//W3C//DTD SVG 1.1//EN" "http://www.w3.org/Graphics/SVG/1.1/DTD/svg11.dtd">
<svg version="1.1" id="Layer_1" xmlns="http://www.w3.org/2000/svg" xmlns:xlink="http://www.w3.org/1999/xlink" x="0px" y="0px"
	 width="1024px" height="204px" viewBox="0 238.5 1024 204" enable-background="new 0 238.5 1024 204" xml:space="preserve">
<g>
	<g>
		<path fill="#FFFFFF" d="M169.105,399.805l-1.986-3.023l-0.993-0.984l-2.339-2.349l-2.088-2.075l-1.709-1.716l-1.729-1.729
			l-1.673-1.662l-2.489-2.71l-1.355-1.339l-1.262-1.266l-2.078-1.04l-1.458-1.462l-1.256-1.765l-1.617-1.609l-1.812-2.563
			l-1.983-2.918l-3.335-3.33l-1.256-2.189l-2.498-2.506l-2.608-1.782l-2.602-2.607l-3.338-3.334l-1.565-1.566l-3.021-3.015v-1.249
			l4.792-1.669l3.445-1.985l4.174-2.918l2.234-2.236l3.182-3.175l3.335-4.791l2.602-4.069l1.671-3.765l2.389-6.152l1.152-6.136
			v-6.574l-1.041-6.657l-2.499-6.571l-1.777-4.167l-3.022-4.185l-3.646-3.634l-3.234-3.233l-1.555-1.576l-3.654-1.652l-2.29-1.453
			l-3.438-1.779l-4.277-0.945l-4.174-0.933l-4.474-0.629l-4.236-0.507l-8.383-0.212H84.889h-9.069h-8.96l-9.793,0.613h-6.987
			l-7.187,0.523h-6.773l-5.948,1.046h-5.309l-1.979,0.736l-1.391,0.196l-0.695,1.569l-0.526,3.428l0.416,2.09v2.294v3.432v6.265
			l-0.52,3.02v5.739l0.52,3.448l-0.52,3.012l0.52,6.981l-0.416,4.585v2.822v2.804l0.416,3.236l-0.416,3.225v3.548l0.416,7.297v5.729
			v6.875v3.145v4.068l0.422,5.094v3.958v5.017v7.08v7.184v4.27l0.724,5.219v3.956v1.152l0.992,0.993l2.758,0.358h2.818h4.697
			l12.921,0.416h6.883l11.468-0.416h3.641l0.938-0.94l0.632-7.385v-13.237l0.512-10.63v-10.961v-4.372l0.631,0.631l2.399,3.332
			l3.228,3.235l2.498,4.788l4.069,6.472l3.229,5.206l3.857,5.309l3.855,5.213l3.549,4.797l2.859,2.874l3.702,3.695l1.57,0.419h2.604
			l5.624,0.615l8.746,0.53l7.303,0.623h7.294l5.519,0.406l8.971,0.425h6.566l5.739-0.425h4.785l1.569-0.734v-1.343L169.105,399.805z
			 M31.151,395.396h-3.408l-0.216-0.206l-0.338-2.146l-0.374-2.813v-4.093l-0.462-6.105l-0.217-4.333l-0.333-5.753l-0.254-5.604
			v-5.819v-7.553v-5.082v-9.276v-4.326v-5.357l0.168-7.362v-5.06l0.039-9.009v-6.235v-5.477l0.258-4.496l0.457-7.125l1.054-9.299
			l0.565,0.298l0.658,1.38l0.504,0.52l0.569,0.558l0.797,0.805l0.908,0.901l0.757,1.264l0.339,1.477l-0.417,1.22l-0.643,1.221
			l-0.924,1.522l-0.277,0.651l-0.523,0.521l-0.292,0.723l-0.799,1.257l-0.172,0.673v0.629v0.464l0.659,1.03l0.648,0.653l0.688,1.283
			l0.489,0.494l0.358,0.733l0.948,0.948v0.67l0.085,0.924l-0.823,0.822l-0.859,0.876l-0.38,0.37l-0.586,0.973l-0.508,0.662v0.602
			l0.332,1.039l0.576,0.984l0.947,1.596l0.92,1.464l0.511,1.057v1.094l-0.441,0.902l-0.44,0.449l-0.806,0.796l-1.683,1.683
			l-0.381,1.057v0.835l0.466,1.475l0.635,1.049l0.666,1.142l0.802,1.61l0.635,1.044l-0.297,0.84l-0.614,1.037l-0.767,0.781
			l-0.729,1.223l-0.756,1.208l-0.462,0.888v0.808l0.249,0.793l0.892,1.399l0.54,0.919l0.618,1.139l0.571,1.519l0.375,0.881
			l0.51,1.389v0.63l-0.533,0.537l-0.822,0.812l-1.645,1.653v0.59l0.386,1.512l0.689,1.149l0.297,0.307l0.384,0.373l0.525,0.53
			l0.565,1.078l0.782,0.767v0.497l-0.302,0.638l-1.801,2.573l-2.335,3.169v0.859l0.458,1.052l0.752,1.564l0.472,0.459l0.685,0.693
			l0.514,0.979l0.374,1.006l0.26,0.659l0.417,0.717v0.421v0.796l-0.417,0.428l-0.304,0.714l-0.33,0.678l-0.808,1.392l-0.542,1.339
			l-0.589,1.389v0.716v0.349l0.383,0.367l0.678,1.177l0.24,0.255l1.271,1.265l1.174,1.598v0.585l-0.211,0.605l-0.343,0.872
			l-0.881,0.896l-0.441,0.86l-0.528,0.524l-0.349,0.772l-0.741,0.742v0.5l0.21,0.631l0.713,1.266l1.312,2.198l0.84,1.375v0.689
			v0.622l-0.581,0.554l-0.414,0.435l-0.822,0.814l-0.876,1.229l-0.806,0.801v0.327v0.555l0.465,0.975l0.724,1.171l2.855,3.616
			h-2.018V395.396z M51.761,395.923l-0.28,0.271h-0.966h-1.179h-2.738l-1.382-0.209H43.57l-1.39-0.248H40.24h-1.01h-0.504H38.01
			l-0.254-0.247l-0.166-1.356l-0.176-1.058v-2.178l-0.289-1.519v-2.736l-0.165-4.714l-0.255-4.542v-3.33l-0.16-3.034v-4.279
			l0.245-3.123v-3.038v-5.426l0.251-3.879l-0.211-5.346v-3.743l-0.256-4.548v-3.414v-5.058l-0.203-7.919v-7.708l-0.171-8.8v-5.138
			v-7.662l0.171-5.269l0.254-3.772v-4.468l0.245-5.854h2.699l0.966-0.246h0.966l2.35-0.346h3.043h2.778l0.292,0.714l-0.169,0.634
			v0.769l0.251,1.592v1.223v1.516v1.35l-0.292,2.985v3.497l-0.336,2.9v3.031l-0.245,6.067l-0.345,5.14l0.167,5.267l0.251,4.931
			l-0.202,5.594v6.849l0.288,7.754l0.293,5.449l0.421,5.547v3.837l0.21,3.367l0.219,5.356v12.073l0.212,5.274l0.328,6.967
			l0.202,11.654l0.54,1.538v1.063H51.761z M62.901,349.294v5.69v4.039l-0.221,2.49v1.856l-0.242,2.388v1.728v1.231v2.438v2.007
			v1.577v1.592l-0.211,1.396v1.972v2.181l-0.254,1.815v3.618l-0.254,1.312v1.894l-0.294,0.841v0.584l0.214,0.849l0.166,1.09
			l-0.216,1.311l-0.164,0.768l-0.291,0.282l-1.901,0.253l-1.133-0.212h-1.226l-1.382,0.212l-0.924-0.253l0.333-0.628l0.42-0.928
			l0.631-0.634l0.966-0.976l1.332-1.314l0.942-0.946v-0.674l-0.104-0.778l-0.821-0.825l-0.879-0.887l-0.968-0.952l-1.331-1.762
			l0.914-0.895l0.648-0.665l0.944-0.94l0.467-0.469l0.303-0.318l0.659-0.64l0.592-0.924v-0.89l-0.259-0.849l-1.361-1.355
			l-1.548-1.544l-0.772-0.944l-0.131-1.155l0.556-1.029l0.712-0.725l0.36-0.355l0.715-0.729l0.634-1.243l0.669-0.691l0.671-1.25
			v-0.555l-0.453-0.453l-0.579-0.568l-0.466-0.467l-0.68-0.691l-0.281-0.707l-0.529-0.514v-0.374l0.548-1.102l1.099-1.761
			l1.052-2.283l0.341-1.391v-0.59l-1.064-1.849l-1.09-1.512l-1.334-1.797l-0.685-0.705v-0.623l0.294-0.758l0.507-1.021l0.933-1.503
			l0.79-1.577l0.233-0.657v-0.757v-0.707l-0.591-0.584l-1.367-1.372l-1.604-1.596l-0.626-0.971l0.165-0.922l0.926-0.93l1.431-2.026
			l1.015-1.802l0.508-0.966v-0.685l-0.124-0.928l-0.928-0.913l-0.735-0.742l-0.913-0.914l-0.716-0.713l-0.371-0.885l0.255-0.71
			l0.535-1.136l1.09-1.68l1.235-1.821l0.459-1.13v-1.058l-0.585-1.767l-0.5-1.008l-1.152-1.686l-0.756-1.177l-0.675-1.227
			l-0.251-0.878l0.298-0.887l0.414-0.805l1.227-1.925l1.172-1.868l0.551-0.714v-0.508l-0.672-1.218l-0.632-1.402l-0.968-1.422
			l-1.14-1.6l-0.38-1.13l0.47-1.142l0.836-1.595l0.933-1.602l0.723-1.215l0.328-0.724v-0.502l-0.169-0.717l-1.182-1.604
			l-1.299-1.765v-0.629l0.247-1.008l1.183-1.189l0.637-1.253l0.959-1.477l0.3-0.887v-0.751l-2.384-3.356l-3.003-2.994l0.24-0.266
			H53.5h2.021l1.433,0.305l1.98,0.246H61.8v3.498l0.214,2.356v1.558l0.21,2.14v1.642l0.341,1.862l-0.211,3.123l0.323,4.114v3.159
			v1.02v5.134v3.196l-0.242,2.109v2.363l0.294,1.973v5.806v3.251v5.509v3.374v3.119l0.206,2.009v5.527v2.228l0.214,2.608
			L62.901,349.294z M69.339,306.683c0,0,0.996-0.326,1.193-0.53c0.205-0.196,1.928,0,1.928,0l1.867-0.334h2.598l2.067-0.258h1.662
			h2.271l1.997-0.405h2.119l1.738,0.532h2.194l1.266,0.464h1.937h1.265l1.391,0.332l1.539,0.466l2.736,0.468h1.261l1.567,0.432
			l0.501,0.497l0.721,0.736l0.336,1.008l-0.362,1.028l-1.832,1.833l-2.801,1.127l-2.991,0.541l-4.598,0.387l-3.595,0.6l-4.196,0.595
			h-3.528l-2.535,0.342h-3.129l-2.587,0.332l-1.072,0.369h-2.298l-0.292-0.305v-0.657v-3.596L69.339,306.683z M69.592,321.599h1.406
			l2.99-0.33h5.269l4.601-0.33h4.521l5.997-0.604l3.589-0.723l1.802-0.466l4.26-1.403l2.832-1.968l1.499-1.503l0.661-1.257v-1.87
			l-0.261-1.596l-0.709-2.633l-0.63-0.631l-0.435-0.422l-1.361-1.383l-3.862-1.779l-2.596-0.472l-3.527-0.271l-1.527-0.404h-1.874
			l-2.326-0.466h-4.597l-6.99,0.343l-9.322,0.588v-4.325l4.596-0.393l5.254-0.472h4.198l4.327,0.327l6.2,0.473l3.591,0.739
			l3.068,0.651l1.725,0.343h1.196l1.942,0.596l2.527,0.862l2.666,1.529l2.329,2.335l2.126,3.475v3.115l-1.262,4.005l-2.069,2.927
			l-3.058,2.201l-3.057,1.795l-1.681,0.599l-3.19,0.86l-4.659,0.666h-3.332h-1.467h-2.789h-6.261l-2.873,0.432h-4.855h-1.271h-3.024
			l-0.307-0.298V321.599L69.592,321.599z M69.796,340.835v-2.72l3.394-0.472l3.269,0.343l4.46-0.273l4.195-0.259h6.197h5.987
			l2.8-0.478l1.597-0.326l3.402-0.796l5.194-1.469l3.657-1.401l4.928-2.86l4.133-2.93l2.794-3.392l2.004-4.273l1.125-2.251l1-2.065
			l0.998-4.401l-0.463-3.205l-0.792-4.325l-3.359-8.112l-6.237-6.535l-3.858-2.661l-5.333-1.869l-7.729-0.796l-3.122,0.465h-6.256
			l-5.27-0.53c0,0-3.253-0.533-3.798-0.533c-0.525,0-8.919,0-8.919,0h-2.6l-4.521,0.332v-3.787l3.256-0.287l2.138-0.522h2.064h6.992
			l2.806-0.33l4.652-0.675l5.194-0.662l3.862,0.336l2.465,0.327l3.929,1.005l3.335,0.73l2.395,0.681l2.257,0.329l4.267,0.925
			l3.597,0.993l3.861,2.147l2.094,2.226l1.633,1.63l1.465,2.129l0.928,2.261l2.069,3.67l1.461,3.589l1.542,5.069l0.525,4.786
			l-0.459,3.337l-0.866,3.056l-0.601,3.526l-2.065,3.074l-3.865,4.513l-4.524,3.742l-4.131,2.195l-6.326,3.662l-3.522,1.339
			l-4.539,1.047l-2.332,0.816l-4.453,0.455H94.98l-3.665,0.461l-5.062,0.945l-4.531,0.336h-2.865l-1.927-0.475h-1.733l-2.269-0.327
			h-1.795h-0.861L69.796,340.835z M71.735,347.771l-1.539-0.264v-0.879v-0.714l2.806-0.467h2.66l3.932-0.942h5.189l5.863-1.189
			l3.989-0.732l1.932-0.348l8.587-0.794l4.932-0.604l2.666-0.844l3.729-1.481l5.259-2.191l2.473-1.333l4.888-2.359l1.559-1.576
			l2.105-2.426l1.497-1.507l1.73-2.722l1.735-3.392l1.332-3.932l0.665-3.596l-0.072-4.25v-2.676l-0.592-3.651l-0.607-2.464
			l-0.592-2.949l-0.863-3.32l-1.202-2.93l-0.672-1.185l-1.291-1.581l-1.7-1.71l-1.398-1.386l-1.199-1.208l-1.942-1.254l-1.723-1.737
			l-3.86-1.729l-2.206-0.541l-2.055-0.79l-1.902-0.479l-3.293-0.257h-2.67l-3.127-0.393l-2.26-0.467l-3.601-1.201l-1.82-0.866
			l-1.971-0.332h-3.059H91.78l-4.335,0.332l-6.061,0.327l-4.524,0.412l-3.337,0.26h-1.325h-2.136h-1.787v-1.861v-1.865l4.648-0.196
			l3.67-0.266h4.125l3.992-0.408h4.394h4.136l4.266,0.408l4.456,0.266l4.462,0.392l2.472,0.604h1.922l1.063,0.271l2.466,0.596
			l2.333,0.659l3.331,0.402l3.298,0.968l2.562,1.565l3.987,1.919l4.107,2.838l1.499,1.5l2.789,3.666l4.858,8.592l1.805,6.786
			l0.935,7.994l-0.598,4.255l-0.929,2.601l-1.537,4.066l-0.799,2.791l-2.129,3.186l-4.33,5.337l-5.061,4.396l-4.873,2.327
			l-4.114,1.801l-4.4,1.398l-2.269,0.735l-3.12,0.929l-3.537,1.009h-2.923h-2.739l-3.126,0.333l-4.064,0.326l-4.924,0.796
			l-5.927,0.669l-7.394,0.533h-5.322V347.771z M112.943,396.118c0,0-1.22,0.226-1.464,0c-0.224-0.237-1.257-0.237-1.257-0.237
			h-1.532h-0.666l-1.064-1.16l-1.997-2.39l-1.343-1.336l-0.522-0.535l-0.568-0.562l-1.53-1.543l-1.835-2.555l-1.868-2.538
			l-0.829-0.824l-0.569-0.558l-0.327-0.532l-0.663-0.672l-0.671-1.188l-1.192-2.083l-1.2-1.189l-1.072-1.067l-0.659-1.8
			l-0.735-1.463l-1.17-1.163l-1.359-1.83l-1.594-2.267l-0.672-1.474l-1.464-2.061l-0.734-0.72l-0.571-0.585l-0.951-0.952
			l-1.069-2.07l-1.237-1.231l-0.628-1.228l-0.471-0.466l-0.827-0.841l-0.966-1.161h2.195h1.193l1.943-0.34h1.323h0.467l0.399,0.406
			l1.433,1.438l1.566,1.488l1.431,1.441l1.107,1.895l1.726,2.398l2.062,3.007l1.729,2.727l1.868,3.055l0.963,0.97l1.634,2.959
			l2.527,4.138l1.333,2.252l1.633,1.63l1.167,2.505l1.129,1.871l1.559,1.557l1.313,2.225l1.554,1.57l0.564,0.572l0.467,0.457
			l0.604,1.14l0.565,0.564L112.943,396.118z M124.102,396.557l-0.183,0.178h-1.352h-1.47l-2.317-0.24h-1.627l-0.822-0.812
			l-0.658-1.188l-1.029-1.037l-0.598-1.173v-0.413l-0.53-0.539l-0.396-0.392l-0.554-0.552l-0.518-1.099l-1.425-1.423l-0.111-1.04
			l-0.574-0.6l-0.53-1.102l-0.636-0.633l-0.233-0.238l-0.605-1.022l-0.843-0.841l-0.366-1l-1.532-2.214l-1.363-1.378l-0.586-1.091
			l-1.155-1.628l-0.999-1.481l-1.029-1.03v-0.501l-1.403-1.898l-1.364-1.376l-1.253-1.262l-0.535-1.37l-0.869-0.862l-0.552-1.233
			l-0.611-0.607l-0.894-0.907l-0.364-0.367l-0.211-0.21l-0.498-1.127l-0.583-0.584l-0.636-0.626l-0.45-0.44l-0.494-0.976
			l-0.344-0.354l-0.421-0.429l-1.003-0.999l-0.345-0.806l-0.34-0.342l-0.469-0.476l-0.639-0.632l-0.44-0.657h0.416l1.741-0.212h0.84
			h1.525l1.27,1.839l0.947,0.948l0.737,1.319l1.63,2.434l1.003,0.995l0.465,1.107l0.588,0.789l1.367,1.843l2.445,2.446l1.243,1.979
			l1.5,1.501l0.875,1.338l0.259,0.273l0.342,0.34l0.348,0.339l0.74,0.734l1.423,1.895l1.542,1.567l1.086,1.613l0.84,0.841
			l0.897,0.948l0.501,0.494l0.419,0.418l0.551,0.543l0.27,0.694l0.445,0.444l0.287,0.288v0.305l1.001,0.593l0.659,0.658l0.706,1.183
			l0.322,0.81l0.904,0.887l1.517,2.041l1.064,1.063l0.967,0.966l0.652,1.295l0.98,0.977l0.817,1.332l0.633,0.641v0.527H124.102z
			 M156.456,396.282h-4.852l-1.686-1.673l-0.552-1.031l-1.129-1.13l-0.531-1.001l-1.087-1.08l-1.493-1.503l-1.343-0.869
			l-1.688-1.682l-1.021-1.032l-1.375-1.367l-0.926-0.516l-0.966-0.961l-0.395-0.396l-0.45-0.453l-0.715-0.703l-0.869-0.874
			l-0.564-1.278l-0.628-0.625l-0.779-0.78l-0.285-1.055l-0.213-1.053l-0.36-1.11l-0.441-1.424l-0.729-0.737l-0.549-1.136
			l-1.029-1.021l-1.425-2.102l-1.259-0.792l-0.868-0.884l-0.926-0.914l-1.37-1.366l-0.474-0.478l-0.399-0.393l-0.963-0.971
			l-0.771-0.289l-0.526-0.526l-1.027-1.03l-0.844-0.419l-0.259-0.793l-1.111-1.102l-1.85-1.84l-1.491-1.037l-0.904-0.897l-0.498-0.5
			v-0.371l-0.475-0.466l-0.538-0.64v-0.424v-0.439l0.332-0.332h0.523l1.161-0.34l0.957-0.206h0.517l0.526,1.163l0.689,0.675
			l0.265,0.278l0.287,0.271l0.343,0.359l0.74,0.731l0.557,1.011l0.79,0.8l0.481,0.474l0.449,0.451l1.87,1.868l0.432,0.445
			l0.878,0.882l0.872,0.857l1.566,1.576l1.714,1.783l0.716,0.71l1.052,1.05l1.582,1.586l0.863,1.186l1.609,1.606l0.58,1.103
			l1.11,1.576l0.465,1.262l1.143,1.154l1.759,1.748l0.629,1.268l0.748,0.733l0.973,0.977l1.656,1.655l1.686,1.685l1.849,1.374
			l0.943,0.949l1.232,1.706l1.873,1.867l1.029,1.028l1.655,1.665l0.318,0.892l3.218,3.219V396.282L156.456,396.282z"/>
		<polygon fill="#FFFFFF" points="41.098,273.201 40.749,272.835 40.342,272.835 40.118,273.547 40.118,275.294 39.913,276.968 
			39.913,278.307 39.715,279.348 39.715,280.293 39.715,281.327 39.715,282.712 39.557,283.858 39.557,285.129 39.557,286.406 
			39.361,287.153 39.361,287.948 39.557,288.741 39.557,289.614 39.715,290.327 40.013,290.622 40.663,290.808 41.439,290.022 
			42.968,288.182 44.475,286.089 45.822,283.823 46.591,283.042 46.9,282.438 46.9,281.881 46.9,281.45 45.822,279.658 
			45.18,278.984 44.796,278.229 44.271,277.718 43.856,277.298 43.641,276.567 43.09,276.008 41.598,274.521 		"/>
		<polygon fill="#FFFFFF" points="45.822,293.626 45.521,293.321 45.211,293.006 44.71,293.46 44.271,293.89 43.738,294.432 
			43.523,294.647 43.324,294.84 42.968,295.2 42.565,295.2 42.235,295.791 41.984,295.791 41.718,296.064 41.258,296.599 
			40.862,297.306 40.492,297.68 40.118,298.07 39.397,298.614 39,299.016 39,299.448 39.434,299.808 39.913,299.808 40.516,299.521 
			41.42,298.614 42.649,297.386 43.716,296.323 44.528,295.505 44.776,295.26 44.887,295.15 45.481,294.559 45.822,294.212 
			45.822,293.89 		"/>
		<path fill="#FFFFFF" d="M46.652,302.425v-0.441l-0.349-0.792H45.98h-0.434l-0.715,0.317l-0.318,0.28l-0.631,0.635l-1.548,1.542
			l-0.321,0.31l-0.281,0.275c0,0-0.681,0.302-0.869,0.485c-0.177,0.186-0.392,0.397-0.392,0.397l-0.244,0.231l-0.511,0.402
			l-0.75,0.155v0.442v0.752l0.947,1.545l0.671,0.673l0.433,0.987l0.881,0.871l0.437,0.441l0.194,0.874l0.478,0.318l0.341,0.34
			l0.36,0.354l0.368,0.381l0.417,0.417l0.579,0.479h0.511l0.34-0.323l0.336-0.891v-1.469l0.204-4.837v-2.778l0.351-1.141v-0.72
			L46.652,302.425z"/>
		<polygon fill="#FFFFFF" points="41.064,315.386 40.725,315.05 40.072,315.05 39.785,314.767 39.54,315.005 39.281,315.269 
			39.281,315.586 39.715,316.014 39.715,316.341 40.131,316.749 40.587,317.212 40.907,317.53 41.282,317.901 41.833,318.456 
			42.494,319.122 43.324,319.586 43.882,320.143 44.71,320.457 45.211,320.954 45.822,320.662 45.822,320.068 45.822,319.586 
			44.392,318.477 43.663,317.743 42.822,316.912 41.858,316.341 		"/>
		<polygon fill="#FFFFFF" points="43.438,322.296 42.95,321.783 42.565,321.415 41.621,320.787 40.919,320.086 40.602,319.768 
			40.291,319.452 39.637,319.586 39.361,319.869 39.361,320.183 39.361,320.571 39.637,320.852 39.637,321.17 40.131,321.671 
			40.448,321.991 40.749,322.277 41.141,322.277 41.368,322.511 41.664,322.803 42.057,323.196 42.632,323.77 43.176,324.331 
			43.641,324.774 44.075,325.216 44.492,325.632 44.986,325.788 45.545,325.971 46.143,325.971 46.497,325.625 46.497,325.097 
			46.039,324.645 45.521,324.139 45.071,323.67 44.271,322.922 43.924,322.555 		"/>
		<polygon fill="#FFFFFF" points="40.342,325.536 40.035,325.536 39.637,325.536 39.637,326.208 39.361,327.117 39.361,327.792 
			39.361,329.059 39.597,330.173 39.597,330.73 39.597,331.449 39.434,332.042 39.434,332.749 39.434,333.388 39.434,334.741 
			39.637,335.373 39.637,337.077 39.637,338.105 39.637,339.815 40.05,340.218 40.433,340.771 41.064,340.771 41.706,340.57 
			42.586,339.675 43.021,339.243 43.641,338.66 45.264,336.961 46.24,335.98 47.093,334.69 47.584,334.203 47.584,333.507 
			46.378,331.969 45.309,330.892 44.475,329.625 44.06,329.209 42.968,328.438 42.171,327.196 41.671,326.71 40.919,325.955 		"/>
		<polygon fill="#FFFFFF" points="45.822,342.064 45.563,341.812 45.144,341.812 44.668,341.812 44.369,342.122 43.563,342.518 
			43.367,343.029 42.968,343.418 42.396,343.996 41.992,344.396 41.495,344.889 41.258,345.446 40.952,345.758 40.448,346.256 
			39.956,346.751 39.54,347.171 39.597,347.657 39.853,347.918 40.131,348.196 40.587,348.196 41.292,347.495 42.181,346.6 
			42.968,346.104 43.641,345.446 44.271,344.811 44.811,344.276 45.368,343.705 45.828,343.265 45.828,342.631 		"/>
		<polygon fill="#FFFFFF" points="46.143,346.433 45.582,346.24 45.071,346.395 44.746,346.705 44.434,347.025 44.172,347.277 
			43.707,347.759 43.006,348.221 42.334,348.894 41.65,349.559 40.801,350.416 40.524,350.702 40.05,351.164 39.828,351.744 
			39.828,352.229 40.291,352.69 40.991,352.69 41.523,352.138 41.99,351.68 43.032,350.629 43.477,350.184 43.882,349.731 
			44.323,348.934 45.035,348.221 45.503,347.739 46.015,347.507 46.378,347.142 		"/>
		<path fill="#FFFFFF" d="M46.771,355.042l-0.393-0.396l-0.283-0.351l-0.785,0.318l-0.621,0.609l-0.255,0.257l-0.453,0.461
			l-0.483,0.472l-0.352,0.356l-0.812,0.821l-0.26,0.253l-0.217,0.217l-0.278,0.282l-0.452,0.453l-0.305,0.286l-0.632,0.843
			l-0.87,0.349l-0.237,0.323v0.48l0.197,0.672l0.343,0.337l0.333,0.415l0.352,0.357l0.292,0.287l0.365,0.362l0.214,0.53l0.362,0.368
			l0.985,0.904l0.439,0.435l0.956,0.6l0.766,0.77l0.738,0.098c0,0,0.077,0.299,0.292,0.299c0.223,0,0.603-0.388,0.603-0.388
			l0.425-0.415v-2.066l0.184-1.556V360.2v-2.82l-0.196-1.509L46.771,355.042z"/>
		<polygon fill="#FFFFFF" points="41.181,368.371 40.663,368.179 40.415,368.435 40.072,368.775 40.118,369.282 40.291,369.462 
			40.862,369.957 41.083,370.18 41.488,370.572 41.984,371.065 42.605,371.22 42.989,371.6 43.176,371.799 43.882,372.135 
			44.136,372.689 44.954,373.093 45.349,373.496 45.72,373.862 46.015,374.156 46.652,374.038 46.99,373.708 46.99,373.355 
			46.604,372.98 46.269,372.642 45.989,372.367 45.636,372.012 45.349,372.012 44.713,371.381 43.942,370.6 43.605,370.267 
			42.854,369.874 42.074,369.103 41.671,368.718 		"/>
		<polygon fill="#FFFFFF" points="41.858,372.057 41.518,371.723 41.064,371.861 40.663,371.861 40.433,372.339 40.192,372.78 
			40.192,373.012 40.492,373.305 40.835,373.663 41.304,373.663 41.77,374.315 42.036,374.578 42.371,374.8 42.605,375.034 
			42.807,375.234 43.031,375.449 43.324,375.747 43.716,375.747 44.114,376.141 44.528,376.563 44.796,376.822 45.169,377.191 
			45.854,377.491 46.24,377.866 46.735,377.866 47.176,377.417 47.176,376.738 45.047,375.127 43.677,373.804 42.73,373.093 
			42.371,372.689 		"/>
		<polygon fill="#FFFFFF" points="42.334,377.761 42.057,377.491 41.341,377.447 40.789,377.447 40.342,377.882 40.342,378.16 
			40.342,379.576 40.15,380.981 40.15,382.525 40.309,384.386 40.309,386.084 40.15,388.108 40.15,389.698 40.15,390.489 
			40.387,391.644 40.789,392.039 41.141,392.357 41.858,392.154 42.452,391.571 43.882,390.135 44.633,388.982 45.72,387.893 
			46.417,386.843 47.329,385.924 48.075,384.822 48.358,384.172 48.358,383.463 48.119,382.765 47.602,382.009 46.9,381.576 
			44.954,380.152 44.233,379.446 42.807,378.365 		"/>
	</g>
	<rect x="202.703" y="269.241" fill="#FFFFFF" width="4.24" height="135.664"/>
	<g>
		<path fill="#FFFFFF" d="M312.871,290.095c0-12.498-9.663-20.574-24.619-20.574h-29.036v67.082h9.969v-25.015h16.364l18.67,25.015
			h12.305l-20.132-26.779C306.756,307.217,312.871,299.965,312.871,290.095z M269.185,278.939H287.7
			c9.602,0,15.112,4.166,15.112,11.43c0,7.281-5.968,11.987-15.205,11.987h-18.419v-23.417H269.185z"/>
		<path fill="#FFFFFF" d="M344.813,285.341c-13.773,0-24.161,11.257-24.161,26.185c0,14.927,10.782,26.184,25.082,26.184
			c8.434,0,14.784-2.894,20.594-9.373l0.904-1.006l-6.397-5.731l-0.904,0.948c-4.155,4.352-8.477,6.296-14.011,6.296
			c-7.865,0-13.814-5.321-15.196-13.392h37.372l0.136-1.204c0.098-0.901,0.098-1.708,0.098-2.354
			C368.328,296.259,358.659,285.341,344.813,285.341z M358.285,307.505h-27.564c1.342-8.01,6.898-13.484,13.908-13.484
			C353.261,294.021,357.283,300.738,358.285,307.505z"/>
		<path fill="#FFFFFF" d="M416.211,292.587c-4.665-4.811-10.446-7.249-17.228-7.249c-11.649,0-23.702,8.938-23.702,23.888
			c0,15.393,12.213,23.699,23.702,23.699c6.783,0,12.482-2.512,17.316-7.658v1.895c0,9.893-5.807,15.568-15.938,15.568
			c-6.326,0-12.216-1.957-17.506-5.81l-1.209-0.882l-4.601,7.887l1.024,0.713c6.549,4.554,14.078,6.865,22.384,6.865
			c15.992,0,25.542-9.169,25.542-24.524v-40.624h-9.786V292.587L416.211,292.587z M400.364,323.967
			c-8.614,0-15.111-6.416-15.111-14.924c0-8.682,6.211-14.743,15.111-14.743c7.925,0,16.122,5.547,16.122,14.833
			S408.289,323.967,400.364,323.967z"/>
		<path fill="#FFFFFF" d="M463.822,285.341c-6.115,0-11.119,2.185-14.927,6.505v-5.493h-9.783v50.252h9.783v-28.574
			c0-7.975,5.308-13.547,12.906-13.547c7.5,0,11.798,4.735,11.798,12.995v29.126h9.787V305.73
			C483.383,293.343,475.705,285.341,463.822,285.341z"/>
		<path fill="#FFFFFF" d="M514.895,306.827l-0.181-0.054c-5.703-1.735-11.095-3.375-11.095-6.835v-0.184
			c0-3.318,3.152-5.547,7.847-5.547c4.162,0,9.026,1.596,13.338,4.383l1.171,0.755l4.609-7.637l-1.085-0.716
			c-5.185-3.422-11.856-5.467-17.851-5.467c-10.326,0-17.539,6.155-17.539,14.966v0.184c0,9.983,9.657,12.725,16.715,14.729
			c6.161,1.722,10.874,3.334,10.874,7.066v0.184c0,3.706-3.41,6.193-8.488,6.193c-5.18,0-10.593-2.007-15.652-5.8l-1.109-0.834
			l-5.124,7.224l0.984,0.799c5.551,4.496,13.417,7.292,20.533,7.292c10.932,0,18.274-6.272,18.274-15.608v-0.184
			C531.12,311.697,521.351,308.765,514.895,306.827z"/>
		<polygon fill="#FFFFFF" points="587.702,286.352 575.082,286.352 551.351,311.104 551.351,266.763 541.567,266.763 
			541.567,336.604 551.351,336.604 551.351,323.392 559.526,315.138 576.005,336.604 587.853,336.604 566.312,308.232 		"/>
		<path fill="#FFFFFF" d="M614.823,285.341c-14.682,0-26.182,11.542-26.182,26.274c0,14.632,11.419,26.093,25.998,26.093
			c14.734,0,26.273-11.542,26.273-26.277C640.915,296.802,629.457,285.341,614.823,285.341z M614.823,328.658
			c-9.09,0-16.214-7.569-16.214-17.229c0-9.927,6.744-17.132,16.03-17.132c9.145,0,16.307,7.607,16.307,17.316
			C630.948,321.331,624.017,328.658,614.823,328.658z"/>
		<path fill="#FFFFFF" d="M689.166,292.585c-4.665-4.811-10.443-7.248-17.228-7.248c-11.649,0-23.699,8.938-23.699,23.888
			c0,15.393,12.211,23.699,23.699,23.699c6.786,0,12.482-2.512,17.319-7.658v1.895c0,9.893-5.81,15.568-15.94,15.568
			c-6.324,0-12.216-1.957-17.506-5.81l-1.21-0.882l-4.598,7.887l1.024,0.713c6.546,4.554,14.075,6.865,22.381,6.865
			c15.992,0,25.543-9.169,25.543-24.524v-40.624h-9.786V292.585z M673.319,323.967c-8.615,0-15.111-6.416-15.111-14.924
			c0-8.682,6.213-14.743,15.111-14.743c7.926,0,16.124,5.547,16.124,14.833S681.242,323.967,673.319,323.967z"/>
		<path fill="#FFFFFF" d="M730.433,266.395c-9.976,0-15.698,6.292-15.698,17.262v2.787h-6.528v8.865h6.528v41.294h9.786v-41.293
			h14.991v-8.773h-15.085v-2.512c0-7.767,3.701-8.763,6.926-8.763c2.139,0,3.874,0.384,6.524,1.144l1.724,0.492v-8.905l-0.894-0.321
			C736.19,266.764,733.795,266.395,730.433,266.395z"/>
		<path fill="#FFFFFF" d="M768.139,285.341c-14.682,0-26.183,11.542-26.183,26.274c0,14.632,11.419,26.093,25.998,26.093
			c14.734,0,26.275-11.542,26.275-26.277C794.229,296.802,782.771,285.341,768.139,285.341z M768.139,328.658
			c-9.091,0-16.213-7.569-16.213-17.229c0-9.927,6.742-17.132,16.028-17.132c9.146,0,16.309,7.607,16.309,17.316
			C784.263,321.331,777.331,328.658,768.139,328.658z"/>
		<path fill="#FFFFFF" d="M829.023,285.341c-6.114,0-11.119,2.185-14.926,6.505v-5.493h-9.786v50.252h9.786v-28.574
			c0-7.975,5.307-13.547,12.902-13.547c7.5,0,11.803,4.735,11.803,12.995v29.126h9.783V305.73
			C848.586,293.343,840.906,285.341,829.023,285.341z"/>
		<path fill="#FFFFFF" d="M899.136,292.911c-4.542-5.027-10.197-7.572-16.856-7.572c-11.668,0-24.068,9.18-24.068,26.187
			c0,16.947,12.4,26.088,24.068,26.088c6.681,0,12.229-2.601,16.856-7.937v6.926h9.786v-69.841h-9.786V292.911z M899.415,311.431
			c0,10.727-8.061,17.136-15.852,17.136c-7.645,0-15.386-5.886-15.386-17.136c0-10.034,6.327-17.042,15.386-17.042
			C891.354,294.389,899.415,300.765,899.415,311.431z"/>
		<path fill="#FFFFFF" d="M943.254,285.341c-13.773,0-24.158,11.257-24.158,26.185c0,14.927,10.782,26.184,25.079,26.184
			c8.434,0,14.787-2.894,20.596-9.373l0.904-1.006l-6.397-5.731l-0.902,0.948c-4.16,4.352-8.48,6.296-14.016,6.296
			c-7.86,0-13.812-5.321-15.192-13.392h37.369l0.135-1.202c0.102-0.903,0.102-1.709,0.102-2.356
			C966.771,296.259,957.1,285.341,943.254,285.341z M956.729,307.505h-27.566c1.343-8.01,6.902-13.484,13.907-13.484
			C951.704,294.021,955.727,300.738,956.729,307.505z"/>
		<path fill="#FFFFFF" d="M1003.835,295.309v-8.956h-15.082v-14.347h-9.786v14.347h-6.619v8.956h6.619v27.342
			c0,9.393,5.389,14.779,14.778,14.779c3.4,0,6.316-0.689,9.175-2.176l0.73-0.376v-9.044l-1.939,0.935
			c-2.243,1.083-4.072,1.523-6.31,1.523c-4.598,0-6.648-2.023-6.648-6.556v-26.426H1003.835z"/>
	</g>
	<g>
		<path fill="#FFFFFF" d="M259.368,377.52h12.133c3.422,0,6.106,1.014,7.854,2.721c1.439,1.478,2.255,3.501,2.255,5.875v0.076
			c0,4.473-2.683,7.157-6.494,8.243l7.35,10.308h-5.639l-6.688-9.489h-5.988v9.489h-4.783V377.52z M271.152,391.016
			c3.421,0,5.599-1.787,5.599-4.552v-0.075c0-2.918-2.1-4.514-5.638-4.514h-6.96v9.139h7V391.016z"/>
		<path fill="#FFFFFF" d="M297.126,377.327h4.434l11.977,27.414h-5.055l-2.76-6.573h-12.872l-2.8,6.573h-4.899L297.126,377.327z
			 M303.971,393.931l-4.705-10.887l-4.667,10.887H303.971z"/>
		<path fill="#FFFFFF" d="M318.475,377.52h4.783v27.222h-4.783V377.52z"/>
		<path fill="#FFFFFF" d="M330.529,377.52h4.433l14.582,18.824V377.52h4.705v27.222h-4.005l-15.01-19.363v19.363h-4.704V377.52
			L330.529,377.52z"/>
		<path fill="#FFFFFF" d="M361.249,377.52h20.261v4.355h-15.478v7.429h13.729v4.355h-13.729v11.082h-4.782V377.52H361.249z"/>
		<path fill="#FFFFFF" d="M385.32,391.208v-0.076c0-7.662,5.911-14.077,14.271-14.077c8.36,0,14.193,6.339,14.193,13.999v0.078
			c0,7.659-5.911,14.077-14.271,14.077C391.152,405.209,385.32,398.87,385.32,391.208z M408.768,391.208v-0.076
			c0-5.29-3.85-9.683-9.254-9.683c-5.405,0-9.178,4.317-9.178,9.605v0.078c0,5.287,3.85,9.686,9.256,9.686
			C404.997,400.815,408.768,396.498,408.768,391.208z"/>
		<path fill="#FFFFFF" d="M419.577,377.52h12.132c3.422,0,6.105,1.014,7.854,2.721c1.439,1.478,2.257,3.501,2.257,5.875v0.076
			c0,4.473-2.685,7.157-6.495,8.243l7.35,10.308h-5.638l-6.689-9.489h-5.988v9.489h-4.782V377.52z M431.36,391.016
			c3.422,0,5.598-1.787,5.598-4.552v-0.075c0-2.918-2.099-4.514-5.638-4.514h-6.961v9.139h7V391.016z"/>
		<path fill="#FFFFFF" d="M447.692,377.52h20.182v4.278h-15.398v7.078h13.647v4.276h-13.647v7.312h15.593v4.274h-20.376V377.52z"/>
		<path fill="#FFFFFF" d="M471.918,400.774l2.877-3.42c2.605,2.255,5.209,3.537,8.594,3.537c2.955,0,4.822-1.361,4.822-3.421v-0.079
			c0-1.943-1.09-2.994-6.145-4.159c-5.792-1.403-9.06-3.111-9.06-8.131v-0.076c0-4.668,3.89-7.896,9.294-7.896
			c3.967,0,7.117,1.208,9.878,3.423l-2.568,3.616c-2.45-1.829-4.898-2.801-7.387-2.801c-2.8,0-4.433,1.442-4.433,3.228v0.081
			c0,2.099,1.244,3.03,6.454,4.274c5.756,1.404,8.75,3.462,8.75,7.972v0.079c0,5.095-4.007,8.128-9.722,8.128
			C479.111,405.13,475.184,403.693,471.918,400.774z"/>
		<path fill="#FFFFFF" d="M504.738,381.954h-8.632v-4.435h22.088v4.435h-8.632v22.787h-4.823L504.738,381.954L504.738,381.954z"/>
		<path fill="#FFFFFF" d="M534.912,377.52h20.261v4.355h-15.478v7.429h13.728v4.355h-13.728v11.082h-4.783V377.52z"/>
		<path fill="#FFFFFF" d="M558.981,391.208v-0.076c0-7.662,5.91-14.077,14.271-14.077s14.192,6.339,14.192,13.999v0.078
			c0,7.659-5.909,14.077-14.271,14.077C564.813,405.209,558.981,398.87,558.981,391.208z M582.432,391.208v-0.076
			c0-5.29-3.851-9.683-9.256-9.683c-5.404,0-9.177,4.317-9.177,9.605v0.078c0,5.287,3.849,9.686,9.256,9.686
			C578.66,400.817,582.432,396.498,582.432,391.208z"/>
		<path fill="#FFFFFF" d="M592.812,393.191V377.52h4.783v15.479c0,5.054,2.605,7.775,6.885,7.775c4.239,0,6.845-2.564,6.845-7.583
			V377.52h4.781v15.439c0,8.128-4.587,12.211-11.703,12.211C597.323,405.171,592.812,401.087,592.812,393.191z"/>
		<path fill="#FFFFFF" d="M622.676,377.52h4.434l14.583,18.824V377.52h4.704v27.222h-4.007l-15.01-19.363v19.363h-4.704V377.52z"/>
		<path fill="#FFFFFF" d="M653.396,377.52h10.147c8.558,0,14.469,5.875,14.469,13.534v0.078c0,7.659-5.911,13.611-14.469,13.611
			h-10.147V377.52z M663.543,400.386c5.717,0,9.45-3.85,9.45-9.179v-0.076c0-5.327-3.733-9.256-9.45-9.256h-5.366v18.511H663.543
			L663.543,400.386z"/>
		<path fill="#FFFFFF" d="M691.582,377.327h4.436l11.977,27.414h-5.055l-2.764-6.573h-12.87l-2.802,6.573h-4.898L691.582,377.327z
			 M698.426,393.931l-4.704-10.887l-4.667,10.887H698.426z"/>
		<path fill="#FFFFFF" d="M715.848,381.954h-8.634v-4.435h22.09v4.435h-8.634v22.787h-4.821L715.848,381.954L715.848,381.954z"/>
		<path fill="#FFFFFF" d="M734.629,377.52h4.783v27.222h-4.783V377.52z"/>
		<path fill="#FFFFFF" d="M745.478,391.208v-0.076c0-7.662,5.911-14.077,14.271-14.077c8.361,0,14.193,6.339,14.193,13.999v0.078
			c0,7.659-5.91,14.077-14.271,14.077S745.478,398.87,745.478,391.208z M768.927,391.208v-0.076c0-5.29-3.85-9.683-9.255-9.683
			c-5.406,0-9.177,4.317-9.177,9.605v0.078c0,5.287,3.849,9.686,9.254,9.686C765.156,400.817,768.927,396.498,768.927,391.208z"/>
		<path fill="#FFFFFF" d="M779.735,377.52h4.435l14.582,18.824V377.52h4.706v27.222h-4.008l-15.011-19.363v19.363h-4.704V377.52z"/>
		<path fill="#FFFFFF" d="M822.119,377.52h4.433l14.584,18.824V377.52h4.706v27.222h-4.005l-15.011-19.363v19.363h-4.705V377.52
			H822.119z"/>
		<path fill="#FFFFFF" d="M851.634,391.208v-0.076c0-7.662,5.911-14.077,14.271-14.077c8.361,0,14.192,6.339,14.192,13.999v0.078
			c0,7.659-5.909,14.077-14.27,14.077C857.466,405.209,851.634,398.87,851.634,391.208z M875.083,391.208v-0.076
			c0-5.29-3.85-9.683-9.254-9.683c-5.405,0-9.178,4.317-9.178,9.605v0.078c0,5.287,3.849,9.686,9.256,9.686
			C871.313,400.817,875.083,396.498,875.083,391.208z"/>
		<path fill="#FFFFFF" d="M885.89,377.52h12.133c3.423,0,6.105,1.014,7.856,2.721c1.439,1.478,2.256,3.501,2.256,5.875v0.076
			c0,4.473-2.684,7.157-6.495,8.243l7.351,10.308h-5.64l-6.69-9.489h-5.988v9.489h-4.783L885.89,377.52L885.89,377.52z
			 M897.676,391.016c3.422,0,5.598-1.787,5.598-4.552v-0.075c0-2.918-2.099-4.514-5.639-4.514h-6.961v9.139h7.002V391.016z"/>
		<path fill="#FFFFFF" d="M911.323,377.52h5.173l6.493,20.186l6.689-20.263h4.043l6.689,20.263l6.495-20.186h5.016l-9.489,27.418
			h-4.121l-6.689-19.56l-6.689,19.56h-4.122L911.323,377.52z"/>
		<path fill="#FFFFFF" d="M962.964,377.327h4.433l11.979,27.414h-5.055l-2.764-6.573h-12.87l-2.799,6.573h-4.9L962.964,377.327z
			 M969.808,393.931l-4.704-10.887l-4.667,10.887H969.808z"/>
		<path fill="#FFFFFF" d="M987.774,394.01l-10.812-16.489h5.64l7.623,12.055l7.698-12.055h5.483l-10.811,16.372v10.851h-4.824
			V394.01H987.774z"/>
	</g>
</g>
</svg>
