<?xml version="1.0" encoding="utf-8"?>
<!-- Generator: Adobe Illustrator 16.0.0, SVG Export Plug-In . SVG Version: 6.00 Build 0)  -->
<!DOCTYPE svg PUBLIC "-//W3C//DTD SVG 1.1//EN" "http://www.w3.org/Graphics/SVG/1.1/DTD/svg11.dtd">
<svg version="1.1" id="Layer_1" xmlns="http://www.w3.org/2000/svg" xmlns:xlink="http://www.w3.org/1999/xlink" x="0px" y="0px"
	 width="50px" height="50px" viewBox="0 0 50 50" enable-background="new 0 0 50 50" xml:space="preserve">
<g id="XMLID_23_">
	<polygon id="XMLID_114_" fill="#A6CE39" points="39.177,24.819 41.151,31.271 49.983,33.288 45.387,18.204 	"/>
</g>
<g id="XMLID_20_">
	<g id="XMLID_22_">
		<path id="XMLID_110_" fill="#A6CE39" d="M34.096,21.673l-16.939,5.162c-1.049,0.322-1.613,1.411-1.291,2.461l3.469,11.292
			c0.322,1.048,1.411,1.612,2.46,1.29l16.939-5.162c1.047-0.323,1.611-1.411,1.33-2.46l-3.468-11.293
			C36.232,21.955,35.143,21.351,34.096,21.673"/>
	</g>
</g>
<path id="XMLID_88_" fill="#D09B2C" d="M4.13,23.084h3.146c0.807,0,1.492,0.524,1.492,1.171c0,0.645-0.686,1.169-1.492,1.169H4.413
	c-0.121,0-0.161,0.04-0.202,0.081c-0.081,0.08-0.04,0.201,0,0.322c1.129,3.105,4.073,5.162,7.38,5.162
	c3.347,0,6.291-2.097,7.38-5.283l0,0c0-0.04,0.04-0.121,0-0.201c-0.081-0.081-0.162-0.081-0.202-0.081h-2.904
	c-0.806,0-1.492-0.524-1.492-1.169c0-0.646,0.686-1.171,1.492-1.171h3.267l0,0c0.081,0,0.242-0.08,0.242-0.322v-1.451
	c0-0.202-0.161-0.282-0.322-0.282h-3.227c-0.807,0-1.492-0.524-1.492-1.17c0-0.645,0.686-1.17,1.492-1.17h3.146c0,0,0,0,0.04,0
	c0.242,0,0.403-0.121,0.403-0.322v-1.412c0-0.201-0.161-0.322-0.363-0.322h-3.187c-0.806,0-1.492-0.524-1.492-1.169
	c0-0.646,0.686-1.17,1.492-1.17h2.904c0.162,0,0.242-0.08,0.283-0.121c0.161-0.201,0.081-0.524,0.04-0.604
	c-0.968-3.267-4.033-5.606-7.542-5.606c-3.63,0-6.735,2.461-7.582,5.97c-0.041,0.08,0,0.201,0.081,0.322
	c0.041,0.04,0.121,0.121,0.282,0.121h2.944c0.807,0,1.492,0.524,1.492,1.169c0,0.646-0.686,1.17-1.492,1.17H4.05
	c-0.161,0-0.323,0.08-0.323,0.282v1.451c0,0.202,0.162,0.283,0.323,0.283h3.226c0.807,0,1.492,0.524,1.492,1.169
	c0,0.646-0.686,1.17-1.492,1.17H4.13c-0.161,0-0.404,0.121-0.404,0.403v1.33C3.768,23.004,3.969,23.084,4.13,23.084"/>
<path id="XMLID_87_" fill="#811619" d="M22.077,20.222c-0.564,0-1.049,0.483-1.049,1.048v2.218c0,5.203-4.234,9.438-9.437,9.438
	s-9.478-4.235-9.478-9.479V21.27c0-0.564-0.484-1.048-1.049-1.048c-0.564,0-1.048,0.443-1.048,1.048v2.218
	c0,6.01,4.638,10.93,10.485,11.495v4.96H6.025c-0.564,0-1.048,0.483-1.048,1.048c0,0.565,0.484,1.049,1.048,1.049h11.091
	c0.564,0,1.048-0.483,1.048-1.049c0-0.564-0.484-1.048-1.048-1.048h-4.517v-4.96c5.888-0.524,10.486-5.485,10.486-11.495V21.27
	C23.125,20.665,22.641,20.222,22.077,20.222"/>
</svg>
