<?xml version="1.0" encoding="utf-8"?>
<!-- Generator: Adobe Illustrator 16.0.0, SVG Export Plug-In . SVG Version: 6.00 Build 0)  -->
<!DOCTYPE svg PUBLIC "-//W3C//DTD SVG 1.1//EN" "http://www.w3.org/Graphics/SVG/1.1/DTD/svg11.dtd">
<svg version="1.1" id="Layer_1" xmlns="http://www.w3.org/2000/svg" xmlns:xlink="http://www.w3.org/1999/xlink" x="0px" y="0px"
	 width="50px" height="50px" viewBox="374.952 125 50 50" enable-background="new 374.952 125 50 50" xml:space="preserve">
<g id="XMLID_30_">
	<path id="XMLID_25_" fill="#056330" d="M399.919,149.361c-0.878,0-1.638,0.719-1.638,1.599c0,0.878,0.719,1.598,1.638,1.598
		c0.879,0,1.637-0.72,1.637-1.598C401.556,150.08,400.838,149.361,399.919,149.361"/>
</g>
<path id="XMLID_31_" fill="#D09B2C" d="M423.846,151.759c-1.119,0.958-3.915,4.713-5.312,7.788c-0.599-0.279-1.238-0.239-1.758,0.12
	c-2.276-1.877-6.711-4.833-10.065-6.79c0.159-0.6,0.279-1.238,0.279-1.878c0-3.235-2.237-5.952-5.312-6.71
	c-0.04-3.835-0.399-9.067-0.918-11.984c0.558-0.279,0.957-0.798,0.998-1.438c3.355,0.36,8.068-0.159,9.467-0.639
	c0,0-0.16-0.679-0.879-0.879c-2.157-0.559-6.351,0.16-8.629,0.999c-0.199-0.799-0.878-1.358-1.757-1.358
	c-0.838,0-1.558,0.599-1.757,1.358c-2.277-0.878-6.471-1.558-8.628-0.999c-0.759,0.2-0.878,0.879-0.878,0.879
	c1.398,0.479,6.111,0.999,9.466,0.639c0.04,0.64,0.439,1.199,0.999,1.438c-0.519,2.917-0.879,8.149-0.919,11.984
	c-3.035,0.758-5.312,3.475-5.312,6.71c0,0.64,0.08,1.278,0.28,1.878c-3.355,1.957-7.789,4.872-10.065,6.79
	c-0.52-0.319-1.198-0.399-1.758-0.12c-1.438-3.075-4.234-6.869-5.353-7.788c0,0-0.519,0.479-0.319,1.197
	c0.599,2.157,3.315,5.353,5.192,6.871c-0.599,0.559-0.759,1.438-0.319,2.157c0.439,0.719,1.278,1.038,2.077,0.799
	c0.399,2.356,1.837,6.311,3.435,7.868c0.56,0.52,1.198,0.32,1.198,0.32c-0.279-1.438-2.197-5.713-4.154-8.429
	c0.519-0.359,0.839-0.959,0.799-1.558c2.796-0.999,7.589-3.315,10.984-5.193c1.278,1.279,3.076,2.117,5.033,2.117
	s3.755-0.799,5.032-2.117c3.396,1.878,8.188,4.194,10.985,5.193c-0.04,0.599,0.239,1.198,0.799,1.558
	c-1.997,2.716-3.875,6.99-4.153,8.429c0,0,0.679,0.199,1.198-0.32c1.597-1.558,3.034-5.512,3.434-7.868
	c0.76,0.239,1.638-0.08,2.077-0.799c0.44-0.72,0.28-1.638-0.318-2.157c1.877-1.519,4.593-4.714,5.191-6.871
	C424.364,152.197,423.846,151.759,423.846,151.759 M399.919,135.102c0.44,0,0.799,7.07,0.799,9.626c0,0.439-0.359,0.799-0.799,0.799
	c-0.439,0-0.798-0.36-0.798-0.799C399.16,142.172,399.52,135.102,399.919,135.102 M394.886,154.714
	c-2.277,1.278-8.628,4.514-8.868,4.154c-0.2-0.359,5.832-4.234,8.069-5.513c0.359-0.199,0.878-0.079,1.079,0.28
	C395.366,154.035,395.246,154.515,394.886,154.714 M398.321,156.631c-0.399,0-0.759-0.319-0.759-0.719s0.319-0.759,0.759-0.759
	c0.4,0,0.759,0.319,0.759,0.759C399.041,156.271,398.721,156.631,398.321,156.631 M401.556,156.631
	c-0.397,0-0.758-0.319-0.758-0.719s0.319-0.719,0.758-0.719c0.401,0,0.76,0.319,0.76,0.719
	C402.315,156.271,401.997,156.631,401.556,156.631 M399.919,154.475c-1.957,0-3.555-1.598-3.555-3.515
	c0-1.958,1.598-3.516,3.555-3.516s3.595,1.598,3.595,3.516C403.514,152.917,401.916,154.475,399.919,154.475 M413.86,158.868
	c-0.24,0.399-6.632-2.836-8.869-4.114c-0.358-0.2-0.519-0.679-0.278-1.078c0.199-0.359,0.718-0.52,1.078-0.279
	C408.027,154.674,414.06,158.509,413.86,158.868"/>
</svg>
