<?xml version="1.0" encoding="utf-8"?>
<!-- Generator: Adobe Illustrator 16.0.0, SVG Export Plug-In . SVG Version: 6.00 Build 0)  -->
<!DOCTYPE svg PUBLIC "-//W3C//DTD SVG 1.1//EN" "http://www.w3.org/Graphics/SVG/1.1/DTD/svg11.dtd">
<svg version="1.1" id="Layer_1" xmlns="http://www.w3.org/2000/svg" xmlns:xlink="http://www.w3.org/1999/xlink" x="0px" y="0px"
	 width="50px" height="50px" viewBox="374.952 125 50 50" enable-background="new 374.952 125 50 50" xml:space="preserve">
<g id="XMLID_54_">
	<path id="XMLID_25_" fill="#A6CE39" d="M397.846,145.748c0.607-0.607,1.438-0.927,2.334-0.927c1.63,0,2.909,1.087,3.069,2.653
		l0.032,0.32c0.031,0.223,0.031,0.319,0.063,0.671c0,0.448,0.257,0,0.321-0.159c0.479-0.704,0.734-1.566,0.734-2.462
		c0-2.493-2.015-4.508-4.54-4.508c-2.494,0-4.54,2.015-4.54,4.508c0,1.151,0.576,2.109,1.151,2.973
		c0.416,0.639,0.479,0.096,0.447-0.223v-0.768C396.983,147.027,397.303,146.292,397.846,145.748"/>
</g>
<path id="XMLID_51_" fill="#D09B2C" d="M410.986,156.905c-0.289-0.063-0.864-0.255-1.407-0.415
	c-0.671-0.225-1.374-0.448-1.887-0.544c-0.255-0.064-0.8-0.224-1.343-0.384c-0.703-0.224-1.406-0.447-1.917-0.543
	c-0.48-0.097-0.959-0.097-1.408,0c-0.223-1.982-0.8-6.713-0.894-7.45l0,0c-0.096-0.991-0.928-1.694-1.983-1.694
	c-0.607,0-1.183,0.224-1.566,0.607c-0.352,0.352-0.543,0.832-0.543,1.343v13.715c-0.48-0.096-1.343-0.383-2.014-1.343l-0.096-0.128
	c-0.128-0.159-0.224-0.32-0.32-0.447c-0.479-0.672-1.183-1.056-1.918-1.056c-0.64,0-1.215,0.257-1.599,0.736
	c-0.416,0.511-0.576,1.149-0.479,1.854c0.288,1.661,1.982,5.401,5.563,9.079v3.421c0,0.734,0.607,1.342,1.342,1.342h11.252
	c0.737,0,1.345-0.607,1.345-1.342v-3.485l1.182-1.982c0.511-0.863,0.8-1.854,0.8-2.845v-6.011
	C413.063,158.536,412.231,157.161,410.986,156.905"/>
<path id="XMLID_56_" fill="#811619" d="M404.943,150.512c0.16,0.127,0.351,0.191,0.575,0.191c0.257,0,0.511-0.127,0.703-0.319
	c1.152-1.406,1.759-3.166,1.759-4.987c0-1.822-0.606-3.517-1.727-4.923c-0.318-0.384-0.863-0.448-1.246-0.128
	c-0.385,0.321-0.449,0.863-0.16,1.247c0.863,1.087,1.342,2.43,1.342,3.836s-0.479,2.75-1.374,3.869
	C404.495,149.648,404.559,150.223,404.943,150.512"/>
<path id="XMLID_55_" fill="#811619" d="M394.873,140.345c-0.383-0.319-0.959-0.255-1.247,0.128
	c-1.151,1.406-1.758,3.165-1.758,4.987c0,1.822,0.607,3.517,1.726,4.923c0.192,0.224,0.448,0.352,0.704,0.352
	c0.192,0,0.384-0.064,0.543-0.191c0.383-0.321,0.447-0.863,0.16-1.247c-0.863-1.087-1.343-2.43-1.343-3.836s0.479-2.75,1.375-3.869
	C395.32,141.208,395.257,140.666,394.873,140.345"/>
<path id="XMLID_80_" fill="#811619" d="M401.875,128.229h-3.933c-0.352,0-0.639-0.288-0.639-0.639s0.288-0.639,0.639-0.639h3.933
	c0.35,0,0.639,0.288,0.639,0.639S402.225,128.229,401.875,128.229 M411.433,125h-23.049c-1.407,0-2.558,1.151-2.558,2.557v38.204
	c0,1.407,1.151,2.558,2.558,2.558h4.859c0.991,0,0.575-0.352,0.448-0.544c-1.822-2.524-2.877-4.891-3.102-6.394
	c-0.032-0.191-0.064-0.384-0.064-0.576c0-0.19,0.096-0.574-0.575-0.574h-0.576c-0.352,0-0.64-0.288-0.64-0.64V130.53
	c0-0.352,0.288-0.639,0.64-0.639h21.069c0.351,0,0.639,0.288,0.639,0.639v24.681c0,0.607,0.351,0.671,0.446,0.703
	c0.928,0.288,1.631,0.96,2.078,1.694c0.16,0.256,0.385,0.384,0.385-0.063v-29.988C413.991,126.151,412.839,125,411.433,125"/>
</svg>
