<?xml version="1.0" encoding="utf-8"?>
<!-- Generator: Adobe Illustrator 16.0.0, SVG Export Plug-In . SVG Version: 6.00 Build 0)  -->
<!DOCTYPE svg PUBLIC "-//W3C//DTD SVG 1.1//EN" "http://www.w3.org/Graphics/SVG/1.1/DTD/svg11.dtd">
<svg version="1.1" id="Layer_1" xmlns="http://www.w3.org/2000/svg" xmlns:xlink="http://www.w3.org/1999/xlink" x="0px" y="0px"
	 width="50px" height="50px" viewBox="374.952 125 50 50" enable-background="new 374.952 125 50 50" xml:space="preserve">
<g id="XMLID_50_">
	<path id="XMLID_29_" fill="#811619" d="M403.775,157.362l-0.621,3.031l3.186,0.35c-0.815-1.01-1.671-2.099-2.486-3.303
		C403.814,157.44,403.814,157.401,403.775,157.362"/>
</g>
<g id="XMLID_49_">
	<path id="XMLID_27_" fill="#811619" d="M375.8,170.884c-0.117,0.389-0.039,0.816,0.194,1.166c0.233,0.311,0.622,0.505,1.049,0.505
		h19.505l1.826-8.742l-19.894-2.137L375.8,170.884z"/>
</g>
<path id="XMLID_45_" fill="#D09B2C" d="M411.896,132.302c4.39,0,7.965,3.575,7.965,7.965s-3.575,7.965-7.965,7.965
	c-4.391,0-7.966-3.574-7.966-7.965C403.97,135.876,407.545,132.302,411.896,132.302 M411.391,163.541
	c0.156,0.155,0.35,0.232,0.544,0.232s0.389-0.077,0.544-0.232c1.205-1.283,3.575-3.925,5.945-7.266
	c2.991-4.196,6.527-10.375,6.527-15.853c0-7.188-5.866-13.016-13.055-13.016c-7.149,0-13.017,5.828-13.017,13.016
	c0,5.517,3.575,11.657,6.566,15.892C407.816,159.655,410.187,162.258,411.391,163.541"/>
<g id="XMLID_66_">
	<path id="XMLID_25_" fill="#811619" d="M398.258,147.183h-14.609c-0.583,0-1.088,0.389-1.282,0.933l-2.798,9.714l19.622,2.138
		l1.554-7.383C399.812,150.874,398.919,149.048,398.258,147.183"/>
</g>
<path id="XMLID_48_" fill="#A6CE39" d="M423.63,166.61l-21.292-2.331l-1.709,8.314h23.001c0.738,0,1.321-0.583,1.321-1.321
	c0-0.155-0.039-0.311-0.078-0.466L423.63,166.61z"/>
<path id="XMLID_65_" fill="#A6CE39" d="M416.559,161.87l5.906,0.66l-1.749-6.1c-0.232,0.35-0.466,0.698-0.699,1.01
	C418.812,159.111,417.607,160.627,416.559,161.87"/>
</svg>
