<?xml version="1.0" encoding="utf-8"?>
<!-- Generator: Adobe Illustrator 16.0.0, SVG Export Plug-In . SVG Version: 6.00 Build 0)  -->
<!DOCTYPE svg PUBLIC "-//W3C//DTD SVG 1.1//EN" "http://www.w3.org/Graphics/SVG/1.1/DTD/svg11.dtd">
<svg version="1.1" id="Layer_1" xmlns="http://www.w3.org/2000/svg" xmlns:xlink="http://www.w3.org/1999/xlink" x="0px" y="0px"
	 width="50px" height="50px" viewBox="374.952 125 50 50" enable-background="new 374.952 125 50 50" xml:space="preserve">
<path id="XMLID_17_" fill="#811619" d="M390.375,165.26c-1.548,0-2.771-1.222-2.771-2.771s1.222-2.771,2.771-2.771
	c1.549,0,2.771,1.223,2.771,2.771S391.924,165.26,390.375,165.26 M390.375,156.05c-3.382,0-6.153,2.771-6.153,6.153
	c0,2.609,3.586,8.6,5.297,11.289c0.204,0.285,0.53,0.488,0.896,0.488c0.367,0,0.693-0.163,0.897-0.488
	c1.711-2.689,5.297-8.68,5.297-11.289C396.57,158.821,393.799,156.05,390.375,156.05"/>
<path id="XMLID_14_" fill="#D09B2C" d="M415.764,134.696c-1.548,0-2.771-1.222-2.771-2.771c0-1.548,1.223-2.771,2.771-2.771
	c1.549,0,2.771,1.223,2.771,2.771C418.535,133.474,417.272,134.696,415.764,134.696 M415.764,125.486
	c-3.422,0-6.194,2.771-6.194,6.154c0,2.608,3.587,8.598,5.298,11.288c0.203,0.286,0.53,0.489,0.896,0.489s0.693-0.163,0.897-0.489
	c1.711-2.689,5.298-8.679,5.298-11.288C421.918,128.258,419.147,125.486,415.764,125.486"/>
<g id="XMLID_8_">
	<path id="XMLID_11_" fill="#056330" d="M415.764,145.087L415.764,145.087L415.764,145.087L415.764,145.087z"/>
	<path id="XMLID_10_" fill="#056330" d="M413.481,143.825c-0.408-0.652-0.814-1.345-1.263-2.038h-29.545
		c-1.63,0-2.934,1.304-2.934,2.934v3.505c0,1.589,1.303,2.934,2.934,2.934h17.279c0.163,0,0.285,0.122,0.285,0.285v4.85
		c0,1.672,1.346,3.057,3.057,3.057h7.824c0.367,0,0.653,0.284,0.653,0.652v11.043c0,0.367-0.286,0.652-0.653,0.652h-16.79
		c-0.571,0.938-1.101,1.874-1.671,2.73c-0.123,0.204-0.286,0.407-0.489,0.57h18.95c2.161,0,3.952-1.752,3.952-3.953v-11.084
		c0-2.159-1.752-3.953-3.952-3.953h-7.579v-4.564c0-1.997-1.631-3.586-3.587-3.586H383.04v-2.73h32.724
		C414.826,145.087,413.971,144.599,413.481,143.825"/>
</g>
</svg>
