<?xml version="1.0" encoding="utf-8"?>
<!-- Generator: Adobe Illustrator 16.0.0, SVG Export Plug-In . SVG Version: 6.00 Build 0)  -->
<!DOCTYPE svg PUBLIC "-//W3C//DTD SVG 1.1//EN" "http://www.w3.org/Graphics/SVG/1.1/DTD/svg11.dtd">
<svg version="1.1" id="Layer_1" xmlns="http://www.w3.org/2000/svg" xmlns:xlink="http://www.w3.org/1999/xlink" x="0px" y="0px"
	 width="50px" height="50px" viewBox="0 0 50 50" enable-background="new 0 0 50 50" xml:space="preserve">
<path id="XMLID_7_" fill="#811619" d="M17.411,24.098L20,21.507l1.083,1.084l-6.122,6.123c-0.471,0.471-0.377,1.365,0.188,1.977
	l4.192,4.192c0.612,0.613,1.459,0.706,1.978,0.188l6.122-6.123l1.083,1.083l-2.542,2.639L43.312,50L50,43.312L32.623,25.935
	l-2.592,2.591l-1.082-1.083l1.836-1.837c0.471-0.471,0.423-1.367-0.188-1.978l-1.412-1.413l2.496-2.544l1.131,1.131
	c0.045-0.047,0.14-0.095,0.187-0.142c0.99-0.989,0.99-2.591,0-3.626c-0.988-0.989-2.638-0.989-3.626,0
	c-0.047,0.047-0.094,0.14-0.14,0.188l1.128,1.131l-2.494,2.497l-1.413-1.413c-0.612-0.613-1.46-0.707-1.932-0.189l-1.883,1.884
	l-1.084-1.084l2.59-2.589L6.768,0.08L0.08,6.767L17.411,24.098z"/>
<g id="XMLID_6_">
	<path id="XMLID_33_" fill="#D09B2C" d="M35.117,23.062l0.708,0.706c0.047-0.046,0.095-0.094,0.187-0.141
		c2.639-2.638,2.639-6.924,0-9.561c-2.637-2.637-6.922-2.637-9.559,0c-0.047,0.047-0.094,0.094-0.142,0.188l0.707,0.706
		c0.047-0.047,0.094-0.141,0.141-0.189c2.261-2.26,5.887-2.26,8.147,0c2.214,2.262,2.214,5.888,0,8.148
		C35.26,22.967,35.165,23.015,35.117,23.062"/>
</g>
<g id="XMLID_5_">
	<path id="XMLID_31_" fill="#D09B2C" d="M20.519,8.132c5.887-5.886,15.493-5.886,21.428,0c5.888,5.887,5.888,15.495,0,21.381
		c-0.048,0.048-0.095,0.095-0.189,0.143l0.707,0.704c0.047-0.046,0.095-0.094,0.188-0.141c6.311-6.311,6.311-16.53,0-22.841
		c-6.31-6.264-16.529-6.264-22.84,0.047c-0.047,0.047-0.094,0.095-0.141,0.188l0.707,0.707C20.425,8.227,20.472,8.18,20.519,8.132"
		/>
</g>
<g id="XMLID_4_">
	<path id="XMLID_29_" fill="#D09B2C" d="M38.839,26.406c4.191-4.191,4.191-11.021,0-15.165c-4.191-4.191-10.973-4.191-15.165,0
		c-0.048,0.047-0.095,0.094-0.141,0.189l-0.707-0.708c0.046-0.047,0.093-0.141,0.14-0.188c4.568-4.568,12.057-4.568,16.625,0
		c4.569,4.569,4.569,12.057,0,16.625c-0.048,0.047-0.094,0.094-0.188,0.141l-0.707-0.704C38.697,26.546,38.745,26.5,38.839,26.406"
		/>
</g>
</svg>
